999
dxflib 3.17.0.0
  0
SECTION
  2
HEADER
  9
$ACADVER
  1
AC1015
  9
$HANDSEED
  5
FFFF
  9
$ANGBASE
 50
0.0
  9
$ANGDIR
 70
0
  9
$ATTMODE
 70
1
  9
$AUNITS
 70
0
  9
$AUPREC
 70
0
  9
$CECOLOR
 62
3
  9
$CELTSCALE
 40
1.0
  9
$CHAMFERA
 40
0.0
  9
$CHAMFERB
 40
0.0
  9
$CHAMFERC
 40
0.0
  9
$CHAMFERD
 40
0.0
  9
$CMLJUST
 70
0
  9
$CMLSCALE
 40
1.0
  9
$DIMADEC
 70
0
  9
$DIMALT
 70
0
  9
$DIMALTD
 70
2
  9
$DIMALTF
 40
25.3999999999999986
  9
$DIMALTRND
 40
0.0
  9
$DIMALTTD
 70
2
  9
$DIMALTTZ
 70
0
  9
$DIMALTU
 70
2
  9
$DIMALTZ
 70
0
  9
$DIMAPOST
  1

  9
$DIMASZ
 40
0.18
  9
$DIMATFIT
 70
3
  9
$DIMAUNIT
 70
0
  9
$DIMAZIN
 70
0
  9
$DIMBLK
  1

  9
$DIMBLK1
  1

  9
$DIMBLK2
  1

  9
$DIMCEN
 40
0.09
  9
$DIMCLRD
 70
0
  9
$DIMCLRE
 70
0
  9
$DIMCLRT
 70
0
  9
$DIMDEC
 70
4
  9
$DIMDLE
 40
0.0
  9
$DIMDLI
 40
0.38
  9
$DIMDSEP
 70
46
  9
$DIMEXE
 40
0.18
  9
$DIMEXO
 40
0.0625
  9
$DIMFRAC
 70
0
  9
$DIMGAP
 40
0.09
  9
$DIMJUST
 70
0
  9
$DIMLDRBLK
  1

  9
$DIMLFAC
 40
1.0
  9
$DIMLIM
 70
0
  9
$DIMLUNIT
 70
2
  9
$DIMLWD
 70
-2
  9
$DIMLWE
 70
-2
  9
$DIMPOST
  1

  9
$DIMRND
 40
0.0
  9
$DIMSAH
 70
0
  9
$DIMSCALE
 40
1.0
  9
$DIMSD1
 70
0
  9
$DIMSD2
 70
0
  9
$DIMSE1
 70
0
  9
$DIMSE2
 70
0
  9
$DIMSOXD
 70
0
  9
$DIMTAD
 70
0
  9
$DIMTDEC
 70
4
  9
$DIMTFAC
 40
1.0
  9
$DIMTIH
 70
1
  9
$DIMTIX
 70
0
  9
$DIMTM
 40
0.0
  9
$DIMTOFL
 70
0
  9
$DIMTOH
 70
1
  9
$DIMTOL
 70
0
  9
$DIMTOLJ
 70
1
  9
$DIMTP
 40
0.0
  9
$DIMTSZ
 40
0.0
  9
$DIMTVP
 40
0.0
  9
$DIMTXSTY
  7
Standard
  9
$DIMTXT
 40
0.18
  9
$DIMTZIN
 70
0
  9
$DIMUPT
 70
0
  9
$DIMZIN
 70
0
  9
$DISPSILH
 70
0
  9
$DWGCODEPAGE
  3
ANSI_1252
  9
$ELEVATION
 40
0.0
  9
$EXTMAX
 10
372.1350002157560084
 20
330.3249921020232023
 30
0.0
  9
$EXTMIN
 10
31.9779780647258995
 20
201.0729921020229938
 30
0.0
  9
$FILLETRAD
 40
0.0
  9
$FILLMODE
 70
0
  9
$INSBASE
 10
0.0
 20
0.0
 30
0.0
  9
$INSUNITS
 70
0
  9
$LIMCHECK
 70
0
  9
$LIMMAX
 10
12.0
 20
9.0
  9
$LIMMIN
 10
0.0
 20
0.0
  9
$LTSCALE
 40
1.0
  9
$LUNITS
 70
2
  9
$LUPREC
 70
4
  9
$MAXACTVP
 70
64
  9
$MEASUREMENT
 70
0
  9
$MIRRTEXT
 70
0
  9
$ORTHOMODE
 70
0
  9
$PDMODE
 70
0
  9
$PDSIZE
 40
0.0
  9
$PELEVATION
 40
0.0
  9
$PEXTMAX
 10
-100000000000000000000.0
 20
-100000000000000000000.0
 30
-100000000000000000000.0
  9
$PEXTMIN
 10
100000000000000000000.0
 20
100000000000000000000.0
 30
100000000000000000000.0
  9
$PINSBASE
 10
0.0
 20
0.0
 30
0.0
  9
$PLIMCHECK
 70
0
  9
$PLIMMAX
 10
12.0
 20
9.0
  9
$PLIMMIN
 10
0.0
 20
0.0
  9
$PLINEGEN
 70
0
  9
$PLINEWID
 40
0.0
  9
$PROXYGRAPHICS
 70
1
  9
$PSLTSCALE
 70
1
  9
$PUCSNAME
  2

  9
$PUCSORG
 10
0.0
 20
0.0
 30
0.0
  9
$PUCSXDIR
 10
1.0
 20
0.0
 30
0.0
  9
$PUCSYDIR
 10
0.0
 20
1.0
 30
0.0
  9
$QTEXTMODE
 70
0
  9
$REGENMODE
 70
1
  9
$SHADEDGE
 70
3
  9
$SHADEDIF
 70
70
  9
$SKETCHINC
 40
0.1
  9
$SKPOLY
 70
0
  9
$SPLFRAME
 70
1
  9
$SPLINESEGS
 70
8
  9
$SPLINETYPE
 70
6
  9
$SURFTAB1
 70
6
  9
$SURFTAB2
 70
6
  9
$SURFTYPE
 70
6
  9
$SURFU
 70
6
  9
$SURFV
 70
6
  9
$TEXTSIZE
 40
0.2
  9
$TEXTSTYLE
  7
Standard
  9
$THICKNESS
 40
0.0
  9
$TILEMODE
 70
1
  9
$TRACEWID
 40
0.05
  9
$TREEDEPTH
 70
3020
  9
$UCSNAME
  2

  9
$UCSORG
 10
0.0
 20
0.0
 30
0.0
  9
$UCSXDIR
 10
1.0
 20
0.0
 30
0.0
  9
$UCSYDIR
 10
0.0
 20
1.0
 30
0.0
  9
$UNITMODE
 70
0
  9
$USERI1
 70
0
  9
$USERI2
 70
0
  9
$USERI3
 70
0
  9
$USERI4
 70
0
  9
$USERI5
 70
0
  9
$USERR1
 40
0.0
  9
$USERR2
 40
0.0
  9
$USERR3
 40
0.0
  9
$USERR4
 40
0.0
  9
$USERR5
 40
0.0
  9
$USRTIMER
 70
1
  9
$VISRETAIN
 70
1
  0
ENDSEC
  0
SECTION
  2
TABLES
  0
TABLE
  2
VPORT
  5
8
100
AcDbSymbolTable
 70
1
  0
VPORT
  5
30
100
AcDbSymbolTableRecord
100
AcDbViewportTableRecord
  2
*Active
 70
0
 10
0.0
 20
0.0
 11
1.0
 21
1.0
 12
286.3055555555554861
 22
148.5
 13
0.0
 23
0.0
 14
10.0
 24
10.0
 15
10.0
 25
10.0
 16
0.0
 26
0.0
 36
1.0
 17
0.0
 27
0.0
 37
0.0
 40
297.0
 41
1.92798353909465
 42
50.0
 43
0.0
 44
0.0
 50
0.0
 51
0.0
 71
0
 72
100
 73
1
 74
3
 75
1
 76
1
 77
0
 78
0
281
0
 65
1
110
0.0
120
0.0
130
0.0
111
1.0
121
0.0
131
0.0
112
0.0
122
1.0
132
0.0
 79
0
146
0.0
  0
ENDTAB
  0
TABLE
  2
LTYPE
  5
5
100
AcDbSymbolTable
 70
41
  0
LTYPE
  5
16
100
AcDbSymbolTableRecord
100
AcDbLinetypeTableRecord
  2
Continuous
 70
0
  3
Solid line
 72
65
 73
0
 40
0.0
  0
LTYPE
  5
31
100
AcDbSymbolTableRecord
100
AcDbLinetypeTableRecord
  2
HIDDENX2
 70
0
  3
Hidden (2x) ____ ____ ____ ____ ____ ____ ____ 
 72
65
 73
2
 40
19.0499999999999972
 49
12.6999999999999993
 74
0
 49
-6.3499999999999996
 74
0
  0
LTYPE
  5
32
100
AcDbSymbolTableRecord
100
AcDbLinetypeTableRecord
  2
ACAD_ISO06W100
 70
0
  3
ISO long-dash triple-dot ____ ... ____ ... ____
 72
65
 73
8
 40
36.0000000000000071
 49
24.0
 74
0
 49
-2.9500000000000002
 74
0
 49
0.1
 74
0
 49
-2.9000000000000004
 74
0
 49
0.1
 74
0
 49
-2.9000000000000004
 74
0
 49
0.1
 74
0
 49
-2.9500000000000002
 74
0
  0
LTYPE
  5
33
100
AcDbSymbolTableRecord
100
AcDbLinetypeTableRecord
  2
HIDDEN
 70
0
  3
Hidden __ __ __ __ __ __ __ __ __ __ __ __ __ __
 72
65
 73
2
 40
9.5249999999999986
 49
6.3499999999999996
 74
0
 49
-3.1749999999999998
 74
0
  0
LTYPE
  5
34
100
AcDbSymbolTableRecord
100
AcDbLinetypeTableRecord
  2
DASHDOT
 70
0
  3
Dash dot __ . __ . __ . __ . __ . __ . __ . __
 72
65
 73
4
 40
25.4000000000000021
 49
12.6999999999999993
 74
0
 49
-6.2999999999999998
 74
0
 49
0.1
 74
0
 49
-6.2999999999999998
 74
0
  0
LTYPE
  5
35
100
AcDbSymbolTableRecord
100
AcDbLinetypeTableRecord
  2
DASHED2
 70
0
  3
Dashed (.5x) _ _ _ _ _ _ _ _ _ _ _ _ _ _ _ _ _ 
 72
65
 73
2
 40
9.5249999999999986
 49
6.3499999999999996
 74
0
 49
-3.1749999999999998
 74
0
  0
LTYPE
  5
15
100
AcDbSymbolTableRecord
100
AcDbLinetypeTableRecord
  2
ByLayer
 70
0
  3

 72
65
 73
0
 40
0.0
  0
LTYPE
  5
36
100
AcDbSymbolTableRecord
100
AcDbLinetypeTableRecord
  2
DOTX2
 70
0
  3
Dot (2x) .  .  .  .  .  .  .  .  .  .  .  .  .  .
 72
65
 73
2
 40
12.6999999999999993
 49
0.1
 74
0
 49
-12.5999999999999996
 74
0
  0
LTYPE
  5
37
100
AcDbSymbolTableRecord
100
AcDbLinetypeTableRecord
  2
DOT
 70
0
  3
Dot . . . . . . . . . . . . . . . . . . . . . . . .
 72
65
 73
2
 40
6.3499999999999996
 49
0.1
 74
0
 49
-6.25
 74
0
  0
LTYPE
  5
38
100
AcDbSymbolTableRecord
100
AcDbLinetypeTableRecord
  2
DASHDOT2
 70
0
  3
Dash dot (.5x) _._._._._._._._._._._._._._._.
 72
65
 73
4
 40
12.6999999999999993
 49
6.3499999999999996
 74
0
 49
-3.125
 74
0
 49
0.1
 74
0
 49
-3.125
 74
0
  0
LTYPE
  5
39
100
AcDbSymbolTableRecord
100
AcDbLinetypeTableRecord
  2
DASHEDX2
 70
0
  3
Dashed (2x) ____  ____  ____  ____  ____  ___
 72
65
 73
2
 40
38.0999999999999943
 49
25.3999999999999986
 74
0
 49
-12.6999999999999993
 74
0
  0
LTYPE
  5
3A
100
AcDbSymbolTableRecord
100
AcDbLinetypeTableRecord
  2
PHANTOM
 70
0
  3
Phantom ______  __  __  ______  __  __  ______ 
 72
65
 73
6
 40
63.5000000000000071
 49
31.75
 74
0
 49
-6.3499999999999996
 74
0
 49
6.3499999999999996
 74
0
 49
-6.3499999999999996
 74
0
 49
6.3499999999999996
 74
0
 49
-6.3499999999999996
 74
0
  0
LTYPE
  5
3B
100
AcDbSymbolTableRecord
100
AcDbLinetypeTableRecord
  2
ACAD_ISO03W100
 70
0
  3
ISO dash space __    __    __    __    __    __
 72
65
 73
2
 40
30.0
 49
12.0
 74
0
 49
-18.0
 74
0
  0
LTYPE
  5
3C
100
AcDbSymbolTableRecord
100
AcDbLinetypeTableRecord
  2
PHANTOMX2
 70
0
  3
Phantom (2x) ____________    ____    ____   _
 72
65
 73
6
 40
127.0000000000000142
 49
63.5
 74
0
 49
-12.6999999999999993
 74
0
 49
12.6999999999999993
 74
0
 49
-12.6999999999999993
 74
0
 49
12.6999999999999993
 74
0
 49
-12.6999999999999993
 74
0
  0
LTYPE
  5
3D
100
AcDbSymbolTableRecord
100
AcDbLinetypeTableRecord
  2
ACAD_ISO05W100
 70
0
  3
ISO long-dash double-dot ____ .. ____ .. ____ . 
 72
65
 73
6
 40
33.0000000000000071
 49
24.0
 74
0
 49
-2.9500000000000002
 74
0
 49
0.1
 74
0
 49
-2.9000000000000004
 74
0
 49
0.1
 74
0
 49
-2.9500000000000002
 74
0
  0
LTYPE
  5
3E
100
AcDbSymbolTableRecord
100
AcDbLinetypeTableRecord
  2
ACAD_ISO07W100
 70
0
  3
ISO dot . . . . . . . . . . . . . . . . . . . . 
 72
65
 73
2
 40
3.0
 49
0.1
 74
0
 49
-2.8999999999999999
 74
0
  0
LTYPE
  5
3F
100
AcDbSymbolTableRecord
100
AcDbLinetypeTableRecord
  2
BORDER2
 70
0
  3
Border (.5x) __.__.__.__.__.__.__.__.__.__.__.
 72
65
 73
6
 40
22.2250000000000014
 49
6.3499999999999996
 74
0
 49
-3.1749999999999998
 74
0
 49
6.3499999999999996
 74
0
 49
-3.125
 74
0
 49
0.1
 74
0
 49
-3.125
 74
0
  0
LTYPE
  5
40
100
AcDbSymbolTableRecord
100
AcDbLinetypeTableRecord
  2
ACAD_ISO08W100
 70
0
  3
ISO long-dash short-dash ____ __ ____ __ ____ _
 72
65
 73
4
 40
36.0
 49
24.0
 74
0
 49
-3.0
 74
0
 49
6.0
 74
0
 49
-3.0
 74
0
  0
LTYPE
  5
41
100
AcDbSymbolTableRecord
100
AcDbLinetypeTableRecord
  2
DASHDOTX2
 70
0
  3
Dash dot (2x) ____  .  ____  .  ____  .  ___
 72
65
 73
4
 40
50.7999999999999972
 49
25.3999999999999986
 74
0
 49
-12.6499999999999986
 74
0
 49
0.1
 74
0
 49
-12.6499999999999986
 74
0
  0
LTYPE
  5
42
100
AcDbSymbolTableRecord
100
AcDbLinetypeTableRecord
  2
ACAD_ISO15W100
 70
0
  3
ISO double-dash triple-dot __ __ . . . __ __ . .
 72
65
 73
10
 40
39.0000000000000071
 49
12.0
 74
0
 49
-3.0
 74
0
 49
12.0
 74
0
 49
-2.9500000000000002
 74
0
 49
0.1
 74
0
 49
-2.9000000000000004
 74
0
 49
0.1
 74
0
 49
-2.9000000000000004
 74
0
 49
0.1
 74
0
 49
-2.9500000000000002
 74
0
  0
LTYPE
  5
43
100
AcDbSymbolTableRecord
100
AcDbLinetypeTableRecord
  2
CENTER
 70
0
  3
Center ____ _ ____ _ ____ _ ____ _ ____ _ ____
 72
65
 73
4
 40
50.8000000000000043
 49
31.75
 74
0
 49
-6.3499999999999996
 74
0
 49
6.3499999999999996
 74
0
 49
-6.3499999999999996
 74
0
  0
LTYPE
  5
44
100
AcDbSymbolTableRecord
100
AcDbLinetypeTableRecord
  2
ACAD_ISO02W100
 70
0
  3
ISO dash __ __ __ __ __ __ __ __ __ __ __ __ __
 72
65
 73
2
 40
15.0
 49
12.0
 74
0
 49
-3.0
 74
0
  0
LTYPE
  5
45
100
AcDbSymbolTableRecord
100
AcDbLinetypeTableRecord
  2
DIVIDE2
 70
0
  3
Divide (.5x) __..__..__..__..__..__..__..__.._
 72
65
 73
6
 40
15.8749999999999982
 49
6.3499999999999996
 74
0
 49
-3.125
 74
0
 49
0.1
 74
0
 49
-3.0750000000000002
 74
0
 49
0.1
 74
0
 49
-3.125
 74
0
  0
LTYPE
  5
46
100
AcDbSymbolTableRecord
100
AcDbLinetypeTableRecord
  2
ACAD_ISO09W100
 70
0
  3
ISO long-dash double-short-dash ____ __ __ ____
 72
65
 73
6
 40
45.0
 49
24.0
 74
0
 49
-3.0
 74
0
 49
6.0
 74
0
 49
-3.0
 74
0
 49
6.0
 74
0
 49
-3.0
 74
0
  0
LTYPE
  5
47
100
AcDbSymbolTableRecord
100
AcDbLinetypeTableRecord
  2
ACAD_ISO14W100
 70
0
  3
ISO dash triple-dot __ . . . __ . . . __ . . . _
 72
65
 73
8
 40
24.0000000000000036
 49
12.0
 74
0
 49
-2.9500000000000002
 74
0
 49
0.1
 74
0
 49
-2.9000000000000004
 74
0
 49
0.1
 74
0
 49
-2.9000000000000004
 74
0
 49
0.1
 74
0
 49
-2.9500000000000002
 74
0
  0
LTYPE
  5
48
100
AcDbSymbolTableRecord
100
AcDbLinetypeTableRecord
  2
ACAD_ISO11W100
 70
0
  3
ISO double-dash dot __ __ . __ __ . __ __ . __ _
 72
65
 73
6
 40
33.0
 49
12.0
 74
0
 49
-3.0
 74
0
 49
12.0
 74
0
 49
-2.9500000000000002
 74
0
 49
0.1
 74
0
 49
-2.9500000000000002
 74
0
  0
LTYPE
  5
49
100
AcDbSymbolTableRecord
100
AcDbLinetypeTableRecord
  2
BORDER
 70
0
  3
Border __ __ . __ __ . __ __ . __ __ . __ __ .
 72
65
 73
6
 40
44.4499999999999957
 49
12.6999999999999993
 74
0
 49
-6.3499999999999996
 74
0
 49
12.6999999999999993
 74
0
 49
-6.2999999999999998
 74
0
 49
0.1
 74
0
 49
-6.2999999999999998
 74
0
  0
LTYPE
  5
14
100
AcDbSymbolTableRecord
100
AcDbLinetypeTableRecord
  2
ByBlock
 70
0
  3

 72
65
 73
0
 40
0.0
  0
LTYPE
  5
4A
100
AcDbSymbolTableRecord
100
AcDbLinetypeTableRecord
  2
ACAD_ISO12W100
 70
0
  3
ISO dash double-dot __ . . __ . . __ . . __ . . 
 72
65
 73
6
 40
21.0
 49
12.0
 74
0
 49
-2.9500000000000002
 74
0
 49
0.1
 74
0
 49
-2.9000000000000004
 74
0
 49
0.1
 74
0
 49
-2.9500000000000002
 74
0
  0
LTYPE
  5
4B
100
AcDbSymbolTableRecord
100
AcDbLinetypeTableRecord
  2
ACAD_ISO04W100
 70
0
  3
ISO long-dash dot ____ . ____ . ____ . ____ . _
 72
65
 73
4
 40
30.0
 49
24.0
 74
0
 49
-2.9500000000000002
 74
0
 49
0.1
 74
0
 49
-2.9500000000000002
 74
0
  0
LTYPE
  5
4C
100
AcDbSymbolTableRecord
100
AcDbLinetypeTableRecord
  2
HIDDEN2
 70
0
  3
Hidden (.5x) _ _ _ _ _ _ _ _ _ _ _ _ _ _ _ _ _ 
 72
65
 73
2
 40
4.7624999999999993
 49
3.1749999999999998
 74
0
 49
-1.5874999999999999
 74
0
  0
LTYPE
  5
4D
100
AcDbSymbolTableRecord
100
AcDbLinetypeTableRecord
  2
BORDERX2
 70
0
  3
Border (2x) ____  ____  .  ____  ____  .  ___
 72
65
 73
6
 40
88.8999999999999773
 49
25.3999999999999986
 74
0
 49
-12.6999999999999993
 74
0
 49
25.3999999999999986
 74
0
 49
-12.6499999999999986
 74
0
 49
0.1
 74
0
 49
-12.6499999999999986
 74
0
  0
LTYPE
  5
4E
100
AcDbSymbolTableRecord
100
AcDbLinetypeTableRecord
  2
PHANTOM2
 70
0
  3
Phantom (.5x) ___ _ _ ___ _ _ ___ _ _ ___ _ _
 72
65
 73
6
 40
31.7500000000000036
 49
15.875
 74
0
 49
-3.1749999999999998
 74
0
 49
3.1749999999999998
 74
0
 49
-3.1749999999999998
 74
0
 49
3.1749999999999998
 74
0
 49
-3.1749999999999998
 74
0
  0
LTYPE
  5
4F
100
AcDbSymbolTableRecord
100
AcDbLinetypeTableRecord
  2
DIVIDEX2
 70
0
  3
Divide (2x) ________  .  .  ________  .  .  _
 72
65
 73
6
 40
63.5
 49
25.3999999999999986
 74
0
 49
-12.6499999999999986
 74
0
 49
0.1
 74
0
 49
-12.5999999999999979
 74
0
 49
0.1
 74
0
 49
-12.6499999999999986
 74
0
  0
LTYPE
  5
50
100
AcDbSymbolTableRecord
100
AcDbLinetypeTableRecord
  2
DASHED
 70
0
  3
Dashed __ __ __ __ __ __ __ __ __ __ __ __ __ _
 72
65
 73
2
 40
19.0499999999999972
 49
12.6999999999999993
 74
0
 49
-6.3499999999999996
 74
0
  0
LTYPE
  5
51
100
AcDbSymbolTableRecord
100
AcDbLinetypeTableRecord
  2
CENTER2
 70
0
  3
Center (.5x) ___ _ ___ _ ___ _ ___ _ ___ _ ___
 72
65
 73
4
 40
1.125
 49
0.75
 74
0
 49
-0.125
 74
0
 49
0.125
 74
0
 49
-0.125
 74
0
  0
LTYPE
  5
52
100
AcDbSymbolTableRecord
100
AcDbLinetypeTableRecord
  2
CENTERX2
 70
0
  3
Center (2x) ________  __  ________  __  _____
 72
65
 73
4
 40
101.6000000000000085
 49
63.5
 74
0
 49
-12.6999999999999993
 74
0
 49
12.6999999999999993
 74
0
 49
-12.6999999999999993
 74
0
  0
LTYPE
  5
53
100
AcDbSymbolTableRecord
100
AcDbLinetypeTableRecord
  2
DIVIDE
 70
0
  3
Divide ____ . . ____ . . ____ . . ____ . . ____
 72
65
 73
6
 40
31.7500000000000036
 49
12.6999999999999993
 74
0
 49
-6.2999999999999998
 74
0
 49
0.1
 74
0
 49
-6.25
 74
0
 49
0.1
 74
0
 49
-6.2999999999999998
 74
0
  0
LTYPE
  5
54
100
AcDbSymbolTableRecord
100
AcDbLinetypeTableRecord
  2
ACAD_ISO10W100
 70
0
  3
ISO dash dot __ . __ . __ . __ . __ . __ . __ . 
 72
65
 73
4
 40
18.0
 49
12.0
 74
0
 49
-2.9500000000000002
 74
0
 49
0.1
 74
0
 49
-2.9500000000000002
 74
0
  0
LTYPE
  5
55
100
AcDbSymbolTableRecord
100
AcDbLinetypeTableRecord
  2
DOT2
 70
0
  3
Dot (.5x) ........................................
 72
65
 73
2
 40
3.1749999999999998
 49
0.1
 74
0
 49
-3.0749999999999997
 74
0
  0
LTYPE
  5
56
100
AcDbSymbolTableRecord
100
AcDbLinetypeTableRecord
  2
ACAD_ISO13W100
 70
0
  3
ISO double-dash double-dot __ __ . . __ __ . . _
 72
65
 73
8
 40
36.0000000000000071
 49
12.0
 74
0
 49
-3.0
 74
0
 49
12.0
 74
0
 49
-2.9500000000000002
 74
0
 49
0.1
 74
0
 49
-2.9000000000000004
 74
0
 49
0.1
 74
0
 49
-2.9500000000000002
 74
0
  0
ENDTAB
  0
TABLE
  2
LAYER
  5
2
100
AcDbSymbolTable
 70
2
  0
LAYER
  5
10
100
AcDbSymbolTableRecord
100
AcDbLayerTableRecord
  2
0
 70
0
 62
7
420
16777215
  6
Continuous
370
-3
390
F
  0
LAYER
  5
57
100
AcDbSymbolTableRecord
100
AcDbLayerTableRecord
  2
Defpoints
 70
0
 62
7
420
16777215
  6
Continuous
290
0
370
-3
390
F
  0
ENDTAB
  0
TABLE
  2
STYLE
  5
3
100
AcDbSymbolTable
 70
1
  0
STYLE
  5
58
100
AcDbSymbolTableRecord
100
AcDbTextStyleTableRecord
  2
Standard
 70
0
 40
0.0
 41
1.0
 50
0.0
 71
0
 42
2.5
  3

  4

1001
ACAD
1000
txt
1071
0
  0
ENDTAB
  0
TABLE
  2
VIEW
  5
6
100
AcDbSymbolTable
 70
0
  0
ENDTAB
  0
TABLE
  2
UCS
  5
7
100
AcDbSymbolTable
 70
0
  0
ENDTAB
  0
TABLE
  2
APPID
  5
9
100
AcDbSymbolTable
 70
1
  0
APPID
  5
12
100
AcDbSymbolTableRecord
100
AcDbRegAppTableRecord
  2
ACAD
 70
0
  0
APPID
  5
59
100
AcDbSymbolTableRecord
100
AcDbRegAppTableRecord
  2
QCAD
 70
0
  0
ENDTAB
  0
TABLE
  2
DIMSTYLE
  5
A
100
AcDbSymbolTable
 70
1
100
AcDbDimStyleTable
 71
0
  0
DIMSTYLE
105
27
100
AcDbSymbolTableRecord
100
AcDbDimStyleTableRecord
  2
Standard
 41
0.18
 42
0.0625
 43
3.75
 44
0.18
 70
0
 73
0
 74
0
 77
1
 78
8
140
0.18
141
2.5
143
0.03937007874016
147
0.09
171
3
172
1
271
2
272
2
274
3
278
44
283
0
284
8
340
58
  0
ENDTAB
  0
TABLE
  2
BLOCK_RECORD
  5
1
100
AcDbSymbolTable
 70
1
  0
BLOCK_RECORD
  5
1F
100
AcDbSymbolTableRecord
100
AcDbBlockTableRecord
  2
*Model_Space
340
22
  0
BLOCK_RECORD
  5
1B
100
AcDbSymbolTableRecord
100
AcDbBlockTableRecord
  2
*Paper_Space
340
1E
  0
BLOCK_RECORD
  5
23
100
AcDbSymbolTableRecord
100
AcDbBlockTableRecord
  2
*Paper_Space0
340
26
  0
ENDTAB
  0
ENDSEC
  0
SECTION
  2
BLOCKS
  0
BLOCK
  5
20
100
AcDbEntity
  8
0
100
AcDbBlockBegin
  2
*Model_Space
 70
0
 10
0.0
 20
0.0
 30
0.0
  3
*Model_Space
  1

  0
ENDBLK
  5
21
100
AcDbEntity
  8
0
100
AcDbBlockEnd
  0
BLOCK
  5
1C
100
AcDbEntity
 67
1
  8
0
100
AcDbBlockBegin
  2
*Paper_Space
 70
0
 10
0.0
 20
0.0
 30
0.0
  3
*Paper_Space
  1

  0
ENDBLK
  5
1D
100
AcDbEntity
 67
1
  8
0
100
AcDbBlockEnd
  0
BLOCK
  5
24
100
AcDbEntity
  8
0
100
AcDbBlockBegin
  2
*Paper_Space0
 70
0
 10
0.0
 20
0.0
 30
0.0
  3
*Paper_Space0
  1

  0
ENDBLK
  5
25
100
AcDbEntity
  8
0
100
AcDbBlockEnd
  0
ENDSEC
  0
SECTION
  2
ENTITIES
  0
LINE
  5
5A
100
AcDbEntity
  8
0
 62
7
420
16777215
370
-1
 48
1.0
  6
Continuous
100
AcDbLine
 10
183.6845026049055036
 20
265.9484921020228967
 30
0.0
 11
183.684502604908289
 21
284.4984921282750179
 31
0.0
  0
LINE
  5
5B
100
AcDbEntity
  8
0
 62
7
420
16777215
370
-1
 48
1.0
  6
Continuous
100
AcDbLine
 10
183.684502604908289
 20
284.4984921282750179
 30
0.0
 11
193.2100026049083112
 21
284.4984921282750179
 31
0.0
  0
LINE
  5
5C
100
AcDbEntity
  8
0
 62
7
420
16777215
370
-1
 48
1.0
  6
Continuous
100
AcDbLine
 10
183.6845026049055036
 20
265.9484921020228967
 30
0.0
 11
188.4465026049082894
 21
265.9484921020228967
 31
0.0
  0
LINE
  5
5D
100
AcDbEntity
  8
0
 62
7
420
16777215
370
-1
 48
1.0
  6
Continuous
100
AcDbLine
 10
188.4465026049082894
 20
265.9484921020228967
 30
0.0
 11
188.4465026049082894
 21
246.6498421020228875
 31
0.0
  0
LINE
  5
5E
100
AcDbEntity
  8
0
 62
7
420
16777215
370
-1
 48
1.0
  6
Continuous
100
AcDbLine
 10
193.2100026049083112
 20
336.6749921020231113
 30
0.0
 11
193.2100026049083112
 21
284.4984921282750179
 31
0.0
  0
LINE
  5
5F
100
AcDbEntity
  8
0
 62
7
420
16777215
370
-1
 48
1.0
  6
Continuous
100
AcDbLine
 10
197.9693126049091063
 20
246.6498421020228875
 30
0.0
 11
197.9693126049091063
 21
227.5994921020227935
 31
0.0
  0
LINE
  5
60
100
AcDbEntity
  8
0
 62
7
420
16777215
370
-1
 48
1.0
  6
Continuous
100
AcDbLine
 10
188.4450526049089092
 20
227.6000421020229965
 30
0.0
 11
188.4450526049089092
 21
109.7229921020229853
 31
0.0
  0
LINE
  5
61
100
AcDbEntity
  8
0
 62
7
420
16777215
370
-1
 48
1.0
  6
Continuous
100
AcDbLine
 10
188.4465026049082894
 20
246.6498421020228875
 30
0.0
 11
197.9693126049091063
 21
246.6498421020228875
 31
0.0
  0
LINE
  5
62
100
AcDbEntity
  8
0
 62
7
420
16777215
370
-1
 48
1.0
  6
Continuous
100
AcDbLine
 10
197.9693126049091063
 20
227.6000421020229965
 30
0.0
 11
188.4450526049089092
 21
227.6000421020229965
 31
0.0
  0
LINE
  5
63
100
AcDbEntity
  8
0
 62
7
420
16777215
370
-1
 48
1.0
  6
Continuous
100
AcDbLine
 10
188.4465026049082894
 20
265.9484921020228967
 30
0.0
 11
188.4465026049082894
 21
246.6498421020228875
 31
0.0
  0
LINE
  5
64
100
AcDbEntity
  8
0
 62
7
420
16777215
370
-1
 48
1.0
  6
Continuous
100
AcDbLine
 10
172.8047880647258978
 20
336.674992102023225
 30
0.0
 11
172.8047880647258125
 21
284.7479920030132234
 31
0.0
  0
LINE
  5
65
100
AcDbEntity
  8
0
 62
7
420
16777215
370
-1
 48
1.0
  6
Continuous
100
AcDbLine
 10
172.8047880647258125
 20
284.7479920030132234
 30
0.0
 11
163.279288064725904
 21
284.7479920030132234
 31
0.0
  0
LINE
  5
66
100
AcDbEntity
  8
0
 62
7
420
16777215
370
-1
 48
1.0
  6
Continuous
100
AcDbLine
 10
163.279288064725904
 20
284.7479920030132234
 30
0.0
 11
163.279288064725904
 21
265.6984921020231241
 31
0.0
  0
LINE
  5
67
100
AcDbEntity
  8
0
 62
7
420
16777215
370
-1
 48
1.0
  6
Continuous
100
AcDbLine
 10
163.279288064725904
 20
265.6984921020231241
 30
0.0
 11
168.0412880647257907
 21
265.6984921020231241
 31
0.0
  0
LINE
  5
68
100
AcDbEntity
  8
0
 62
7
420
16777215
370
-1
 48
1.0
  6
Continuous
100
AcDbLine
 10
168.0398380647265242
 20
109.7229921020231416
 30
0.0
 11
32.3631780647259006
 21
109.7229921020231416
 31
0.0
  0
LINE
  5
69
100
AcDbEntity
  8
0
 62
7
420
16777215
370
-1
 48
1.0
  6
Continuous
100
AcDbLine
 10
25.6279780647259017
 20
116.4581921020231476
 30
0.0
 11
25.6279780647259017
 21
329.939792102023091
 31
0.0
  0
LINE
  5
6A
100
AcDbEntity
  8
0
 62
7
420
16777215
370
-1
 48
1.0
  6
Continuous
100
AcDbLine
 10
32.3631780647259006
 20
336.6749921020231682
 30
0.0
 11
172.8047880647258978
 21
336.674992102023225
 31
0.0
  0
LINE
  5
6B
100
AcDbEntity
  8
0
 62
7
420
16777215
370
-1
 48
1.0
  6
Continuous
100
AcDbLine
 10
168.0412880647257907
 20
265.6984921020231241
 30
0.0
 11
168.0412880647259044
 21
246.3984921020231127
 31
0.0
  0
LINE
  5
6C
100
AcDbEntity
  8
0
 62
7
420
16777215
370
-1
 48
1.0
  6
Continuous
100
AcDbLine
 10
168.0412880647259044
 20
246.3984921020231127
 30
0.0
 11
177.5640980647266929
 21
246.3984921020231127
 31
0.0
  0
LINE
  5
6D
100
AcDbEntity
  8
0
 62
7
420
16777215
370
-1
 48
1.0
  6
Continuous
100
AcDbLine
 10
168.0398380647264958
 20
109.7229921020231131
 30
0.0
 11
168.0398380647264958
 21
227.8494921020231061
 31
0.0
  0
LINE
  5
6E
100
AcDbEntity
  8
0
 62
7
420
16777215
370
-1
 48
1.0
  6
Continuous
100
AcDbLine
 10
168.0398380647264958
 20
227.8494921020231061
 30
0.0
 11
177.5640980647268066
 21
227.8494921020231061
 31
0.0
  0
LINE
  5
6F
100
AcDbEntity
  8
0
 62
7
420
16777215
370
-1
 48
1.0
  6
Continuous
100
AcDbLine
 10
177.5640980647266929
 20
246.3984921020231127
 30
0.0
 11
177.5640980647268066
 21
227.8494921020231061
 31
0.0
  0
LINE
  5
70
100
AcDbEntity
  8
0
 62
7
420
16777215
370
-1
 48
1.0
  6
Continuous
100
AcDbLine
 10
193.2100026049083112
 20
336.6749921020231113
 30
0.0
 11
371.749800215755954
 21
336.6749921020231113
 31
0.0
  0
LINE
  5
71
100
AcDbEntity
  8
0
 62
7
420
16777215
370
-1
 48
1.0
  6
Continuous
100
AcDbLine
 10
188.4450526049089092
 20
109.7229921020229853
 30
0.0
 11
371.7498002157561245
 21
109.7229921020229853
 31
0.0
  0
LINE
  5
72
100
AcDbEntity
  8
0
 62
7
420
16777215
370
-1
 48
1.0
  6
Continuous
100
AcDbLine
 10
378.4850002157560311
 20
329.939792102023091
 30
0.0
 11
378.4850002157560311
 21
116.4581921020230482
 31
0.0
  0
CIRCLE
  5
73
100
AcDbEntity
  8
0
 62
7
420
16777215
370
-1
 48
1.0
  6
Continuous
100
AcDbCircle
 10
49.5809722905407924
 20
316.9323595157849809
 30
0.0
 40
2.0
  0
CIRCLE
  5
74
100
AcDbEntity
  8
0
 62
7
420
16777215
370
-1
 48
1.0
  6
Continuous
100
AcDbCircle
 10
150.9626397499920074
 20
316.9323595157849809
 30
0.0
 40
2.0
  0
CIRCLE
  5
75
100
AcDbEntity
  8
0
 62
7
420
16777215
370
-1
 48
1.0
  6
Continuous
100
AcDbCircle
 10
215.1266026049086122
 20
316.932359515784924
 30
0.0
 40
2.0
  0
CIRCLE
  5
76
100
AcDbEntity
  8
0
 62
7
420
16777215
370
-1
 48
1.0
  6
Continuous
100
AcDbCircle
 10
354.5320002157561134
 20
316.932359515784924
 30
0.0
 40
2.0
  0
LWPOLYLINE
  5
77
100
AcDbEntity
  8
0
 62
7
420
16777215
370
-1
 48
1.0
  6
Continuous
100
AcDbPolyline
 90
6
 70
1
 10
33.0739305831833121
 20
325.0621383020230724
 10
35.7153080647258321
 20
323.5371383020230951
 10
38.356685546268352
 20
325.0621383020230724
 10
38.356685546268352
 20
328.1121383020230837
 10
35.7153080647258321
 20
329.6371383020231178
 10
33.0739305831833121
 20
328.1121383020230837
  0
LWPOLYLINE
  5
78
100
AcDbEntity
  8
0
 62
7
420
16777215
370
-1
 48
1.0
  6
Continuous
100
AcDbPolyline
 90
6
 70
1
 10
119.9988961959731029
 20
329.2285157835656264
 10
118.4738961959730972
 20
326.5871383020231065
 10
119.9988961959731029
 20
323.9457608204805865
 10
123.0488961959731995
 20
323.9457608204805865
 10
124.5738961959732052
 20
326.5871383020231065
 10
123.0488961959731995
 20
329.2285157835656264
  0
LWPOLYLINE
  5
79
100
AcDbEntity
  8
0
 62
7
420
16777215
370
-1
 48
1.0
  6
Continuous
100
AcDbPolyline
 90
6
 70
1
 10
163.3167880647256993
 20
329.2285157835656264
 10
161.7917880647256936
 20
326.5871383020231065
 10
163.3167880647256993
 20
323.9457608204805865
 10
166.3667880647257959
 20
323.9457608204805865
 10
167.8917880647256879
 20
326.5871383020231065
 10
166.3667880647257959
 20
329.2285157835656264
  0
LWPOLYLINE
  5
7A
100
AcDbEntity
  8
0
 62
7
420
16777215
370
-1
 48
1.0
  6
Continuous
100
AcDbPolyline
 90
6
 70
1
 10
38.356685546268352
 20
267.2236992020232265
 10
35.7153080647258321
 20
268.7486992020232037
 10
33.0739305831833121
 20
267.2236992020232265
 10
33.0739305831833121
 20
264.1736992020231014
 10
35.7153080647258321
 20
262.6486992020231241
 10
38.356685546268352
 20
264.1736992020231014
  0
LWPOLYLINE
  5
7B
100
AcDbEntity
  8
0
 62
7
420
16777215
370
-1
 48
1.0
  6
Continuous
100
AcDbPolyline
 90
6
 70
1
 10
33.0739305831833121
 20
203.2852933020230068
 10
35.7153080647257823
 20
201.7602933020230012
 10
38.356685546268352
 20
203.2852933020230068
 10
38.356685546268352
 20
206.3352933020231035
 10
35.7153080647257823
 20
207.8602933020231092
 10
33.0739305831833121
 20
206.3352933020231035
  0
LWPOLYLINE
  5
7C
100
AcDbEntity
  8
0
 62
7
420
16777215
370
-1
 48
1.0
  6
Continuous
100
AcDbPolyline
 90
6
 70
1
 10
33.0739225184574792
 20
118.1852999999999412
 10
35.7152999999999494
 20
116.6602999999999355
 10
38.3566774815425191
 20
118.1852999999999412
 10
38.3566774815425191
 20
121.2353000000000378
 10
35.7152999999999494
 20
122.7603000000000435
 10
33.0739225184574792
 20
121.2353000000000378
  0
LWPOLYLINE
  5
7D
100
AcDbEntity
  8
0
 62
7
420
16777215
370
-1
 48
1.0
  6
Continuous
100
AcDbPolyline
 90
6
 70
1
 10
102.1043303647257972
 20
207.4516707835655893
 10
100.5793303647259052
 20
204.8102933020230978
 10
102.1043303647257972
 20
202.1689158204804926
 10
105.1543303647258938
 20
202.1689158204804926
 10
106.6793303647258995
 20
204.8102933020230978
 10
105.1543303647258938
 20
207.4516707835655893
  0
LWPOLYLINE
  5
7E
100
AcDbEntity
  8
0
 62
7
420
16777215
370
-1
 48
1.0
  6
Continuous
100
AcDbPolyline
 90
6
 70
1
 10
102.1042999999998955
 20
122.3516774815425521
 10
100.5793000000000035
 20
119.7103000000000605
 10
102.1042999999998955
 20
117.0689225184574553
 10
105.1542999999999921
 20
117.0689225184574553
 10
106.6792999999999978
 20
119.7103000000000605
 10
105.1542999999999921
 20
122.3516774815425521
  0
LWPOLYLINE
  5
7F
100
AcDbEntity
  8
0
 62
7
420
16777215
370
-1
 48
1.0
  6
Continuous
100
AcDbPolyline
 90
6
 70
1
 10
102.1042999999998955
 20
122.3516774815425521
 10
100.5793000000000035
 20
119.7103000000000605
 10
102.1042999999998955
 20
117.0689225184574553
 10
105.1542999999999921
 20
117.0689225184574553
 10
106.6792999999999978
 20
119.7103000000000605
 10
105.1542999999999921
 20
122.3516774815425521
  0
LWPOLYLINE
  5
80
100
AcDbEntity
  8
0
 62
7
420
16777215
370
-1
 48
1.0
  6
Continuous
100
AcDbPolyline
 90
6
 70
1
 10
162.0209999999999013
 20
122.3516774815425521
 10
160.4959999999999809
 20
119.7103000000000605
 10
162.0209999999999013
 20
117.0689225184574553
 10
165.0709999999999695
 20
117.0689225184574553
 10
166.5960000000000036
 20
119.7103000000000605
 10
165.0709999999999695
 20
122.3516774815425521
  0
LWPOLYLINE
  5
81
100
AcDbEntity
  8
0
 62
7
420
16777215
370
-1
 48
1.0
  6
Continuous
100
AcDbPolyline
 90
6
 70
1
 10
279.9096999999999298
 20
122.3516774815425521
 10
278.3847000000000094
 20
119.7103000000000605
 10
279.9096999999999298
 20
117.0689225184574553
 10
282.959699999999998
 20
117.0689225184574553
 10
284.4847000000000321
 20
119.7103000000000605
 10
282.959699999999998
 20
122.3516774815425521
  0
LWPOLYLINE
  5
82
100
AcDbEntity
  8
0
 62
7
420
16777215
370
-1
 48
1.0
  6
Continuous
100
AcDbPolyline
 90
6
 70
1
 10
366.8724999999998886
 20
122.3516774815425521
 10
365.3474999999999682
 20
119.7103000000000605
 10
366.8724999999998886
 20
117.0689225184574553
 10
369.9224999999999568
 20
117.0689225184574553
 10
371.4474999999999909
 20
119.7103000000000605
 10
369.9224999999999568
 20
122.3516774815425521
  0
LWPOLYLINE
  5
83
100
AcDbEntity
  8
0
 62
7
420
16777215
370
-1
 48
1.0
  6
Continuous
100
AcDbPolyline
 90
6
 70
1
 10
166.5960480754665127
 20
204.8102933020230978
 10
165.0710480754665923
 20
207.451670783565703
 10
162.0210480754666946
 20
207.451670783565703
 10
160.49604807546649
 20
204.8102933020232115
 10
162.0210480754664104
 20
202.1689158204806915
 10
165.071048075466507
 20
202.1689158204804926
  0
CIRCLE
  5
84
100
AcDbEntity
  8
0
 62
7
420
16777215
370
-1
 48
1.0
  6
Continuous
100
AcDbCircle
 10
150.9626397499920074
 20
214.8005673365921098
 30
0.0
 40
2.0
  0
CIRCLE
  5
85
100
AcDbEntity
  8
0
 62
7
420
16777215
370
-1
 48
1.0
  6
Continuous
100
AcDbCircle
 10
150.9626397499920074
 20
129.4655673365921302
 30
0.0
 40
2.0
  0
CIRCLE
  5
86
100
AcDbEntity
  8
0
 62
7
420
16777215
370
-1
 48
1.0
  6
Continuous
100
AcDbCircle
 10
49.5809397499920124
 20
214.8005673365921098
 30
0.0
 40
2.0
  0
CIRCLE
  5
87
100
AcDbEntity
  8
0
 62
7
420
16777215
370
-1
 48
1.0
  6
Continuous
100
AcDbCircle
 10
49.5809397499920124
 20
129.4655673365921302
 30
0.0
 40
2.0
  0
CIRCLE
  5
88
100
AcDbEntity
  8
0
 62
7
420
16777215
370
-1
 48
1.0
  6
Continuous
100
AcDbCircle
 10
215.1266026049086122
 20
214.8005673365919961
 30
0.0
 40
2.0
  0
CIRCLE
  5
89
100
AcDbEntity
  8
0
 62
7
420
16777215
370
-1
 48
1.0
  6
Continuous
100
AcDbCircle
 10
354.5320026049085982
 20
214.8005673365919961
 30
0.0
 40
2.0
  0
CIRCLE
  5
8A
100
AcDbEntity
  8
0
 62
7
420
16777215
370
-1
 48
1.0
  6
Continuous
100
AcDbCircle
 10
215.1266026049086122
 20
129.4655673365920165
 30
0.0
 40
2.0
  0
CIRCLE
  5
8B
100
AcDbEntity
  8
0
 62
7
420
16777215
370
-1
 48
1.0
  6
Continuous
100
AcDbCircle
 10
354.5320026049085982
 20
129.4655673365920165
 30
0.0
 40
2.0
  0
LWPOLYLINE
  5
8C
100
AcDbEntity
  8
0
 62
7
420
16777215
370
-1
 48
1.0
  6
Continuous
100
AcDbPolyline
 90
6
 70
1
 10
282.9597113171133742
 20
207.4516707835655041
 10
279.909711317113306
 20
207.4516707835655041
 10
278.3847113171134993
 20
204.8102933020230978
 10
279.9097113171134765
 20
202.1689158204804073
 10
282.9597113171133174
 20
202.1689158204802936
 10
284.4847113171132946
 20
204.8102933020228136
  0
LWPOLYLINE
  5
8D
100
AcDbEntity
  8
0
 62
7
420
16777215
370
-1
 48
1.0
  6
Continuous
100
AcDbPolyline
 90
6
 70
1
 10
369.9225002157567133
 20
207.4516707835655041
 10
366.8725002157565882
 20
207.4516707835655893
 10
365.3475002157567246
 20
204.8102933020230978
 10
366.8725002157567019
 20
202.1689158204804926
 10
369.9225002157564859
 20
202.1689158204804073
 10
371.4475002157565768
 20
204.8102933020228988
  0
LWPOLYLINE
  5
8E
100
AcDbEntity
  8
0
 62
7
420
16777215
370
-1
 48
1.0
  6
Continuous
100
AcDbPolyline
 90
6
 70
1
 10
371.0388776972989717
 20
267.2236992020229991
 10
368.3975002157565086
 20
268.7486992020229764
 10
365.7561227342141024
 20
267.2236992020229991
 10
365.7561227342141024
 20
264.173699202022874
 10
368.3975002157565086
 20
262.6486992020228968
 10
371.0388776972989717
 20
264.173699202022874
  0
LWPOLYLINE
  5
8F
100
AcDbEntity
  8
0
 62
7
420
16777215
370
-1
 48
1.0
  6
Continuous
100
AcDbPolyline
 90
6
 70
1
 10
371.0388776972989717
 20
328.1121383020230269
 10
368.3975002157565086
 20
329.6371383020230041
 10
365.7561227342141024
 20
328.1121383020230269
 10
365.7561227342141024
 20
325.0621383020229018
 10
368.3975002157565086
 20
323.5371383020229814
 10
371.0388776972989717
 20
325.0621383020229018
  0
LWPOLYLINE
  5
90
100
AcDbEntity
  8
0
 62
7
420
16777215
370
-1
 48
1.0
  6
Continuous
100
AcDbPolyline
 90
6
 70
1
 10
282.9597113171133742
 20
329.2285157835655127
 10
279.909711317113306
 20
329.2285157835656264
 10
278.3847113171134993
 20
326.5871383020232201
 10
279.9097113171134765
 20
323.9457608204805865
 10
282.9597113171133174
 20
323.9457608204804728
 10
284.4847113171134083
 20
326.5871383020228791
  0
LWPOLYLINE
  5
91
100
AcDbEntity
  8
0
 62
7
420
16777215
370
-1
 48
1.0
  6
Continuous
100
AcDbPolyline
 90
6
 70
1
 10
202.6980002157565082
 20
329.2285157835656264
 10
199.6480002157564968
 20
329.2285157835656264
 10
198.1230002157564059
 20
326.5871383020232201
 10
199.6480002157564968
 20
323.9457608204804728
 10
202.6980002157563945
 20
323.945760820480416
 10
204.2230002157565991
 20
326.5871383020228791
  0
LWPOLYLINE
  5
92
100
AcDbEntity
  8
0
 62
7
420
16777215
370
-1
 48
1.0
  6
Continuous
100
AcDbPolyline
 90
6
 70
1
 10
198.531622734213812
 20
203.2852933020230068
 10
201.1730002157563035
 20
201.7602933020230012
 10
203.8143776972989087
 20
203.2852933020230068
 10
203.8143776972989087
 20
206.3352933020229898
 10
201.1730002157563035
 20
207.8602933020229955
 10
198.531622734213812
 20
206.3352933020229898
  0
LWPOLYLINE
  5
93
100
AcDbEntity
  8
0
 62
7
420
16777215
370
-1
 48
1.0
  6
Continuous
100
AcDbPolyline
 90
6
 70
1
 10
198.5316225184574535
 20
118.185299999999998
 10
201.172999999999945
 20
116.6602999999999923
 10
203.8143774815425502
 20
118.185299999999998
 10
203.8143774815425502
 20
121.235299999999981
 10
201.172999999999945
 20
122.7602999999999867
 10
198.5316225184574535
 20
121.235299999999981
  0
LWPOLYLINE
  5
94
100
AcDbEntity
  8
0
 62
7
420
16777215
370
-1
 48
1.0
  6
Continuous
100
AcDbPolyline
 90
6
 70
1
 10
198.5316225184574535
 20
118.185299999999998
 10
201.172999999999945
 20
116.6602999999999923
 10
203.8143774815425502
 20
118.185299999999998
 10
203.8143774815425502
 20
121.235299999999981
 10
201.172999999999945
 20
122.7602999999999867
 10
198.5316225184574535
 20
121.235299999999981
  0
LWPOLYLINE
  5
95
100
AcDbEntity
  8
0
 62
7
420
16777215
370
-1
 48
1.0
  6
Continuous
100
AcDbPolyline
 90
6
 70
1
 10
82.0548475120966145
 20
329.2285157835656264
 10
80.5298475120966231
 20
326.5871383020231065
 10
82.0548475120966145
 20
323.9457608204805865
 10
85.1048475120966827
 20
323.9457608204805865
 10
86.62984751209666
 20
326.5871383020231065
 10
85.1048475120966827
 20
329.2285157835656264
  0
LWPOLYLINE
  5
96
100
AcDbEntity
  8
0
 62
7
420
16777215
370
-1
 48
1.0
  6
Continuous
100
AcDbPolyline
 90
6
 70
1
 10
243.9875002157556878
 20
329.2285157835657969
 10
242.4625002157557958
 20
326.587138302023277
 10
243.9875002157556878
 20
323.9457608204808139
 10
247.0375002157558129
 20
323.9457608204808139
 10
248.5625002157557901
 20
326.587138302023277
 10
247.0375002157558129
 20
329.2285157835657969
  0
LINE
  5
97
100
AcDbEntity
  8
0
 62
7
420
16777215
370
-1
 48
1.0
  6
ByLayer
100
AcDbLine
 10
32.3631780647259006
 20
336.6749921020231682
 30
0.0
 11
25.6279780647259017
 21
329.939792102023091
 31
0.0
  0
LINE
  5
98
100
AcDbEntity
  8
0
 62
7
420
16777215
370
-1
 48
1.0
  6
ByLayer
100
AcDbLine
 10
25.6279780647259017
 20
116.4581921020231476
 30
0.0
 11
32.3631780647259077
 21
109.7229921020231416
 31
0.0
  0
LINE
  5
99
100
AcDbEntity
  8
0
 62
7
420
16777215
370
-1
 48
1.0
  6
ByLayer
100
AcDbLine
 10
371.7498002157561245
 20
109.7229921020229853
 30
0.0
 11
378.4850002157560311
 21
116.4581921020230055
 31
0.0
  0
LINE
  5
9A
100
AcDbEntity
  8
0
 62
7
420
16777215
370
-1
 48
1.0
  6
ByLayer
100
AcDbLine
 10
371.7498002157560109
 20
336.6749921020231113
 30
0.0
 11
378.4850002157560311
 21
329.939792102023091
 31
0.0
  0
ENDSEC
  0
SECTION
  2
OBJECTS
  0
DICTIONARY
  5
C
100
AcDbDictionary
280
0
281
1
  3
ACAD_GROUP
350
D
  3
ACAD_LAYOUT
350
1A
  3
ACAD_MLINESTYLE
350
17
  3
ACAD_PLOTSETTINGS
350
19
  3
ACAD_PLOTSTYLENAME
350
E
  3
AcDbVariableDictionary
350
9B
  3
QCAD_OBJECTS
350
9C
  0
DICTIONARY
  5
D
100
AcDbDictionary
280
0
281
1
  0
ACDBDICTIONARYWDFLT
  5
E
100
AcDbDictionary
281
1
  3
Normal
350
F
100
AcDbDictionaryWithDefault
340
F
  0
ACDBPLACEHOLDER
  5
F
  0
DICTIONARY
  5
17
100
AcDbDictionary
280
0
281
1
  3
Standard
350
18
  0
MLINESTYLE
  5
18
100
AcDbMlineStyle
  2
STANDARD
 70
0
  3

 62
256
 51
90.0
 52
90.0
 71
2
 49
0.5
 62
256
  6
BYLAYER
 49
-0.5
 62
256
  6
BYLAYER
  0
DICTIONARY
  5
19
100
AcDbDictionary
280
0
281
1
  0
DICTIONARY
  5
1A
100
AcDbDictionary
281
1
  3
Layout1
350
1E
  3
Layout2
350
26
  3
Model
350
22
  0
LAYOUT
  5
1E
100
AcDbPlotSettings
  1

  2
none_device
  4

  6

 40
0.0
 41
0.0
 42
0.0
 43
0.0
 44
0.0
 45
0.0
 46
0.0
 47
0.0
 48
0.0
 49
0.0
140
0.0
141
0.0
142
1.0
143
1.0
 70
688
 72
0
 73
0
 74
5
  7

 75
16
147
1.0
148
0.0
149
0.0
100
AcDbLayout
  1
Layout1
 70
1
 71
1
 10
0.0
 20
0.0
 11
420.0
 21
297.0
 12
0.0
 22
0.0
 32
0.0
 14
100000000000000000000.0
 24
100000000000000000000.0
 34
100000000000000000000.0
 15
-100000000000000000000.0
 25
-100000000000000000000.0
 35
-100000000000000000000.0
146
0.0
 13
0.0
 23
0.0
 33
0.0
 16
1.0
 26
0.0
 36
0.0
 17
0.0
 27
1.0
 37
0.0
 76
0
330
1B
  0
LAYOUT
  5
22
100
AcDbPlotSettings
  1

  2
none_device
  4

  6

 40
0.0
 41
0.0
 42
0.0
 43
0.0
 44
0.0
 45
0.0
 46
0.0
 47
0.0
 48
0.0
 49
0.0
140
0.0
141
0.0
142
1.0
143
1.0
 70
1712
 72
0
 73
0
 74
0
  7

 75
0
147
1.0
148
0.0
149
0.0
100
AcDbLayout
  1
Model
 70
1
 71
0
 10
0.0
 20
0.0
 11
12.0
 21
9.0
 12
0.0
 22
0.0
 32
0.0
 14
0.0
 24
0.0
 34
0.0
 15
0.0
 25
0.0
 35
0.0
146
0.0
 13
0.0
 23
0.0
 33
0.0
 16
1.0
 26
0.0
 36
0.0
 17
0.0
 27
1.0
 37
0.0
 76
0
330
1F
  0
LAYOUT
  5
26
100
AcDbPlotSettings
  1

  2
none_device
  4

  6

 40
0.0
 41
0.0
 42
0.0
 43
0.0
 44
0.0
 45
0.0
 46
0.0
 47
0.0
 48
0.0
 49
0.0
140
0.0
141
0.0
142
1.0
143
1.0
 70
688
 72
0
 73
0
 74
5
  7

 75
16
147
1.0
148
0.0
149
0.0
100
AcDbLayout
  1
Layout2
 70
1
 71
2
 10
0.0
 20
0.0
 11
12.0
 21
9.0
 12
0.0
 22
0.0
 32
0.0
 14
0.0
 24
0.0
 34
0.0
 15
0.0
 25
0.0
 35
0.0
146
0.0
 13
0.0
 23
0.0
 33
0.0
 16
1.0
 26
0.0
 36
0.0
 17
0.0
 27
1.0
 37
0.0
 76
0
330
23
  0
DICTIONARY
  5
9B
100
AcDbDictionary
281
1
  3
DIMASSOC
350
9E
  3
HIDETEXT
350
9D
  0
DICTIONARYVAR
  5
9D
100
DictionaryVariables
280
0
  1
2
  0
DICTIONARYVAR
  5
9E
100
DictionaryVariables
280
0
  1
1
  0
DICTIONARY
  5
9C
100
AcDbDictionary
281
1
  3
ColorSettings/BackgroundColor
350
9F
  3
ColorSettings/ColorMode
350
A0
  3
Grid/DisplayGrid00
350
A1
  3
Grid/DisplayGrid01
350
A2
  3
Grid/DisplayGrid02
350
A3
  3
Grid/DisplayGrid03
350
A4
  3
Grid/GridSpacingX00
350
A5
  3
Grid/GridSpacingX01
350
A6
  3
Grid/GridSpacingX02
350
A7
  3
Grid/GridSpacingX03
350
A8
  3
Grid/GridSpacingY00
350
A9
  3
Grid/GridSpacingY01
350
AA
  3
Grid/GridSpacingY02
350
AB
  3
Grid/GridSpacingY03
350
AC
  3
Grid/IsometricGrid00
350
AD
  3
Grid/IsometricGrid01
350
AE
  3
Grid/IsometricGrid02
350
AF
  3
Grid/IsometricGrid03
350
B0
  3
Grid/IsometricProjection00
350
B1
  3
Grid/IsometricProjection01
350
B2
  3
Grid/IsometricProjection02
350
B3
  3
Grid/IsometricProjection03
350
B4
  3
Grid/MetaGridSpacingX00
350
B5
  3
Grid/MetaGridSpacingX01
350
B6
  3
Grid/MetaGridSpacingX02
350
B7
  3
Grid/MetaGridSpacingX03
350
B8
  3
Grid/MetaGridSpacingY00
350
B9
  3
Grid/MetaGridSpacingY01
350
BA
  3
Grid/MetaGridSpacingY02
350
BB
  3
Grid/MetaGridSpacingY03
350
BC
  3
MultiPageSettings/Columns
350
BD
  3
MultiPageSettings/GlueMarginsBottom
350
BE
  3
MultiPageSettings/GlueMarginsLeft
350
BF
  3
MultiPageSettings/GlueMarginsRight
350
C0
  3
MultiPageSettings/GlueMarginsTop
350
C1
  3
MultiPageSettings/PrintCropMarks
350
C2
  3
MultiPageSettings/Rows
350
C3
  3
PageSettings/OffsetX
350
C4
  3
PageSettings/OffsetY
350
C5
  3
PageSettings/PageOrientation
350
C6
  3
PageSettings/PaperHeight
350
C7
  3
PageSettings/PaperWidth
350
C8
  3
PageSettings/Scale
350
C9
  3
PageSettings/ShowPaperBorders
350
CA
  3
PageTagSettings/EnablePageTags
350
CB
  3
PageTagSettings/TagAlignment
350
CC
  3
PageTagSettings/TagFont
350
CD
  3
PageTagSettings/TagPosition
350
CE
  3
QCADVersion
350
CF
  3
UnitSettings/PaperUnit
350
D0
  3
ViewportCenter
350
D1
  3
ViewportHeight
350
D2
  3
ViewportWidth
350
D3
  0
XRECORD
  5
9F
330
9C
100
AcDbXrecord
280
1
1000
White
  0
XRECORD
  5
A0
330
9C
100
AcDbXrecord
280
1
1000
FullColor
  0
XRECORD
  5
A1
330
9C
100
AcDbXrecord
280
1
290
1
  0
XRECORD
  5
A2
330
9C
100
AcDbXrecord
280
1
290
1
  0
XRECORD
  5
A3
330
9C
100
AcDbXrecord
280
1
290
1
  0
XRECORD
  5
A4
330
9C
100
AcDbXrecord
280
1
290
1
  0
XRECORD
  5
A5
330
9C
100
AcDbXrecord
280
1
1000
auto
  0
XRECORD
  5
A6
330
9C
100
AcDbXrecord
280
1
1000
auto
  0
XRECORD
  5
A7
330
9C
100
AcDbXrecord
280
1
1000
auto
  0
XRECORD
  5
A8
330
9C
100
AcDbXrecord
280
1
1000
auto
  0
XRECORD
  5
A9
330
9C
100
AcDbXrecord
280
1
1000
auto
  0
XRECORD
  5
AA
330
9C
100
AcDbXrecord
280
1
1000
auto
  0
XRECORD
  5
AB
330
9C
100
AcDbXrecord
280
1
1000
auto
  0
XRECORD
  5
AC
330
9C
100
AcDbXrecord
280
1
1000
auto
  0
XRECORD
  5
AD
330
9C
100
AcDbXrecord
280
1
290
0
  0
XRECORD
  5
AE
330
9C
100
AcDbXrecord
280
1
290
0
  0
XRECORD
  5
AF
330
9C
100
AcDbXrecord
280
1
290
0
  0
XRECORD
  5
B0
330
9C
100
AcDbXrecord
280
1
290
0
  0
XRECORD
  5
B1
330
9C
100
AcDbXrecord
280
1
 90
65537
  0
XRECORD
  5
B2
330
9C
100
AcDbXrecord
280
1
 90
65537
  0
XRECORD
  5
B3
330
9C
100
AcDbXrecord
280
1
 90
65537
  0
XRECORD
  5
B4
330
9C
100
AcDbXrecord
280
1
 90
65537
  0
XRECORD
  5
B5
330
9C
100
AcDbXrecord
280
1
1000
auto
  0
XRECORD
  5
B6
330
9C
100
AcDbXrecord
280
1
1000
auto
  0
XRECORD
  5
B7
330
9C
100
AcDbXrecord
280
1
1000
auto
  0
XRECORD
  5
B8
330
9C
100
AcDbXrecord
280
1
1000
auto
  0
XRECORD
  5
B9
330
9C
100
AcDbXrecord
280
1
1000
auto
  0
XRECORD
  5
BA
330
9C
100
AcDbXrecord
280
1
1000
auto
  0
XRECORD
  5
BB
330
9C
100
AcDbXrecord
280
1
1000
auto
  0
XRECORD
  5
BC
330
9C
100
AcDbXrecord
280
1
1000
auto
  0
XRECORD
  5
BD
330
9C
100
AcDbXrecord
280
1
 90
1
  0
XRECORD
  5
BE
330
9C
100
AcDbXrecord
280
1
 40
0.0
  0
XRECORD
  5
BF
330
9C
100
AcDbXrecord
280
1
 40
0.0
  0
XRECORD
  5
C0
330
9C
100
AcDbXrecord
280
1
 40
0.0
  0
XRECORD
  5
C1
330
9C
100
AcDbXrecord
280
1
 40
0.0
  0
XRECORD
  5
C2
330
9C
100
AcDbXrecord
280
1
290
0
  0
XRECORD
  5
C3
330
9C
100
AcDbXrecord
280
1
 90
1
  0
XRECORD
  5
C4
330
9C
100
AcDbXrecord
280
1
 40
0.0
  0
XRECORD
  5
C5
330
9C
100
AcDbXrecord
280
1
 40
0.0
  0
XRECORD
  5
C6
330
9C
100
AcDbXrecord
280
1
1000
Portrait
  0
XRECORD
  5
C7
330
9C
100
AcDbXrecord
280
1
 40
297.0
  0
XRECORD
  5
C8
330
9C
100
AcDbXrecord
280
1
 40
210.0
  0
XRECORD
  5
C9
330
9C
100
AcDbXrecord
280
1
1000
1:1
  0
XRECORD
  5
CA
330
9C
100
AcDbXrecord
280
1
290
1
  0
XRECORD
  5
CB
330
9C
100
AcDbXrecord
280
1
290
0
  0
XRECORD
  5
CC
330
9C
100
AcDbXrecord
280
1
1000
Inside
  0
XRECORD
  5
CD
330
9C
100
AcDbXrecord
280
1
1000
Arial,10,-1,5,50,0,0,0,0,0
  0
XRECORD
  5
CE
330
9C
100
AcDbXrecord
280
1
1000
TopLeft
  0
XRECORD
  5
CF
330
9C
100
AcDbXrecord
280
1
1000
3.24.3.3
  0
XRECORD
  5
D0
330
9C
100
AcDbXrecord
280
1
 90
4
  0
XRECORD
  5
D2
330
9C
100
AcDbXrecord
280
1
 40
558.4079761564141791
  0
XRECORD
  5
D3
330
9C
100
AcDbXrecord
280
1
 40
1147.3717923213871472
  0
ENDSEC
  0
EOF
