999
dxflib 3.17.0.0
  0
SECTION
  2
HEADER
  9
$ACADVER
  1
AC1015
  9
$HANDSEED
  5
FFFF
  9
$DIMADEC
 70
0
  9
$DIMASZ
 40
2.5
  9
$DIMAUNIT
 70
0
  9
$DIMAZIN
 70
2
  9
$DIMDEC
 70
4
  9
$DIMDLI
 40
5.0
  9
$DIMDSEP
 70
46
  9
$DIMEXE
 40
1.25
  9
$DIMEXO
 40
0.625
  9
$DIMGAP
 40
0.625
  9
$DIMLUNIT
 70
2
  9
$DIMSCALE
 40
1.0
  9
$DIMTSZ
 40
0.0
  9
$DIMTXT
 40
2.5
  9
$DIMZIN
 70
8
  9
$DWGCODEPAGE
  3
ANSI_1252
  9
$INSUNITS
 70
0
  9
$LTSCALE
 40
1.0
  9
$MAXACTVP
 70
64
  9
$MEASUREMENT
 70
1
  9
$PDMODE
 70
0
  9
$PDSIZE
 40
0.0
  0
ENDSEC
  0
SECTION
  2
TABLES
  0
TABLE
  2
VPORT
  5
8
100
AcDbSymbolTable
 70
1
  0
VPORT
  5
30
100
AcDbSymbolTableRecord
100
AcDbViewportTableRecord
  2
*Active
 70
0
 10
0.0
 20
0.0
 11
1.0
 21
1.0
 12
286.3055555555554861
 22
148.5
 13
0.0
 23
0.0
 14
10.0
 24
10.0
 15
10.0
 25
10.0
 16
0.0
 26
0.0
 36
1.0
 17
0.0
 27
0.0
 37
0.0
 40
297.0
 41
1.92798353909465
 42
50.0
 43
0.0
 44
0.0
 50
0.0
 51
0.0
 71
0
 72
100
 73
1
 74
3
 75
1
 76
1
 77
0
 78
0
281
0
 65
1
110
0.0
120
0.0
130
0.0
111
1.0
121
0.0
131
0.0
112
0.0
122
1.0
132
0.0
 79
0
146
0.0
  0
ENDTAB
  0
TABLE
  2
LTYPE
  5
5
100
AcDbSymbolTable
 70
41
  0
LTYPE
  5
16
100
AcDbSymbolTableRecord
100
AcDbLinetypeTableRecord
  2
Continuous
 70
0
  3
Solid line
 72
65
 73
0
 40
0.0
  0
LTYPE
  5
15
100
AcDbSymbolTableRecord
100
AcDbLinetypeTableRecord
  2
BYLAYER
 70
0
  3

 72
65
 73
0
 40
0.0
  0
LTYPE
  5
31
100
AcDbSymbolTableRecord
100
AcDbLinetypeTableRecord
  2
CENTER2
 70
0
  3
Center (.5x) ___ _ ___ _ ___ _ ___ _ ___ _ ___
 72
65
 73
4
 40
28.5750000000000028
 49
19.0500000000000007
 74
0
 49
-3.1749999999999998
 74
0
 49
3.1749999999999998
 74
0
 49
-3.1749999999999998
 74
0
  0
LTYPE
  5
32
100
AcDbSymbolTableRecord
100
AcDbLinetypeTableRecord
  2
ACAD_ISO08W100
 70
0
  3
ISO long-dash short-dash ____ __ ____ __ ____ _
 72
65
 73
4
 40
36.0
 49
24.0
 74
0
 49
-3.0
 74
0
 49
6.0
 74
0
 49
-3.0
 74
0
  0
LTYPE
  5
33
100
AcDbSymbolTableRecord
100
AcDbLinetypeTableRecord
  2
DASHEDX2
 70
0
  3
Dashed (2x) ____  ____  ____  ____  ____  ___
 72
65
 73
2
 40
38.0999999999999943
 49
25.3999999999999986
 74
0
 49
-12.6999999999999993
 74
0
  0
LTYPE
  5
34
100
AcDbSymbolTableRecord
100
AcDbLinetypeTableRecord
  2
DASHED
 70
0
  3
Dashed __ __ __ __ __ __ __ __ __ __ __ __ __ _
 72
65
 73
2
 40
19.0499999999999972
 49
12.6999999999999993
 74
0
 49
-6.3499999999999996
 74
0
  0
LTYPE
  5
35
100
AcDbSymbolTableRecord
100
AcDbLinetypeTableRecord
  2
ACAD_ISO11W100
 70
0
  3
ISO double-dash dot __ __ . __ __ . __ __ . __ _
 72
65
 73
6
 40
33.0
 49
12.0
 74
0
 49
-3.0
 74
0
 49
12.0
 74
0
 49
-2.9500000000000002
 74
0
 49
0.1
 74
0
 49
-2.9500000000000002
 74
0
  0
LTYPE
  5
36
100
AcDbSymbolTableRecord
100
AcDbLinetypeTableRecord
  2
DASHDOT
 70
0
  3
Dash dot __ . __ . __ . __ . __ . __ . __ . __
 72
65
 73
4
 40
25.4000000000000021
 49
12.6999999999999993
 74
0
 49
-6.2999999999999998
 74
0
 49
0.1
 74
0
 49
-6.2999999999999998
 74
0
  0
LTYPE
  5
37
100
AcDbSymbolTableRecord
100
AcDbLinetypeTableRecord
  2
ACAD_ISO06W100
 70
0
  3
ISO long-dash triple-dot ____ ... ____ ... ____
 72
65
 73
8
 40
36.0000000000000071
 49
24.0
 74
0
 49
-2.9500000000000002
 74
0
 49
0.1
 74
0
 49
-2.9000000000000004
 74
0
 49
0.1
 74
0
 49
-2.9000000000000004
 74
0
 49
0.1
 74
0
 49
-2.9500000000000002
 74
0
  0
LTYPE
  5
38
100
AcDbSymbolTableRecord
100
AcDbLinetypeTableRecord
  2
ACAD_ISO05W100
 70
0
  3
ISO long-dash double-dot ____ .. ____ .. ____ . 
 72
65
 73
6
 40
33.0000000000000071
 49
24.0
 74
0
 49
-2.9500000000000002
 74
0
 49
0.1
 74
0
 49
-2.9000000000000004
 74
0
 49
0.1
 74
0
 49
-2.9500000000000002
 74
0
  0
LTYPE
  5
39
100
AcDbSymbolTableRecord
100
AcDbLinetypeTableRecord
  2
DIVIDE
 70
0
  3
Divide ____ . . ____ . . ____ . . ____ . . ____
 72
65
 73
6
 40
31.7500000000000036
 49
12.6999999999999993
 74
0
 49
-6.2999999999999998
 74
0
 49
0.1
 74
0
 49
-6.25
 74
0
 49
0.1
 74
0
 49
-6.2999999999999998
 74
0
  0
LTYPE
  5
3A
100
AcDbSymbolTableRecord
100
AcDbLinetypeTableRecord
  2
ACAD_ISO15W100
 70
0
  3
ISO double-dash triple-dot __ __ . . . __ __ . .
 72
65
 73
10
 40
39.0000000000000071
 49
12.0
 74
0
 49
-3.0
 74
0
 49
12.0
 74
0
 49
-2.9500000000000002
 74
0
 49
0.1
 74
0
 49
-2.9000000000000004
 74
0
 49
0.1
 74
0
 49
-2.9000000000000004
 74
0
 49
0.1
 74
0
 49
-2.9500000000000002
 74
0
  0
LTYPE
  5
3B
100
AcDbSymbolTableRecord
100
AcDbLinetypeTableRecord
  2
DIVIDEX2
 70
0
  3
Divide (2x) ________  .  .  ________  .  .  _
 72
65
 73
6
 40
63.5
 49
25.3999999999999986
 74
0
 49
-12.6499999999999986
 74
0
 49
0.1
 74
0
 49
-12.5999999999999979
 74
0
 49
0.1
 74
0
 49
-12.6499999999999986
 74
0
  0
LTYPE
  5
3C
100
AcDbSymbolTableRecord
100
AcDbLinetypeTableRecord
  2
CENTER
 70
0
  3
Center ____ _ ____ _ ____ _ ____ _ ____ _ ____
 72
65
 73
4
 40
50.8000000000000043
 49
31.75
 74
0
 49
-6.3499999999999996
 74
0
 49
6.3499999999999996
 74
0
 49
-6.3499999999999996
 74
0
  0
LTYPE
  5
3D
100
AcDbSymbolTableRecord
100
AcDbLinetypeTableRecord
  2
ACAD_ISO04W100
 70
0
  3
ISO long-dash dot ____ . ____ . ____ . ____ . _
 72
65
 73
4
 40
30.0
 49
24.0
 74
0
 49
-2.9500000000000002
 74
0
 49
0.1
 74
0
 49
-2.9500000000000002
 74
0
  0
LTYPE
  5
3E
100
AcDbSymbolTableRecord
100
AcDbLinetypeTableRecord
  2
ACAD_ISO10W100
 70
0
  3
ISO dash dot __ . __ . __ . __ . __ . __ . __ . 
 72
65
 73
4
 40
18.0
 49
12.0
 74
0
 49
-2.9500000000000002
 74
0
 49
0.1
 74
0
 49
-2.9500000000000002
 74
0
  0
LTYPE
  5
3F
100
AcDbSymbolTableRecord
100
AcDbLinetypeTableRecord
  2
ACAD_ISO09W100
 70
0
  3
ISO long-dash double-short-dash ____ __ __ ____
 72
65
 73
6
 40
45.0
 49
24.0
 74
0
 49
-3.0
 74
0
 49
6.0
 74
0
 49
-3.0
 74
0
 49
6.0
 74
0
 49
-3.0
 74
0
  0
LTYPE
  5
40
100
AcDbSymbolTableRecord
100
AcDbLinetypeTableRecord
  2
ACAD_ISO07W100
 70
0
  3
ISO dot . . . . . . . . . . . . . . . . . . . . 
 72
65
 73
2
 40
3.0
 49
0.1
 74
0
 49
-2.8999999999999999
 74
0
  0
LTYPE
  5
41
100
AcDbSymbolTableRecord
100
AcDbLinetypeTableRecord
  2
BORDERX2
 70
0
  3
Border (2x) ____  ____  .  ____  ____  .  ___
 72
65
 73
6
 40
88.8999999999999773
 49
25.3999999999999986
 74
0
 49
-12.6999999999999993
 74
0
 49
25.3999999999999986
 74
0
 49
-12.6499999999999986
 74
0
 49
0.1
 74
0
 49
-12.6499999999999986
 74
0
  0
LTYPE
  5
42
100
AcDbSymbolTableRecord
100
AcDbLinetypeTableRecord
  2
ACAD_ISO12W100
 70
0
  3
ISO dash double-dot __ . . __ . . __ . . __ . . 
 72
65
 73
6
 40
21.0
 49
12.0
 74
0
 49
-2.9500000000000002
 74
0
 49
0.1
 74
0
 49
-2.9000000000000004
 74
0
 49
0.1
 74
0
 49
-2.9500000000000002
 74
0
  0
LTYPE
  5
43
100
AcDbSymbolTableRecord
100
AcDbLinetypeTableRecord
  2
ACAD_ISO14W100
 70
0
  3
ISO dash triple-dot __ . . . __ . . . __ . . . _
 72
65
 73
8
 40
24.0000000000000036
 49
12.0
 74
0
 49
-2.9500000000000002
 74
0
 49
0.1
 74
0
 49
-2.9000000000000004
 74
0
 49
0.1
 74
0
 49
-2.9000000000000004
 74
0
 49
0.1
 74
0
 49
-2.9500000000000002
 74
0
  0
LTYPE
  5
44
100
AcDbSymbolTableRecord
100
AcDbLinetypeTableRecord
  2
ACAD_ISO03W100
 70
0
  3
ISO dash space __    __    __    __    __    __
 72
65
 73
2
 40
30.0
 49
12.0
 74
0
 49
-18.0
 74
0
  0
LTYPE
  5
45
100
AcDbSymbolTableRecord
100
AcDbLinetypeTableRecord
  2
DOTX2
 70
0
  3
Dot (2x) .  .  .  .  .  .  .  .  .  .  .  .  .  .
 72
65
 73
2
 40
12.6999999999999993
 49
0.1
 74
0
 49
-12.5999999999999996
 74
0
  0
LTYPE
  5
46
100
AcDbSymbolTableRecord
100
AcDbLinetypeTableRecord
  2
DOT
 70
0
  3
Dot . . . . . . . . . . . . . . . . . . . . . . . .
 72
65
 73
2
 40
6.3499999999999996
 49
0.1
 74
0
 49
-6.25
 74
0
  0
LTYPE
  5
47
100
AcDbSymbolTableRecord
100
AcDbLinetypeTableRecord
  2
ACAD_ISO13W100
 70
0
  3
ISO double-dash double-dot __ __ . . __ __ . . _
 72
65
 73
8
 40
36.0000000000000071
 49
12.0
 74
0
 49
-3.0
 74
0
 49
12.0
 74
0
 49
-2.9500000000000002
 74
0
 49
0.1
 74
0
 49
-2.9000000000000004
 74
0
 49
0.1
 74
0
 49
-2.9500000000000002
 74
0
  0
LTYPE
  5
48
100
AcDbSymbolTableRecord
100
AcDbLinetypeTableRecord
  2
CENTERX2
 70
0
  3
Center (2x) ________  __  ________  __  _____
 72
65
 73
4
 40
101.6000000000000085
 49
63.5
 74
0
 49
-12.6999999999999993
 74
0
 49
12.6999999999999993
 74
0
 49
-12.6999999999999993
 74
0
  0
LTYPE
  5
49
100
AcDbSymbolTableRecord
100
AcDbLinetypeTableRecord
  2
HIDDEN2
 70
0
  3
Hidden (.5x) _ _ _ _ _ _ _ _ _ _ _ _ _ _ _ _ _ 
 72
65
 73
2
 40
4.7624999999999993
 49
3.1749999999999998
 74
0
 49
-1.5874999999999999
 74
0
  0
LTYPE
  5
14
100
AcDbSymbolTableRecord
100
AcDbLinetypeTableRecord
  2
BYBLOCK
 70
0
  3

 72
65
 73
0
 40
0.0
  0
LTYPE
  5
4A
100
AcDbSymbolTableRecord
100
AcDbLinetypeTableRecord
  2
PHANTOM2
 70
0
  3
Phantom (.5x) ___ _ _ ___ _ _ ___ _ _ ___ _ _
 72
65
 73
6
 40
31.7500000000000036
 49
15.875
 74
0
 49
-3.1749999999999998
 74
0
 49
3.1749999999999998
 74
0
 49
-3.1749999999999998
 74
0
 49
3.1749999999999998
 74
0
 49
-3.1749999999999998
 74
0
  0
LTYPE
  5
4B
100
AcDbSymbolTableRecord
100
AcDbLinetypeTableRecord
  2
ACAD_ISO02W100
 70
0
  3
ISO dash __ __ __ __ __ __ __ __ __ __ __ __ __
 72
65
 73
2
 40
15.0
 49
12.0
 74
0
 49
-3.0
 74
0
  0
LTYPE
  5
4C
100
AcDbSymbolTableRecord
100
AcDbLinetypeTableRecord
  2
HIDDENX2
 70
0
  3
Hidden (2x) ____ ____ ____ ____ ____ ____ ____ 
 72
65
 73
2
 40
19.0499999999999972
 49
12.6999999999999993
 74
0
 49
-6.3499999999999996
 74
0
  0
LTYPE
  5
4D
100
AcDbSymbolTableRecord
100
AcDbLinetypeTableRecord
  2
DOT2
 70
0
  3
Dot (.5x) ........................................
 72
65
 73
2
 40
3.1749999999999998
 49
0.1
 74
0
 49
-3.0749999999999997
 74
0
  0
LTYPE
  5
4E
100
AcDbSymbolTableRecord
100
AcDbLinetypeTableRecord
  2
DASHDOT2
 70
0
  3
Dash dot (.5x) _._._._._._._._._._._._._._._.
 72
65
 73
4
 40
12.6999999999999993
 49
6.3499999999999996
 74
0
 49
-3.125
 74
0
 49
0.1
 74
0
 49
-3.125
 74
0
  0
LTYPE
  5
4F
100
AcDbSymbolTableRecord
100
AcDbLinetypeTableRecord
  2
DASHDOTX2
 70
0
  3
Dash dot (2x) ____  .  ____  .  ____  .  ___
 72
65
 73
4
 40
50.7999999999999972
 49
25.3999999999999986
 74
0
 49
-12.6499999999999986
 74
0
 49
0.1
 74
0
 49
-12.6499999999999986
 74
0
  0
LTYPE
  5
50
100
AcDbSymbolTableRecord
100
AcDbLinetypeTableRecord
  2
PHANTOMX2
 70
0
  3
Phantom (2x) ____________    ____    ____   _
 72
65
 73
6
 40
127.0000000000000142
 49
63.5
 74
0
 49
-12.6999999999999993
 74
0
 49
12.6999999999999993
 74
0
 49
-12.6999999999999993
 74
0
 49
12.6999999999999993
 74
0
 49
-12.6999999999999993
 74
0
  0
LTYPE
  5
51
100
AcDbSymbolTableRecord
100
AcDbLinetypeTableRecord
  2
HIDDEN
 70
0
  3
Hidden __ __ __ __ __ __ __ __ __ __ __ __ __ __
 72
65
 73
2
 40
9.5249999999999986
 49
6.3499999999999996
 74
0
 49
-3.1749999999999998
 74
0
  0
LTYPE
  5
52
100
AcDbSymbolTableRecord
100
AcDbLinetypeTableRecord
  2
DASHED2
 70
0
  3
Dashed (.5x) _ _ _ _ _ _ _ _ _ _ _ _ _ _ _ _ _ 
 72
65
 73
2
 40
9.5249999999999986
 49
6.3499999999999996
 74
0
 49
-3.1749999999999998
 74
0
  0
LTYPE
  5
53
100
AcDbSymbolTableRecord
100
AcDbLinetypeTableRecord
  2
BORDER
 70
0
  3
Border __ __ . __ __ . __ __ . __ __ . __ __ .
 72
65
 73
6
 40
44.4499999999999957
 49
12.6999999999999993
 74
0
 49
-6.3499999999999996
 74
0
 49
12.6999999999999993
 74
0
 49
-6.2999999999999998
 74
0
 49
0.1
 74
0
 49
-6.2999999999999998
 74
0
  0
LTYPE
  5
54
100
AcDbSymbolTableRecord
100
AcDbLinetypeTableRecord
  2
PHANTOM
 70
0
  3
Phantom ______  __  __  ______  __  __  ______ 
 72
65
 73
6
 40
63.5000000000000071
 49
31.75
 74
0
 49
-6.3499999999999996
 74
0
 49
6.3499999999999996
 74
0
 49
-6.3499999999999996
 74
0
 49
6.3499999999999996
 74
0
 49
-6.3499999999999996
 74
0
  0
LTYPE
  5
55
100
AcDbSymbolTableRecord
100
AcDbLinetypeTableRecord
  2
BORDER2
 70
0
  3
Border (.5x) __.__.__.__.__.__.__.__.__.__.__.
 72
65
 73
6
 40
22.2250000000000014
 49
6.3499999999999996
 74
0
 49
-3.1749999999999998
 74
0
 49
6.3499999999999996
 74
0
 49
-3.125
 74
0
 49
0.1
 74
0
 49
-3.125
 74
0
  0
LTYPE
  5
56
100
AcDbSymbolTableRecord
100
AcDbLinetypeTableRecord
  2
DIVIDE2
 70
0
  3
Divide (.5x) __..__..__..__..__..__..__..__.._
 72
65
 73
6
 40
15.8749999999999982
 49
6.3499999999999996
 74
0
 49
-3.125
 74
0
 49
0.1
 74
0
 49
-3.0750000000000002
 74
0
 49
0.1
 74
0
 49
-3.125
 74
0
  0
ENDTAB
  0
TABLE
  2
LAYER
  5
2
100
AcDbSymbolTable
 70
1
  0
LAYER
  5
10
100
AcDbSymbolTableRecord
100
AcDbLayerTableRecord
  2
0
 70
0
 62
7
420
16777215
  6
Continuous
370
25
390
F
  0
ENDTAB
  0
TABLE
  2
STYLE
  5
3
100
AcDbSymbolTable
 70
1
  0
STYLE
  5
57
100
AcDbSymbolTableRecord
100
AcDbTextStyleTableRecord
  2
Standard
 70
0
 40
0.0
 41
1.0
 50
0.0
 71
0
 42
2.5
  3

  4

1001
ACAD
1000
txt
1071
0
  0
ENDTAB
  0
TABLE
  2
VIEW
  5
6
100
AcDbSymbolTable
 70
0
  0
ENDTAB
  0
TABLE
  2
UCS
  5
7
100
AcDbSymbolTable
 70
0
  0
ENDTAB
  0
TABLE
  2
APPID
  5
9
100
AcDbSymbolTable
 70
1
  0
APPID
  5
12
100
AcDbSymbolTableRecord
100
AcDbRegAppTableRecord
  2
ACAD
 70
0
  0
APPID
  5
58
100
AcDbSymbolTableRecord
100
AcDbRegAppTableRecord
  2
QCAD
 70
0
  0
ENDTAB
  0
TABLE
  2
DIMSTYLE
  5
A
100
AcDbSymbolTable
 70
1
100
AcDbDimStyleTable
 71
0
  0
DIMSTYLE
105
27
100
AcDbSymbolTableRecord
100
AcDbDimStyleTableRecord
  2
Standard
 41
2.5
 42
0.625
 43
3.75
 44
1.25
 70
0
 73
0
 74
0
 77
1
 78
8
140
2.5
141
2.5
143
0.03937007874016
147
0.625
171
3
172
1
271
2
272
2
274
3
278
44
283
0
284
8
340
57
  0
ENDTAB
  0
TABLE
  2
BLOCK_RECORD
  5
1
100
AcDbSymbolTable
 70
1
  0
BLOCK_RECORD
  5
1F
100
AcDbSymbolTableRecord
100
AcDbBlockTableRecord
  2
*Model_Space
340
22
  0
BLOCK_RECORD
  5
1B
100
AcDbSymbolTableRecord
100
AcDbBlockTableRecord
  2
*Paper_Space
340
1E
  0
BLOCK_RECORD
  5
23
100
AcDbSymbolTableRecord
100
AcDbBlockTableRecord
  2
*Paper_Space0
340
26
  0
ENDTAB
  0
ENDSEC
  0
SECTION
  2
BLOCKS
  0
BLOCK
  5
20
100
AcDbEntity
  8
0
100
AcDbBlockBegin
  2
*Model_Space
 70
0
 10
0.0
 20
0.0
 30
0.0
  3
*Model_Space
  1

  0
ENDBLK
  5
21
100
AcDbEntity
  8
0
100
AcDbBlockEnd
  0
BLOCK
  5
1C
100
AcDbEntity
 67
1
  8
0
100
AcDbBlockBegin
  2
*Paper_Space
 70
0
 10
0.0
 20
0.0
 30
0.0
  3
*Paper_Space
  1

  0
ENDBLK
  5
1D
100
AcDbEntity
 67
1
  8
0
100
AcDbBlockEnd
  0
BLOCK
  5
24
100
AcDbEntity
  8
0
100
AcDbBlockBegin
  2
*Paper_Space0
 70
0
 10
0.0
 20
0.0
 30
0.0
  3
*Paper_Space0
  1

  0
ENDBLK
  5
25
100
AcDbEntity
  8
0
100
AcDbBlockEnd
  0
ENDSEC
  0
SECTION
  2
ENTITIES
  0
LINE
  5
59
100
AcDbEntity
  8
0
 62
7
420
16777215
370
-1
 48
1.0
  6
Continuous
100
AcDbLine
 10
-2.3604865353323703
 20
6.3200000000000003
 30
0.0
 11
-13.1868429999999996
 21
6.3200000000000003
 31
0.0
  0
LINE
  5
5A
100
AcDbEntity
  8
0
 62
7
420
16777215
370
-1
 48
1.0
  6
Continuous
100
AcDbLine
 10
160.8785134646674919
 20
-14.4455480916707302
 30
0.0
 11
-13.1868429999999996
 21
-14.4455480916707302
 31
0.0
  0
LINE
  5
5B
100
AcDbEntity
  8
0
 62
7
420
16777215
370
-1
 48
1.0
  6
Continuous
100
AcDbLine
 10
160.8785134646674919
 20
-14.4455480916707302
 30
0.0
 11
160.8785134646674919
 21
97.9259999999999309
 31
0.0
  0
LINE
  5
5C
100
AcDbEntity
  8
0
 62
7
420
16777215
370
-1
 48
1.0
  6
Continuous
100
AcDbLine
 10
-7.1214865353289838
 20
97.9260000000000446
 30
0.0
 11
-7.1214865353323944
 21
59.0239999999999441
 31
0.0
  0
LINE
  5
5D
100
AcDbEntity
  8
0
 62
7
420
16777215
370
-1
 48
1.0
  6
Continuous
100
AcDbLine
 10
-7.1214865353323944
 20
59.0239999999999441
 30
0.0
 11
-16.6474865353321775
 21
59.0239999999999441
 31
0.0
  0
LINE
  5
5E
100
AcDbEntity
  8
0
 62
7
420
16777215
370
-1
 48
1.0
  6
Continuous
100
AcDbLine
 10
-16.6474865353321775
 20
45.0249999999999773
 30
0.0
 11
-11.8854865353325181
 21
45.0249999999999773
 31
0.0
  0
LINE
  5
5F
100
AcDbEntity
  8
0
 62
7
420
16777215
370
-1
 48
1.0
  6
Continuous
100
AcDbLine
 10
-2.3604865353323703
 20
25.9749999999999659
 30
0.0
 11
-2.3604865353323703
 21
6.3200000000000003
 31
0.0
  0
LINE
  5
60
100
AcDbEntity
  8
0
 62
7
420
16777215
370
-1
 48
1.0
  6
Continuous
100
AcDbLine
 10
-16.6474865353321775
 20
59.0239999999999441
 30
0.0
 11
-16.6474865353321775
 21
45.0249999999999773
 31
0.0
  0
LINE
  5
61
100
AcDbEntity
  8
0
 62
7
420
16777215
370
-1
 48
1.0
  6
Continuous
100
AcDbLine
 10
-11.8854865353325181
 20
45.0249999999999773
 30
0.0
 11
-11.8854865353325181
 21
25.9749999999999659
 31
0.0
  0
LINE
  5
62
100
AcDbEntity
  8
0
 62
7
420
16777215
370
-1
 48
1.0
  6
Continuous
100
AcDbLine
 10
-2.3604865353323703
 20
25.9749999999999659
 30
0.0
 11
-11.8854865353325181
 21
25.9749999999999659
 31
0.0
  0
LINE
  5
63
100
AcDbEntity
  8
0
 62
7
420
16777215
370
-1
 48
1.0
  6
Continuous
100
AcDbLine
 10
-13.1868429999999961
 20
6.3200000000000003
 30
0.0
 11
-13.1868429999999961
 21
-14.4455480916707302
 31
0.0
  0
LINE
  5
64
100
AcDbEntity
  8
0
 62
7
420
16777215
370
-1
 48
1.0
  6
Continuous
100
AcDbLine
 10
106.1560110755153232
 20
97.9222393304488605
 30
0.0
 11
160.8785134646674919
 21
97.9259999999999309
 31
0.0
  0
LINE
  5
65
100
AcDbEntity
  8
0
 62
7
420
16777215
370
-1
 48
1.0
  6
Continuous
100
AcDbLine
 10
36.4060110755153801
 20
97.925999999999874
 30
0.0
 11
84.7381420066021178
 21
97.9260000000000446
 31
0.0
  0
LINE
  5
66
100
AcDbEntity
  8
0
 62
7
420
16777215
370
-1
 48
1.0
  6
Continuous
100
AcDbLine
 10
22.9500110755155333
 20
97.9260000000000446
 30
0.0
 11
-7.1214865353289838
 21
97.9260000000000446
 31
0.0
  0
LINE
  5
67
100
AcDbEntity
  8
0
 62
7
420
16777215
370
-1
 48
1.0
  6
Continuous
100
AcDbLine
 10
36.4060110755153801
 20
97.9260000000000446
 30
0.0
 11
36.4060110755153801
 21
105.6260000000000332
 31
0.0
  0
LINE
  5
68
100
AcDbEntity
  8
0
 62
7
420
16777215
370
-1
 48
1.0
  6
Continuous
100
AcDbLine
 10
106.1560110755153232
 20
97.9222393304488605
 30
0.0
 11
106.1560110755153232
 21
105.6260000000000332
 31
0.0
  0
LINE
  5
69
100
AcDbEntity
  8
0
 62
7
420
16777215
370
-1
 48
1.0
  6
Continuous
100
AcDbLine
 10
-35.7411510755143809
 20
-14.4455480916705312
 30
0.0
 11
-160.8778010755150945
 21
-14.4455480916705312
 31
0.0
  0
LINE
  5
6A
100
AcDbEntity
  8
0
 62
7
420
16777215
370
-1
 48
1.0
  6
Continuous
100
AcDbLine
 10
-26.2168910755141837
 20
6.9249999999999545
 30
0.0
 11
-35.7411510755143809
 21
6.9259999999999593
 31
0.0
  0
LINE
  5
6B
100
AcDbEntity
  8
0
 62
7
420
16777215
370
-1
 48
1.0
  6
Continuous
100
AcDbLine
 10
-26.2168910755141837
 20
20.925700000000063
 30
0.0
 11
-26.2168910755141837
 21
6.9249999999999545
 31
0.0
  0
LINE
  5
6C
100
AcDbEntity
  8
0
 62
7
420
16777215
370
-1
 48
1.0
  6
Continuous
100
AcDbLine
 10
-35.7397010755149722
 20
20.925700000000063
 30
0.0
 11
-35.7397010755149722
 21
39.9739999999999611
 31
0.0
  0
LINE
  5
6D
100
AcDbEntity
  8
0
 62
7
420
16777215
370
-1
 48
1.0
  6
Continuous
100
AcDbLine
 10
-40.5017010755149727
 20
64.0749999999999318
 30
0.0
 11
-40.5017010755149727
 21
39.9739999999999611
 31
0.0
  0
LINE
  5
6E
100
AcDbEntity
  8
0
 62
7
420
16777215
370
-1
 48
1.0
  6
Continuous
100
AcDbLine
 10
-30.9767010755149954
 20
97.9259999999999309
 30
0.0
 11
-30.9767010755149954
 21
64.0749999999999318
 31
0.0
  0
LINE
  5
6F
100
AcDbEntity
  8
0
 62
7
420
16777215
370
-1
 48
1.0
  6
Continuous
100
AcDbLine
 10
-40.5017010755149727
 20
64.0749999999999318
 30
0.0
 11
-30.9767010755149954
 21
64.0749999999999318
 31
0.0
  0
LINE
  5
70
100
AcDbEntity
  8
0
 62
7
420
16777215
370
-1
 48
1.0
  6
Continuous
100
AcDbLine
 10
-40.5017010755149727
 20
39.9739999999999611
 30
0.0
 11
-35.7397010755149722
 21
39.9739999999999611
 31
0.0
  0
LINE
  5
71
100
AcDbEntity
  8
0
 62
7
420
16777215
370
-1
 48
1.0
  6
Continuous
100
AcDbLine
 10
-35.7397010755149722
 20
20.925700000000063
 30
0.0
 11
-26.2168910755141837
 21
20.925700000000063
 31
0.0
  0
LINE
  5
72
100
AcDbEntity
  8
0
 62
7
420
16777215
370
-1
 48
1.0
  6
Continuous
100
AcDbLine
 10
-160.8778010755150945
 20
-14.4455480916705312
 30
0.0
 11
-160.8778010755148955
 21
97.9259999999999309
 31
0.0
  0
LINE
  5
73
100
AcDbEntity
  8
0
 62
7
420
16777215
370
-1
 48
1.0
  6
Continuous
100
AcDbLine
 10
-35.7411510755143809
 20
6.9259999999999593
 30
0.0
 11
-35.7411510755143809
 21
-14.4455480916705312
 31
0.0
  0
LINE
  5
74
100
AcDbEntity
  8
0
 62
7
420
16777215
370
-1
 48
1.0
  6
Continuous
100
AcDbLine
 10
-160.8778010755148955
 20
97.9259999999999309
 30
0.0
 11
-143.0785110755149958
 21
97.9259999999999309
 31
0.0
  0
LINE
  5
75
100
AcDbEntity
  8
0
 62
7
420
16777215
370
-1
 48
1.0
  6
Continuous
100
AcDbLine
 10
-120.9324192989473943
 20
97.9259999999997603
 30
0.0
 11
-74.0785110755149958
 21
97.9259999999999309
 31
0.0
  0
LINE
  5
76
100
AcDbEntity
  8
0
 62
7
420
16777215
370
-1
 48
1.0
  6
Continuous
100
AcDbLine
 10
-74.0785110755149958
 20
97.9259999999999309
 30
0.0
 11
-74.0785110755149958
 21
105.6259996144657407
 31
0.0
  0
LINE
  5
77
100
AcDbEntity
  8
0
 62
7
420
16777215
370
-1
 48
1.0
  6
Continuous
100
AcDbLine
 10
-30.9767010755149954
 20
97.9259999999999309
 30
0.0
 11
-59.0785110755149958
 21
97.9259999999999309
 31
0.0
  0
LINE
  5
78
100
AcDbEntity
  8
0
 62
7
420
16777215
370
-1
 48
1.0
  6
Continuous
100
AcDbLine
 10
-59.0785110755149958
 20
97.9259999999999309
 30
0.0
 11
-59.0785110755149958
 21
105.6259996144657407
 31
0.0
  0
LINE
  5
79
100
AcDbEntity
  8
0
 62
7
420
16777215
370
-1
 48
1.0
  6
Continuous
100
AcDbLine
 10
-143.0785110755149958
 20
105.5998846616427613
 30
0.0
 11
-143.0785110755149958
 21
97.9259999999997603
 31
0.0
  0
LINE
  5
7A
100
AcDbEntity
  8
0
 62
7
420
16777215
370
-1
 48
1.0
  6
Continuous
100
AcDbLine
 10
-123.0785110755149958
 20
105.6259996144657407
 30
0.0
 11
-123.0785110755149958
 21
100.0449452398389667
 31
0.0
  0
LINE
  5
7B
100
AcDbEntity
  8
0
 62
7
420
16777215
370
-1
 48
1.0
  6
Continuous
100
AcDbLine
 10
22.9500110755155333
 20
97.9260000000000446
 30
0.0
 11
22.9500110755155333
 21
105.6260000000000332
 31
0.0
  0
LINE
  5
7C
100
AcDbEntity
  8
0
 62
7
420
16777215
370
-1
 48
1.0
  6
Continuous
100
AcDbLine
 10
-143.0785110755149958
 20
105.6259996144657407
 30
0.0
 11
-123.0785110755149958
 21
105.6259996144657407
 31
0.0
  0
LINE
  5
7D
100
AcDbEntity
  8
0
 62
7
420
16777215
370
-1
 48
1.0
  6
Continuous
100
AcDbLine
 10
-74.0785110755149958
 20
105.6259996144657407
 30
0.0
 11
-59.0785110755149958
 21
105.6259996144657407
 31
0.0
  0
LINE
  5
7E
100
AcDbEntity
  8
0
 62
7
420
16777215
370
-1
 48
1.0
  6
Continuous
100
AcDbLine
 10
22.9500110755155333
 20
105.6260000000000332
 30
0.0
 11
36.4060110755153801
 21
105.6260000000000332
 31
0.0
  0
LINE
  5
7F
100
AcDbEntity
  8
0
 62
7
420
16777215
370
-1
 48
1.0
  6
Continuous
100
AcDbLine
 10
86.7000110755155333
 20
105.6260000000000332
 30
0.0
 11
106.1560110755153232
 21
105.6260000000000332
 31
0.0
  0
LINE
  5
80
100
AcDbEntity
  8
0
 62
7
420
16777215
370
-1
 48
1.0
  6
Continuous
100
AcDbLine
 10
86.7000110755155333
 20
99.9928368534863807
 30
0.0
 11
86.7000110755155333
 21
105.6260000000000332
 31
0.0
  0
LINE
  5
81
100
AcDbEntity
  8
0
 62
7
420
16777215
370
-1
 48
1.0
  6
Continuous
100
AcDbLine
 10
86.7000110755155333
 20
99.9928368534863807
 30
0.0
 11
84.7381420066021178
 21
97.9260000000000446
 31
0.0
  0
LINE
  5
82
100
AcDbEntity
  8
0
 62
7
420
16777215
370
-1
 48
1.0
  6
Continuous
100
AcDbLine
 10
-123.0785110755149958
 20
100.0449452398389667
 30
0.0
 11
-120.9324192989473943
 21
97.9259999999997603
 31
0.0
  0
LINE
  5
83
100
AcDbEntity
  8
0
 62
7
420
16777215
370
-1
 48
1.0
  6
BYLAYER
100
AcDbLine
 10
-120.3854362188644558
 20
1.3770148566499243
 30
0.0
 11
-120.3854362188644558
 21
-11.6251148566501747
 31
0.0
  0
LINE
  5
84
100
AcDbEntity
  8
0
 62
7
420
16777215
370
-1
 48
1.0
  6
BYLAYER
100
AcDbLine
 10
-133.3875659321644491
 20
-11.6251148566501747
 30
0.0
 11
-133.3875659321644491
 21
1.3768291424498651
 31
0.0
  0
LINE
  5
85
100
AcDbEntity
  8
0
 62
7
420
16777215
370
-1
 48
1.0
  6
BYLAYER
100
AcDbLine
 10
-50.0411480755144495
 20
1.3770219995500401
 30
0.0
 11
-37.0411540755144628
 21
1.3770219995500401
 31
0.0
  0
LINE
  5
86
100
AcDbEntity
  8
0
 62
7
420
16777215
370
-1
 48
1.0
  6
BYLAYER
100
AcDbLine
 10
-37.0411540755144628
 20
1.3770219995500401
 30
0.0
 11
-37.0411540755144628
 21
-11.6249219995499988
 31
0.0
  0
LINE
  5
87
100
AcDbEntity
  8
0
 62
7
420
16777215
370
-1
 48
1.0
  6
BYLAYER
100
AcDbLine
 10
-37.0411540755144628
 20
-11.6249219995499988
 30
0.0
 11
-50.0411480755144495
 21
-11.6249219995499988
 31
0.0
  0
LINE
  5
88
100
AcDbEntity
  8
0
 62
7
420
16777215
370
-1
 48
1.0
  6
BYLAYER
100
AcDbLine
 10
-50.0411480755144495
 20
-11.6249219995499988
 30
0.0
 11
-50.0411480755144495
 21
1.3770219995500401
 31
0.0
  0
LINE
  5
89
100
AcDbEntity
  8
0
 62
7
420
16777215
370
-1
 48
1.0
  6
BYLAYER
100
AcDbLine
 10
-116.7159730756644507
 20
20.4256719998500031
 30
0.0
 11
-103.7166290753643949
 21
20.4256719998500031
 31
0.0
  0
LINE
  5
8A
100
AcDbEntity
  8
0
 62
7
420
16777215
370
-1
 48
1.0
  6
BYLAYER
100
AcDbLine
 10
-103.7166290753643949
 20
20.4256719998500031
 30
0.0
 11
-103.7166290753643949
 21
7.4250280001499016
 31
0.0
  0
LINE
  5
8B
100
AcDbEntity
  8
0
 62
7
420
16777215
370
-1
 48
1.0
  6
BYLAYER
100
AcDbLine
 10
-103.7166290753643949
 20
7.4250280001499016
 30
0.0
 11
-116.7159730756644507
 21
7.4250280001499016
 31
0.0
  0
LINE
  5
8C
100
AcDbEntity
  8
0
 62
7
420
16777215
370
-1
 48
1.0
  6
BYLAYER
100
AcDbLine
 10
-116.7159730756644507
 20
7.4250280001499016
 30
0.0
 11
-116.7159730756644507
 21
20.4256719998500031
 31
0.0
  0
LINE
  5
8D
100
AcDbEntity
  8
0
 62
7
420
16777215
370
-1
 48
1.0
  6
BYLAYER
100
AcDbLine
 10
-97.6659730756643825
 20
20.4256719998500031
 30
0.0
 11
-84.6666290753644404
 21
20.4256719998500031
 31
0.0
  0
LINE
  5
8E
100
AcDbEntity
  8
0
 62
7
420
16777215
370
-1
 48
1.0
  6
BYLAYER
100
AcDbLine
 10
-84.6666290753644404
 20
20.4256719998500031
 30
0.0
 11
-84.6666290753644404
 21
7.4250280001499016
 31
0.0
  0
LINE
  5
8F
100
AcDbEntity
  8
0
 62
7
420
16777215
370
-1
 48
1.0
  6
BYLAYER
100
AcDbLine
 10
-84.6666290753644404
 20
7.4250280001499016
 30
0.0
 11
-97.6659730756643825
 21
7.4250280001499016
 31
0.0
  0
LINE
  5
90
100
AcDbEntity
  8
0
 62
7
420
16777215
370
-1
 48
1.0
  6
BYLAYER
100
AcDbLine
 10
-97.6659730756643825
 20
7.4250280001499016
 30
0.0
 11
-97.6659730756643825
 21
20.4256719998500031
 31
0.0
  0
LINE
  5
91
100
AcDbEntity
  8
0
 62
7
420
16777215
370
-1
 48
1.0
  6
BYLAYER
100
AcDbLine
 10
-78.6159730756644279
 20
20.4256719998500031
 30
0.0
 11
-65.6166290753644859
 21
20.4256719998500031
 31
0.0
  0
LINE
  5
92
100
AcDbEntity
  8
0
 62
7
420
16777215
370
-1
 48
1.0
  6
BYLAYER
100
AcDbLine
 10
-65.6166290753644859
 20
20.4256719998500031
 30
0.0
 11
-65.6166290753644859
 21
7.4250280001499016
 31
0.0
  0
LINE
  5
93
100
AcDbEntity
  8
0
 62
7
420
16777215
370
-1
 48
1.0
  6
BYLAYER
100
AcDbLine
 10
-65.6166290753644859
 20
7.4250280001499016
 30
0.0
 11
-78.6159730756644279
 21
7.4250280001499016
 31
0.0
  0
LINE
  5
94
100
AcDbEntity
  8
0
 62
7
420
16777215
370
-1
 48
1.0
  6
BYLAYER
100
AcDbLine
 10
-78.6159730756644279
 20
7.4250280001499016
 30
0.0
 11
-78.6159730756644279
 21
20.4256719998500031
 31
0.0
  0
LINE
  5
95
100
AcDbEntity
  8
0
 62
7
420
16777215
370
-1
 48
1.0
  6
BYLAYER
100
AcDbLine
 10
-59.566148075514441
 20
20.4256719998500031
 30
0.0
 11
-46.5661540755144401
 21
20.4256719998500031
 31
0.0
  0
LINE
  5
96
100
AcDbEntity
  8
0
 62
7
420
16777215
370
-1
 48
1.0
  6
BYLAYER
100
AcDbLine
 10
-46.5661540755144401
 20
20.4256719998500031
 30
0.0
 11
-46.5661540755144401
 21
7.4250280001499016
 31
0.0
  0
LINE
  5
97
100
AcDbEntity
  8
0
 62
7
420
16777215
370
-1
 48
1.0
  6
BYLAYER
100
AcDbLine
 10
-46.5661540755144401
 20
7.4250280001499016
 30
0.0
 11
-59.566148075514441
 21
7.4250280001499016
 31
0.0
  0
LINE
  5
98
100
AcDbEntity
  8
0
 62
7
420
16777215
370
-1
 48
1.0
  6
BYLAYER
100
AcDbLine
 10
-59.566148075514441
 20
7.4250280001499016
 30
0.0
 11
-59.566148075514441
 21
20.4256719998500031
 31
0.0
  0
LINE
  5
99
100
AcDbEntity
  8
0
 62
7
420
16777215
370
-1
 48
1.0
  6
BYLAYER
100
AcDbLine
 10
-40.5161480755144723
 20
20.4256719998500031
 30
0.0
 11
-37.0411539999999988
 21
20.4256719998500031
 31
0.0
  0
LINE
  5
9A
100
AcDbEntity
  8
0
 62
7
420
16777215
370
-1
 48
1.0
  6
BYLAYER
100
AcDbLine
 10
-27.5161540755144713
 20
19.6256720000000016
 30
0.0
 11
-27.5161540000000002
 21
8.225028
 31
0.0
  0
LINE
  5
9B
100
AcDbEntity
  8
0
 62
7
420
16777215
370
-1
 48
1.0
  6
BYLAYER
100
AcDbLine
 10
-37.0411539999999988
 20
7.4250280001499016
 30
0.0
 11
-40.5161480755144723
 21
7.4250280001499016
 31
0.0
  0
LINE
  5
9C
100
AcDbEntity
  8
0
 62
7
420
16777215
370
-1
 48
1.0
  6
BYLAYER
100
AcDbLine
 10
-40.5161480755144723
 20
7.4250280001499016
 30
0.0
 11
-40.5161480755144723
 21
20.4256719998500031
 31
0.0
  0
LINE
  5
9D
100
AcDbEntity
  8
0
 62
7
420
16777215
370
-1
 48
1.0
  6
BYLAYER
100
AcDbLine
 10
-152.435248075514437
 20
39.4756719998500216
 30
0.0
 11
-139.4352540755144219
 21
39.4756719998500216
 31
0.0
  0
LINE
  5
9E
100
AcDbEntity
  8
0
 62
7
420
16777215
370
-1
 48
1.0
  6
BYLAYER
100
AcDbLine
 10
-139.4352540755144219
 20
39.4756719998500216
 30
0.0
 11
-139.4352540755144219
 21
26.4750280001500222
 31
0.0
  0
LINE
  5
9F
100
AcDbEntity
  8
0
 62
7
420
16777215
370
-1
 48
1.0
  6
BYLAYER
100
AcDbLine
 10
-139.4352540755144219
 20
26.4750280001500222
 30
0.0
 11
-152.435248075514437
 21
26.4750280001500222
 31
0.0
  0
LINE
  5
A0
100
AcDbEntity
  8
0
 62
7
420
16777215
370
-1
 48
1.0
  6
BYLAYER
100
AcDbLine
 10
-152.435248075514437
 20
26.4750280001500222
 30
0.0
 11
-152.435248075514437
 21
39.4756719998500216
 31
0.0
  0
LINE
  5
A1
100
AcDbEntity
  8
0
 62
7
420
16777215
370
-1
 48
1.0
  6
BYLAYER
100
AcDbLine
 10
-126.2409730756644279
 20
39.4756719998500216
 30
0.0
 11
-113.2416290753644859
 21
39.4756719998500216
 31
0.0
  0
LINE
  5
A2
100
AcDbEntity
  8
0
 62
7
420
16777215
370
-1
 48
1.0
  6
BYLAYER
100
AcDbLine
 10
-113.2416290753644859
 20
39.4756719998500216
 30
0.0
 11
-113.2416290753644859
 21
26.4750280001500222
 31
0.0
  0
LINE
  5
A3
100
AcDbEntity
  8
0
 62
7
420
16777215
370
-1
 48
1.0
  6
BYLAYER
100
AcDbLine
 10
-113.2416290753644859
 20
26.4750280001500222
 30
0.0
 11
-126.2409730756644279
 21
26.4750280001500222
 31
0.0
  0
LINE
  5
A4
100
AcDbEntity
  8
0
 62
7
420
16777215
370
-1
 48
1.0
  6
BYLAYER
100
AcDbLine
 10
-126.2409730756644279
 20
26.4750280001500222
 30
0.0
 11
-126.2409730756644279
 21
39.4756719998500216
 31
0.0
  0
LINE
  5
A5
100
AcDbEntity
  8
0
 62
7
420
16777215
370
-1
 48
1.0
  6
BYLAYER
100
AcDbLine
 10
-107.1909730756644734
 20
39.4756719998500216
 30
0.0
 11
-94.1916290753645313
 21
39.4756719998500216
 31
0.0
  0
LINE
  5
A6
100
AcDbEntity
  8
0
 62
7
420
16777215
370
-1
 48
1.0
  6
BYLAYER
100
AcDbLine
 10
-94.1916290753645313
 20
39.4756719998500216
 30
0.0
 11
-94.1916290753645313
 21
26.4750280001500222
 31
0.0
  0
LINE
  5
A7
100
AcDbEntity
  8
0
 62
7
420
16777215
370
-1
 48
1.0
  6
BYLAYER
100
AcDbLine
 10
-94.1916290753645313
 20
26.4750280001500222
 30
0.0
 11
-107.1909730756644734
 21
26.4750280001500222
 31
0.0
  0
LINE
  5
A8
100
AcDbEntity
  8
0
 62
7
420
16777215
370
-1
 48
1.0
  6
BYLAYER
100
AcDbLine
 10
-107.1909730756644734
 20
26.4750280001500222
 30
0.0
 11
-107.1909730756644734
 21
39.4756719998500216
 31
0.0
  0
LINE
  5
A9
100
AcDbEntity
  8
0
 62
7
420
16777215
370
-1
 48
1.0
  6
BYLAYER
100
AcDbLine
 10
-88.1409730756645189
 20
39.4756719998500216
 30
0.0
 11
-75.1416290753644631
 21
39.4756719998500216
 31
0.0
  0
LINE
  5
AA
100
AcDbEntity
  8
0
 62
7
420
16777215
370
-1
 48
1.0
  6
BYLAYER
100
AcDbLine
 10
-75.1416290753644631
 20
39.4756719998500216
 30
0.0
 11
-75.1416290753644631
 21
26.4750280001500222
 31
0.0
  0
LINE
  5
AB
100
AcDbEntity
  8
0
 62
7
420
16777215
370
-1
 48
1.0
  6
BYLAYER
100
AcDbLine
 10
-75.1416290753644631
 20
26.4750280001500222
 30
0.0
 11
-88.1409730756645189
 21
26.4750280001500222
 31
0.0
  0
LINE
  5
AC
100
AcDbEntity
  8
0
 62
7
420
16777215
370
-1
 48
1.0
  6
BYLAYER
100
AcDbLine
 10
-88.1409730756645189
 20
26.4750280001500222
 30
0.0
 11
-88.1409730756645189
 21
39.4756719998500216
 31
0.0
  0
LINE
  5
AD
100
AcDbEntity
  8
0
 62
7
420
16777215
370
-1
 48
1.0
  6
BYLAYER
100
AcDbLine
 10
-69.0909552184144502
 20
39.4756719998500216
 30
0.0
 11
-56.091146932614528
 21
39.4756719998500216
 31
0.0
  0
LINE
  5
AE
100
AcDbEntity
  8
0
 62
7
420
16777215
370
-1
 48
1.0
  6
BYLAYER
100
AcDbLine
 10
-56.091146932614528
 20
39.4756719998500216
 30
0.0
 11
-56.091146932614528
 21
26.4750280001500222
 31
0.0
  0
LINE
  5
AF
100
AcDbEntity
  8
0
 62
7
420
16777215
370
-1
 48
1.0
  6
BYLAYER
100
AcDbLine
 10
-56.091146932614528
 20
26.4750280001500222
 30
0.0
 11
-69.0909552184144502
 21
26.4750280001500222
 31
0.0
  0
LINE
  5
B0
100
AcDbEntity
  8
0
 62
7
420
16777215
370
-1
 48
1.0
  6
BYLAYER
100
AcDbLine
 10
-69.0909552184144502
 20
26.4750280001500222
 30
0.0
 11
-69.0909552184144502
 21
39.4756719998500216
 31
0.0
  0
LINE
  5
B1
100
AcDbEntity
  8
0
 62
7
420
16777215
370
-1
 48
1.0
  6
BYLAYER
100
AcDbLine
 10
-50.0411480755144495
 20
39.4756719998500216
 30
0.0
 11
-41.8041180000000026
 21
39.4756719998500216
 31
0.0
  0
LINE
  5
B2
100
AcDbEntity
  8
0
 62
7
420
16777215
370
-1
 48
1.0
  6
BYLAYER
100
AcDbLine
 10
-37.0411540755144628
 20
38.6756719999999987
 30
0.0
 11
-37.0411540755144628
 21
26.4750280001500222
 31
0.0
  0
LINE
  5
B3
100
AcDbEntity
  8
0
 62
7
420
16777215
370
-1
 48
1.0
  6
BYLAYER
100
AcDbLine
 10
-37.0411540755144628
 20
26.4750280001500222
 30
0.0
 11
-50.0411480755144495
 21
26.4750280001500222
 31
0.0
  0
LINE
  5
B4
100
AcDbEntity
  8
0
 62
7
420
16777215
370
-1
 48
1.0
  6
BYLAYER
100
AcDbLine
 10
-50.0411480755144495
 20
26.4750280001500222
 30
0.0
 11
-50.0411480755144495
 21
39.4756719998500216
 31
0.0
  0
LINE
  5
B5
100
AcDbEntity
  8
0
 62
7
420
16777215
370
-1
 48
1.0
  6
BYLAYER
100
AcDbLine
 10
-154.816004504184491
 20
58.52596128550001
 30
0.0
 11
-141.816437646844463
 21
58.52596128550001
 31
0.0
  0
LINE
  5
B6
100
AcDbEntity
  8
0
 62
7
420
16777215
370
-1
 48
1.0
  6
BYLAYER
100
AcDbLine
 10
-141.816437646844463
 20
58.52596128550001
 30
0.0
 11
-141.816437646844463
 21
45.5250387145000346
 31
0.0
  0
LINE
  5
B7
100
AcDbEntity
  8
0
 62
7
420
16777215
370
-1
 48
1.0
  6
BYLAYER
100
AcDbLine
 10
-141.816437646844463
 20
45.5250387145000346
 30
0.0
 11
-154.816004504184491
 21
45.5250387145000346
 31
0.0
  0
LINE
  5
B8
100
AcDbEntity
  8
0
 62
7
420
16777215
370
-1
 48
1.0
  6
BYLAYER
100
AcDbLine
 10
-154.816004504184491
 20
45.5250387145000346
 30
0.0
 11
-154.816004504184491
 21
58.52596128550001
 31
0.0
  0
LINE
  5
B9
100
AcDbEntity
  8
0
 62
7
420
16777215
370
-1
 48
1.0
  6
BYLAYER
100
AcDbLine
 10
-131.0034730756644876
 20
58.52596128550001
 30
0.0
 11
-118.0041290753645313
 21
58.52596128550001
 31
0.0
  0
LINE
  5
BA
100
AcDbEntity
  8
0
 62
7
420
16777215
370
-1
 48
1.0
  6
BYLAYER
100
AcDbLine
 10
-118.0041290753645313
 20
58.52596128550001
 30
0.0
 11
-118.0041290753645313
 21
45.5250387145000346
 31
0.0
  0
LINE
  5
BB
100
AcDbEntity
  8
0
 62
7
420
16777215
370
-1
 48
1.0
  6
BYLAYER
100
AcDbLine
 10
-118.0041290753645313
 20
45.5250387145000346
 30
0.0
 11
-131.0034730756644876
 21
45.5250387145000346
 31
0.0
  0
LINE
  5
BC
100
AcDbEntity
  8
0
 62
7
420
16777215
370
-1
 48
1.0
  6
BYLAYER
100
AcDbLine
 10
-131.0034730756644876
 20
45.5250387145000346
 30
0.0
 11
-131.0034730756644876
 21
58.52596128550001
 31
0.0
  0
LINE
  5
BD
100
AcDbEntity
  8
0
 62
7
420
16777215
370
-1
 48
1.0
  6
BYLAYER
100
AcDbLine
 10
-111.9534730756645189
 20
58.52596128550001
 30
0.0
 11
-98.9541290753644631
 21
58.52596128550001
 31
0.0
  0
LINE
  5
BE
100
AcDbEntity
  8
0
 62
7
420
16777215
370
-1
 48
1.0
  6
BYLAYER
100
AcDbLine
 10
-98.9541290753644631
 20
58.52596128550001
 30
0.0
 11
-98.9541290753644631
 21
45.5250387145000346
 31
0.0
  0
LINE
  5
BF
100
AcDbEntity
  8
0
 62
7
420
16777215
370
-1
 48
1.0
  6
BYLAYER
100
AcDbLine
 10
-98.9541290753644631
 20
45.5250387145000346
 30
0.0
 11
-111.9534730756645189
 21
45.5250387145000346
 31
0.0
  0
LINE
  5
C0
100
AcDbEntity
  8
0
 62
7
420
16777215
370
-1
 48
1.0
  6
BYLAYER
100
AcDbLine
 10
-111.9534730756645189
 20
45.5250387145000346
 30
0.0
 11
-111.9534730756645189
 21
58.52596128550001
 31
0.0
  0
LINE
  5
C1
100
AcDbEntity
  8
0
 62
7
420
16777215
370
-1
 48
1.0
  6
BYLAYER
100
AcDbLine
 10
-92.9034730756644507
 20
58.52596128550001
 30
0.0
 11
-79.9041290753643949
 21
58.52596128550001
 31
0.0
  0
LINE
  5
C2
100
AcDbEntity
  8
0
 62
7
420
16777215
370
-1
 48
1.0
  6
BYLAYER
100
AcDbLine
 10
-79.9041290753643949
 20
58.52596128550001
 30
0.0
 11
-79.9041290753643949
 21
45.5250387145000346
 31
0.0
  0
LINE
  5
C3
100
AcDbEntity
  8
0
 62
7
420
16777215
370
-1
 48
1.0
  6
BYLAYER
100
AcDbLine
 10
-79.9041290753643949
 20
45.5250387145000346
 30
0.0
 11
-92.9034730756644507
 21
45.5250387145000346
 31
0.0
  0
LINE
  5
C4
100
AcDbEntity
  8
0
 62
7
420
16777215
370
-1
 48
1.0
  6
BYLAYER
100
AcDbLine
 10
-92.9034730756644507
 20
45.5250387145000346
 30
0.0
 11
-92.9034730756644507
 21
58.52596128550001
 31
0.0
  0
LINE
  5
C5
100
AcDbEntity
  8
0
 62
7
420
16777215
370
-1
 48
1.0
  6
BYLAYER
100
AcDbLine
 10
-73.8534730756643825
 20
58.52596128550001
 30
0.0
 11
-60.8541290753644333
 21
58.52596128550001
 31
0.0
  0
LINE
  5
C6
100
AcDbEntity
  8
0
 62
7
420
16777215
370
-1
 48
1.0
  6
BYLAYER
100
AcDbLine
 10
-60.8541290753644333
 20
58.52596128550001
 30
0.0
 11
-60.8541290753644333
 21
45.5250387145000346
 31
0.0
  0
LINE
  5
C7
100
AcDbEntity
  8
0
 62
7
420
16777215
370
-1
 48
1.0
  6
BYLAYER
100
AcDbLine
 10
-60.8541290753644333
 20
45.5250387145000346
 30
0.0
 11
-73.8534730756643825
 21
45.5250387145000346
 31
0.0
  0
LINE
  5
C8
100
AcDbEntity
  8
0
 62
7
420
16777215
370
-1
 48
1.0
  6
BYLAYER
100
AcDbLine
 10
-73.8534730756643825
 20
45.5250387145000346
 30
0.0
 11
-73.8534730756643825
 21
58.52596128550001
 31
0.0
  0
LINE
  5
C9
100
AcDbEntity
  8
0
 62
7
420
16777215
370
-1
 48
1.0
  6
BYLAYER
100
AcDbLine
 10
-54.8031837900145078
 20
58.52596128550001
 30
0.0
 11
-41.8041183610145666
 21
58.52596128550001
 31
0.0
  0
LINE
  5
CA
100
AcDbEntity
  8
0
 62
7
420
16777215
370
-1
 48
1.0
  6
BYLAYER
100
AcDbLine
 10
-41.8041183610145666
 20
58.52596128550001
 30
0.0
 11
-41.8041183610145666
 21
45.5250387145000346
 31
0.0
  0
LINE
  5
CB
100
AcDbEntity
  8
0
 62
7
420
16777215
370
-1
 48
1.0
  6
BYLAYER
100
AcDbLine
 10
-41.8041183610145666
 20
45.5250387145000346
 30
0.0
 11
-54.8031837900145078
 21
45.5250387145000346
 31
0.0
  0
LINE
  5
CC
100
AcDbEntity
  8
0
 62
7
420
16777215
370
-1
 48
1.0
  6
BYLAYER
100
AcDbLine
 10
-54.8031837900145078
 20
45.5250387145000346
 30
0.0
 11
-54.8031837900145078
 21
58.52596128550001
 31
0.0
  0
LINE
  5
CD
100
AcDbEntity
  8
0
 62
7
420
16777215
370
-1
 48
1.0
  6
BYLAYER
100
AcDbLine
 10
-159.5785141470393853
 20
77.5759612854999148
 30
0.0
 11
-146.578938003989407
 21
77.5759612854999148
 31
0.0
  0
LINE
  5
CE
100
AcDbEntity
  8
0
 62
7
420
16777215
370
-1
 48
1.0
  6
BYLAYER
100
AcDbLine
 10
-146.578938003989407
 20
77.5759612854999148
 30
0.0
 11
-146.578938003989407
 21
64.5750387145000389
 31
0.0
  0
LINE
  5
CF
100
AcDbEntity
  8
0
 62
7
420
16777215
370
-1
 48
1.0
  6
BYLAYER
100
AcDbLine
 10
-146.578938003989407
 20
64.5750387145000389
 30
0.0
 11
-159.5785141470393853
 21
64.5750387145000389
 31
0.0
  0
LINE
  5
D0
100
AcDbEntity
  8
0
 62
7
420
16777215
370
-1
 48
1.0
  6
BYLAYER
100
AcDbLine
 10
-159.5785141470393853
 20
64.5750387145000389
 30
0.0
 11
-159.5785141470393853
 21
77.5759612854999148
 31
0.0
  0
LINE
  5
D1
100
AcDbEntity
  8
0
 62
7
420
16777215
370
-1
 48
1.0
  6
BYLAYER
100
AcDbLine
 10
-140.5284730756644649
 20
77.5759612854999148
 30
0.0
 11
-127.5291290753643949
 21
77.5759612854999148
 31
0.0
  0
LINE
  5
D2
100
AcDbEntity
  8
0
 62
7
420
16777215
370
-1
 48
1.0
  6
BYLAYER
100
AcDbLine
 10
-127.5291290753643949
 20
77.5759612854999148
 30
0.0
 11
-127.5291290753643949
 21
64.5750387145000389
 31
0.0
  0
LINE
  5
D3
100
AcDbEntity
  8
0
 62
7
420
16777215
370
-1
 48
1.0
  6
BYLAYER
100
AcDbLine
 10
-127.5291290753643949
 20
64.5750387145000389
 30
0.0
 11
-140.5284730756644649
 21
64.5750387145000389
 31
0.0
  0
LINE
  5
D4
100
AcDbEntity
  8
0
 62
7
420
16777215
370
-1
 48
1.0
  6
BYLAYER
100
AcDbLine
 10
-140.5284730756644649
 20
64.5750387145000389
 30
0.0
 11
-140.5284730756644649
 21
77.5759612854999148
 31
0.0
  0
LINE
  5
D5
100
AcDbEntity
  8
0
 62
7
420
16777215
370
-1
 48
1.0
  6
BYLAYER
100
AcDbLine
 10
-121.4784730756644962
 20
77.5759612854999148
 30
0.0
 11
-108.4791290753644404
 21
77.5759612854999148
 31
0.0
  0
LINE
  5
D6
100
AcDbEntity
  8
0
 62
7
420
16777215
370
-1
 48
1.0
  6
BYLAYER
100
AcDbLine
 10
-108.4791290753644404
 20
77.5759612854999148
 30
0.0
 11
-108.4791290753644404
 21
64.5750387145000389
 31
0.0
  0
LINE
  5
D7
100
AcDbEntity
  8
0
 62
7
420
16777215
370
-1
 48
1.0
  6
BYLAYER
100
AcDbLine
 10
-108.4791290753644404
 20
64.5750387145000389
 30
0.0
 11
-121.4784730756644962
 21
64.5750387145000389
 31
0.0
  0
LINE
  5
D8
100
AcDbEntity
  8
0
 62
7
420
16777215
370
-1
 48
1.0
  6
BYLAYER
100
AcDbLine
 10
-121.4784730756644962
 20
64.5750387145000389
 30
0.0
 11
-121.4784730756644962
 21
77.5759612854999148
 31
0.0
  0
LINE
  5
D9
100
AcDbEntity
  8
0
 62
7
420
16777215
370
-1
 48
1.0
  6
BYLAYER
100
AcDbLine
 10
-102.4284730756644279
 20
77.5759612854999148
 30
0.0
 11
-89.4291290753644859
 21
77.5759612854999148
 31
0.0
  0
LINE
  5
DA
100
AcDbEntity
  8
0
 62
7
420
16777215
370
-1
 48
1.0
  6
BYLAYER
100
AcDbLine
 10
-89.4291290753644859
 20
77.5759612854999148
 30
0.0
 11
-89.4291290753644859
 21
64.5750387145000389
 31
0.0
  0
LINE
  5
DB
100
AcDbEntity
  8
0
 62
7
420
16777215
370
-1
 48
1.0
  6
BYLAYER
100
AcDbLine
 10
-89.4291290753644859
 20
64.5750387145000389
 30
0.0
 11
-102.4284730756644279
 21
64.5750387145000389
 31
0.0
  0
LINE
  5
DC
100
AcDbEntity
  8
0
 62
7
420
16777215
370
-1
 48
1.0
  6
BYLAYER
100
AcDbLine
 10
-102.4284730756644279
 20
64.5750387145000389
 30
0.0
 11
-102.4284730756644279
 21
77.5759612854999148
 31
0.0
  0
LINE
  5
DD
100
AcDbEntity
  8
0
 62
7
420
16777215
370
-1
 48
1.0
  6
BYLAYER
100
AcDbLine
 10
-83.3784730756644734
 20
77.5759612854999148
 30
0.0
 11
-70.3791290753645455
 21
77.5759612854999148
 31
0.0
  0
LINE
  5
DE
100
AcDbEntity
  8
0
 62
7
420
16777215
370
-1
 48
1.0
  6
BYLAYER
100
AcDbLine
 10
-70.3791290753645455
 20
77.5759612854999148
 30
0.0
 11
-70.3791290753645455
 21
64.5750387145000389
 31
0.0
  0
LINE
  5
DF
100
AcDbEntity
  8
0
 62
7
420
16777215
370
-1
 48
1.0
  6
BYLAYER
100
AcDbLine
 10
-70.3791290753645455
 20
64.5750387145000389
 30
0.0
 11
-83.3784730756644734
 21
64.5750387145000389
 31
0.0
  0
LINE
  5
E0
100
AcDbEntity
  8
0
 62
7
420
16777215
370
-1
 48
1.0
  6
BYLAYER
100
AcDbLine
 10
-83.3784730756644734
 20
64.5750387145000389
 30
0.0
 11
-83.3784730756644734
 21
77.5759612854999148
 31
0.0
  0
LINE
  5
E1
100
AcDbEntity
  8
0
 62
7
420
16777215
370
-1
 48
1.0
  6
BYLAYER
100
AcDbLine
 10
-64.3298230753644162
 20
77.5759612854999148
 30
0.0
 11
-51.3291790756644559
 21
77.5759612854999148
 31
0.0
  0
LINE
  5
E2
100
AcDbEntity
  8
0
 62
7
420
16777215
370
-1
 48
1.0
  6
BYLAYER
100
AcDbLine
 10
-51.3291790756644559
 20
77.5759612854999148
 30
0.0
 11
-51.3291790756644559
 21
64.5750387145000389
 31
0.0
  0
LINE
  5
E3
100
AcDbEntity
  8
0
 62
7
420
16777215
370
-1
 48
1.0
  6
BYLAYER
100
AcDbLine
 10
-51.3291790756644559
 20
64.5750387145000389
 30
0.0
 11
-64.3298230753644162
 21
64.5750387145000389
 31
0.0
  0
LINE
  5
E4
100
AcDbEntity
  8
0
 62
7
420
16777215
370
-1
 48
1.0
  6
BYLAYER
100
AcDbLine
 10
-64.3298230753644162
 20
64.5750387145000389
 30
0.0
 11
-64.3298230753644162
 21
77.5759612854999148
 31
0.0
  0
LINE
  5
E5
100
AcDbEntity
  8
0
 62
7
420
16777215
370
-1
 48
1.0
  6
BYLAYER
100
AcDbLine
 10
-45.2801123610144884
 20
77.5759612854999148
 30
0.0
 11
-32.2791897900145557
 21
77.5759612854999148
 31
0.0
  0
LINE
  5
E6
100
AcDbEntity
  8
0
 62
7
420
16777215
370
-1
 48
1.0
  6
BYLAYER
100
AcDbLine
 10
-32.2791897900145557
 20
77.5759612854999148
 30
0.0
 11
-32.2791897900145557
 21
65.375039000000001
 31
0.0
  0
LINE
  5
E7
100
AcDbEntity
  8
0
 62
7
420
16777215
370
-1
 48
1.0
  6
BYLAYER
100
AcDbLine
 10
-41.8041180000000026
 20
64.5750387145000389
 30
0.0
 11
-45.2801123610144884
 21
64.5750387145000389
 31
0.0
  0
LINE
  5
E8
100
AcDbEntity
  8
0
 62
7
420
16777215
370
-1
 48
1.0
  6
BYLAYER
100
AcDbLine
 10
-45.2801123610144884
 20
64.5750387145000389
 30
0.0
 11
-45.2801123610144884
 21
77.5759612854999148
 31
0.0
  0
LINE
  5
E9
100
AcDbEntity
  8
0
 62
7
420
16777215
370
-1
 48
1.0
  6
BYLAYER
100
AcDbLine
 10
-159.5785141470393853
 20
96.6259612855000256
 30
0.0
 11
-146.578938003989407
 21
96.6259612855000256
 31
0.0
  0
LINE
  5
EA
100
AcDbEntity
  8
0
 62
7
420
16777215
370
-1
 48
1.0
  6
BYLAYER
100
AcDbLine
 10
-146.578938003989407
 20
96.6259612855000256
 30
0.0
 11
-146.578938003989407
 21
83.6250387144999507
 31
0.0
  0
LINE
  5
EB
100
AcDbEntity
  8
0
 62
7
420
16777215
370
-1
 48
1.0
  6
BYLAYER
100
AcDbLine
 10
-146.578938003989407
 20
83.6250387144999507
 30
0.0
 11
-159.5785141470393853
 21
83.6250387144999507
 31
0.0
  0
LINE
  5
EC
100
AcDbEntity
  8
0
 62
7
420
16777215
370
-1
 48
1.0
  6
BYLAYER
100
AcDbLine
 10
-159.5785141470393853
 20
83.6250387144999507
 30
0.0
 11
-159.5785141470393853
 21
96.6259612855000256
 31
0.0
  0
LINE
  5
ED
100
AcDbEntity
  8
0
 62
7
420
16777215
370
-1
 48
1.0
  6
BYLAYER
100
AcDbLine
 10
-140.5284730756644649
 20
96.6259612855000256
 30
0.0
 11
-127.5291290753643949
 21
96.6259612855000256
 31
0.0
  0
LINE
  5
EE
100
AcDbEntity
  8
0
 62
7
420
16777215
370
-1
 48
1.0
  6
BYLAYER
100
AcDbLine
 10
-127.5291290753643949
 20
96.6259612855000256
 30
0.0
 11
-127.5291290753643949
 21
83.6250387144999507
 31
0.0
  0
LINE
  5
EF
100
AcDbEntity
  8
0
 62
7
420
16777215
370
-1
 48
1.0
  6
BYLAYER
100
AcDbLine
 10
-140.5284730756644649
 20
83.6250387144999507
 30
0.0
 11
-140.5284730756644649
 21
96.6259612855000256
 31
0.0
  0
LINE
  5
F0
100
AcDbEntity
  8
0
 62
7
420
16777215
370
-1
 48
1.0
  6
BYLAYER
100
AcDbLine
 10
-121.4784730756644962
 20
96.6259612855000256
 30
0.0
 11
-108.4791290753644404
 21
96.6259612855000256
 31
0.0
  0
LINE
  5
F1
100
AcDbEntity
  8
0
 62
7
420
16777215
370
-1
 48
1.0
  6
BYLAYER
100
AcDbLine
 10
-108.4791290753644404
 20
83.6250387144999507
 30
0.0
 11
-121.4784730756644962
 21
83.6250387144999507
 31
0.0
  0
LINE
  5
F2
100
AcDbEntity
  8
0
 62
7
420
16777215
370
-1
 48
1.0
  6
BYLAYER
100
AcDbLine
 10
-102.4284730756644279
 20
96.6259612855000256
 30
0.0
 11
-89.4291290753644859
 21
96.6259612855000256
 31
0.0
  0
LINE
  5
F3
100
AcDbEntity
  8
0
 62
7
420
16777215
370
-1
 48
1.0
  6
BYLAYER
100
AcDbLine
 10
-89.4291290753644859
 20
96.6259612855000256
 30
0.0
 11
-89.4291290753644859
 21
83.6250387144999507
 31
0.0
  0
LINE
  5
F4
100
AcDbEntity
  8
0
 62
7
420
16777215
370
-1
 48
1.0
  6
BYLAYER
100
AcDbLine
 10
-89.4291290753644859
 20
83.6250387144999507
 30
0.0
 11
-102.4284730756644279
 21
83.6250387144999507
 31
0.0
  0
LINE
  5
F5
100
AcDbEntity
  8
0
 62
7
420
16777215
370
-1
 48
1.0
  6
BYLAYER
100
AcDbLine
 10
-102.4284730756644279
 20
83.6250387144999507
 30
0.0
 11
-102.4284730756644279
 21
96.6259612855000256
 31
0.0
  0
LINE
  5
F6
100
AcDbEntity
  8
0
 62
7
420
16777215
370
-1
 48
1.0
  6
BYLAYER
100
AcDbLine
 10
-83.3784730756644734
 20
96.6259612855000256
 30
0.0
 11
-70.3791290753645455
 21
96.6259612855000256
 31
0.0
  0
LINE
  5
F7
100
AcDbEntity
  8
0
 62
7
420
16777215
370
-1
 48
1.0
  6
BYLAYER
100
AcDbLine
 10
-70.3791290753645455
 20
96.6259612855000256
 30
0.0
 11
-70.3791290753645455
 21
83.6250387144999507
 31
0.0
  0
LINE
  5
F8
100
AcDbEntity
  8
0
 62
7
420
16777215
370
-1
 48
1.0
  6
BYLAYER
100
AcDbLine
 10
-70.3791290753645455
 20
83.6250387144999507
 30
0.0
 11
-83.3784730756644734
 21
83.6250387144999507
 31
0.0
  0
LINE
  5
F9
100
AcDbEntity
  8
0
 62
7
420
16777215
370
-1
 48
1.0
  6
BYLAYER
100
AcDbLine
 10
-83.3784730756644734
 20
83.6250387144999507
 30
0.0
 11
-83.3784730756644734
 21
96.6259612855000256
 31
0.0
  0
LINE
  5
FA
100
AcDbEntity
  8
0
 62
7
420
16777215
370
-1
 48
1.0
  6
BYLAYER
100
AcDbLine
 10
-64.3298230753644162
 20
96.6259612855000256
 30
0.0
 11
-51.3291790756644559
 21
96.6259612855000256
 31
0.0
  0
LINE
  5
FB
100
AcDbEntity
  8
0
 62
7
420
16777215
370
-1
 48
1.0
  6
BYLAYER
100
AcDbLine
 10
-51.3291790756644559
 20
96.6259612855000256
 30
0.0
 11
-51.3291790756644559
 21
83.6250387144999507
 31
0.0
  0
LINE
  5
FC
100
AcDbEntity
  8
0
 62
7
420
16777215
370
-1
 48
1.0
  6
BYLAYER
100
AcDbLine
 10
-51.3291790756644559
 20
83.6250387144999507
 30
0.0
 11
-64.3298230753644162
 21
83.6250387144999507
 31
0.0
  0
LINE
  5
FD
100
AcDbEntity
  8
0
 62
7
420
16777215
370
-1
 48
1.0
  6
BYLAYER
100
AcDbLine
 10
-64.3298230753644162
 20
83.6250387144999507
 30
0.0
 11
-64.3298230753644162
 21
96.6259612855000256
 31
0.0
  0
LINE
  5
FE
100
AcDbEntity
  8
0
 62
7
420
16777215
370
-1
 48
1.0
  6
BYLAYER
100
AcDbLine
 10
-45.2801123610144884
 20
96.6259612855000256
 30
0.0
 11
-32.2791897900145557
 21
96.6259612855000256
 31
0.0
  0
LINE
  5
FF
100
AcDbEntity
  8
0
 62
7
420
16777215
370
-1
 48
1.0
  6
BYLAYER
100
AcDbLine
 10
-32.2791897900145557
 20
96.6259612855000256
 30
0.0
 11
-32.2791897900145557
 21
83.6250387144999507
 31
0.0
  0
LINE
  5
100
100
AcDbEntity
  8
0
 62
7
420
16777215
370
-1
 48
1.0
  6
BYLAYER
100
AcDbLine
 10
-32.2791897900145557
 20
83.6250387144999507
 30
0.0
 11
-45.2801123610144884
 21
83.6250387144999507
 31
0.0
  0
LINE
  5
101
100
AcDbEntity
  8
0
 62
7
420
16777215
370
-1
 48
1.0
  6
BYLAYER
100
AcDbLine
 10
-45.2801123610144884
 20
83.6250387144999507
 30
0.0
 11
-45.2801123610144884
 21
96.6259612855000256
 31
0.0
  0
LINE
  5
102
100
AcDbEntity
  8
0
 62
7
420
16777215
370
-1
 48
1.0
  6
Continuous
100
AcDbLine
 10
-109.5750659321643354
 20
1.3770587511335837
 30
0.0
 11
-109.5750659321643354
 21
-11.6239566769665306
 31
0.0
  0
LINE
  5
103
100
AcDbEntity
  8
0
 62
7
420
16777215
370
-1
 48
1.0
  6
Continuous
100
AcDbLine
 10
-96.5729362188643421
 20
1.3770587511335837
 30
0.0
 11
-96.5729362188643421
 21
-11.6237709627664181
 31
0.0
  0
LINE
  5
104
100
AcDbEntity
  8
0
 62
7
420
16777215
370
-1
 48
1.0
  6
Continuous
100
AcDbLine
 10
-109.5750659321643354
 20
1.3770587511335837
 30
0.0
 11
-96.5729362188643421
 21
1.3770587511335837
 31
0.0
  0
LINE
  5
105
100
AcDbEntity
  8
0
 62
7
420
16777215
370
-1
 48
1.0
  6
Continuous
100
AcDbLine
 10
-109.5750659311951978
 20
-11.6239297129655945
 30
0.0
 11
-96.5729362188643421
 21
-11.6237709627664181
 31
0.0
  0
LINE
  5
106
100
AcDbEntity
  8
0
 62
7
420
16777215
370
-1
 48
1.0
  6
Continuous
100
AcDbLine
 10
-133.3875659321644491
 20
1.3770148566499243
 30
0.0
 11
-120.3854362188644558
 21
1.3770148566499243
 31
0.0
  0
LINE
  5
107
100
AcDbEntity
  8
0
 62
7
420
16777215
370
-1
 48
1.0
  6
Continuous
100
AcDbLine
 10
-133.3875659321644491
 20
-11.6251148566501747
 30
0.0
 11
-120.3854362188644558
 21
-11.6251148566501747
 31
0.0
  0
LINE
  5
108
100
AcDbEntity
  8
0
 62
7
420
16777215
370
-1
 48
1.0
  6
BYLAYER
100
AcDbLine
 10
-65.6166183610144884
 20
-11.6239577140499666
 30
0.0
 11
-65.6166183610144884
 21
1.3770577140500411
 31
0.0
  0
LINE
  5
109
100
AcDbEntity
  8
0
 62
7
420
16777215
370
-1
 48
1.0
  6
BYLAYER
100
AcDbLine
 10
-147.6702437522572495
 20
20.4266577140500445
 30
0.0
 11
-147.6702437522572495
 21
7.4256422859500386
 31
0.0
  0
LINE
  5
10A
100
AcDbEntity
  8
0
 62
7
420
16777215
370
-1
 48
1.0
  6
BYLAYER
100
AcDbLine
 10
19.0835437522580946
 20
-11.6239577140499453
 30
0.0
 11
19.0835437522580946
 21
1.3770577140500619
 31
0.0
  0
LINE
  5
10B
100
AcDbEntity
  8
0
 62
7
420
16777215
370
-1
 48
1.0
  6
BYLAYER
100
AcDbLine
 10
118.0034783987725291
 20
77.5765077140502086
 30
0.0
 11
118.0034783987725291
 21
64.5754922859502045
 31
0.0
  0
LINE
  5
10C
100
AcDbEntity
  8
0
 62
7
420
16777215
370
-1
 48
1.0
  6
BYLAYER
100
AcDbLine
 10
115.622502524111809
 20
39.4749241598149467
 30
0.0
 11
115.622502524111809
 21
26.4739087317149462
 31
0.0
  0
LINE
  5
10D
100
AcDbEntity
  8
0
 62
7
420
16777215
370
-1
 48
1.0
  6
BYLAYER
100
AcDbLine
 10
-63.5916510755145055
 20
1.3770579999999999
 30
0.0
 11
-63.5916510755143918
 21
-12.8735999999999535
 31
0.0
  0
LINE
  5
10E
100
AcDbEntity
  8
0
 62
7
420
16777215
370
-1
 48
1.0
  6
BYLAYER
100
AcDbLine
 10
-149.6952110377572183
 20
7.4256420000000833
 30
0.0
 11
-149.695211037757332
 21
21.6763000000000332
 31
0.0
  0
LINE
  5
10F
100
AcDbEntity
  8
0
 62
7
420
16777215
370
-1
 48
1.0
  6
BYLAYER
100
AcDbLine
 10
21.1085110377580776
 20
1.3770580000000208
 30
0.0
 11
21.1085110377581913
 21
-12.8735999999999322
 31
0.0
  0
LINE
  5
110
100
AcDbEntity
  8
0
 62
7
420
16777215
370
-1
 48
1.0
  6
BYLAYER
100
AcDbLine
 10
115.9785111132725604
 20
64.5754920000002528
 30
0.0
 11
115.9785111132724467
 21
78.8261500000001973
 31
0.0
  0
LINE
  5
111
100
AcDbEntity
  8
0
 62
7
420
16777215
370
-1
 48
1.0
  6
BYLAYER
100
AcDbLine
 10
113.5975352386118402
 20
26.4739084457649945
 30
0.0
 11
113.5975352386117265
 21
40.7245664457649355
 31
0.0
  0
LINE
  5
112
100
AcDbEntity
  8
0
 62
7
420
16777215
370
-1
 48
1.0
  6
BYLAYER
100
AcDbLine
 10
-56.8416510755143918
 20
-12.8735999999999535
 30
0.0
 11
-56.8416510755143918
 21
5.1264000000000465
 31
0.0
  0
LINE
  5
113
100
AcDbEntity
  8
0
 62
7
420
16777215
370
-1
 48
1.0
  6
BYLAYER
100
AcDbLine
 10
-156.445211037757332
 20
21.6763000000000403
 30
0.0
 11
-156.445211037757332
 21
3.6763000000000368
 31
0.0
  0
LINE
  5
114
100
AcDbEntity
  8
0
 62
7
420
16777215
370
-1
 48
1.0
  6
BYLAYER
100
AcDbLine
 10
27.8585110377581913
 20
-12.8735999999999322
 30
0.0
 11
27.8585110377581913
 21
5.1264000000000678
 31
0.0
  0
LINE
  5
115
100
AcDbEntity
  8
0
 62
7
420
16777215
370
-1
 48
1.0
  6
BYLAYER
100
AcDbLine
 10
109.2285111132724467
 20
78.8261500000002115
 30
0.0
 11
109.2285111132724467
 21
60.8261500000002115
 31
0.0
  0
LINE
  5
116
100
AcDbEntity
  8
0
 62
7
420
16777215
370
-1
 48
1.0
  6
BYLAYER
100
AcDbLine
 10
106.8475352386117265
 20
40.7245664457649497
 30
0.0
 11
106.8475352386117265
 21
22.7245664457649532
 31
0.0
  0
LINE
  5
117
100
AcDbEntity
  8
0
 62
7
420
16777215
370
-1
 48
1.0
  6
BYLAYER
100
AcDbLine
 10
-56.8416509999999988
 20
5.1264000000001602
 30
0.0
 11
-87.3906510755144836
 21
5.1264000000000465
 31
0.0
  0
LINE
  5
118
100
AcDbEntity
  8
0
 62
7
420
16777215
370
-1
 48
1.0
  6
BYLAYER
100
AcDbLine
 10
-156.4452111132717391
 20
3.6762999999999249
 30
0.0
 11
-125.8962110377572401
 21
3.6763000000000385
 31
0.0
  0
LINE
  5
119
100
AcDbEntity
  8
0
 62
7
420
16777215
370
-1
 48
1.0
  6
BYLAYER
100
AcDbLine
 10
27.8585111132725842
 20
5.1264000000001815
 30
0.0
 11
-2.6904889622419024
 21
5.1264000000000678
 31
0.0
  0
LINE
  5
11A
100
AcDbEntity
  8
0
 62
7
420
16777215
370
-1
 48
1.0
  6
BYLAYER
100
AcDbLine
 10
109.2285110377580395
 20
60.8261500000000979
 30
0.0
 11
139.7775111132725385
 21
60.8261500000002115
 31
0.0
  0
LINE
  5
11B
100
AcDbEntity
  8
0
 62
7
420
16777215
370
-1
 48
1.0
  6
BYLAYER
100
AcDbLine
 10
106.8475351630973194
 20
22.7245664457648395
 30
0.0
 11
137.3965352386118184
 21
22.7245664457649532
 31
0.0
  0
LINE
  5
11C
100
AcDbEntity
  8
0
 62
7
420
16777215
370
-1
 48
1.0
  6
BYLAYER
100
AcDbLine
 10
-87.3906510755144836
 20
5.1264000000000465
 30
0.0
 11
-87.3906510755144836
 21
-12.8735999999999535
 31
0.0
  0
LINE
  5
11D
100
AcDbEntity
  8
0
 62
7
420
16777215
370
-1
 48
1.0
  6
BYLAYER
100
AcDbLine
 10
-125.8962110377572401
 20
3.6763000000000385
 30
0.0
 11
-125.8962110377572259
 21
21.6763000000000261
 31
0.0
  0
LINE
  5
11E
100
AcDbEntity
  8
0
 62
7
420
16777215
370
-1
 48
1.0
  6
BYLAYER
100
AcDbLine
 10
-2.6904889622419024
 20
5.1264000000000678
 30
0.0
 11
-2.6904889622419024
 21
-12.8735999999999322
 31
0.0
  0
LINE
  5
11F
100
AcDbEntity
  8
0
 62
7
420
16777215
370
-1
 48
1.0
  6
BYLAYER
100
AcDbLine
 10
139.7775111132725385
 20
60.8261500000002115
 30
0.0
 11
139.7775111132725669
 21
78.8261500000001973
 31
0.0
  0
LINE
  5
120
100
AcDbEntity
  8
0
 62
7
420
16777215
370
-1
 48
1.0
  6
BYLAYER
100
AcDbLine
 10
137.3965352386118184
 20
22.7245664457649532
 30
0.0
 11
137.3965352386118468
 21
40.7245664457649355
 31
0.0
  0
LINE
  5
121
100
AcDbEntity
  8
0
 62
7
420
16777215
370
-1
 48
1.0
  6
BYLAYER
100
AcDbLine
 10
-80.64165107551446
 20
-12.8735999999999535
 30
0.0
 11
-80.64165107551446
 21
1.3770579999999999
 31
0.0
  0
LINE
  5
122
100
AcDbEntity
  8
0
 62
7
420
16777215
370
-1
 48
1.0
  6
BYLAYER
100
AcDbLine
 10
-132.6452110377572637
 20
21.6763000000000261
 30
0.0
 11
-132.6452110377572637
 21
7.4256420000000798
 31
0.0
  0
LINE
  5
123
100
AcDbEntity
  8
0
 62
7
420
16777215
370
-1
 48
1.0
  6
BYLAYER
100
AcDbLine
 10
4.0585110377581213
 20
-12.8735999999999322
 30
0.0
 11
4.0585110377581213
 21
1.3770580000000208
 31
0.0
  0
LINE
  5
124
100
AcDbEntity
  8
0
 62
7
420
16777215
370
-1
 48
1.0
  6
BYLAYER
100
AcDbLine
 10
133.0285111132725149
 20
78.8261500000001973
 30
0.0
 11
133.0285111132725149
 21
64.5754920000002528
 31
0.0
  0
LINE
  5
125
100
AcDbEntity
  8
0
 62
7
420
16777215
370
-1
 48
1.0
  6
BYLAYER
100
AcDbLine
 10
130.6475352386117947
 20
40.7245664457649355
 30
0.0
 11
130.6475352386117947
 21
26.4739084457649945
 31
0.0
  0
LINE
  5
126
100
AcDbEntity
  8
0
 62
7
420
16777215
370
-1
 48
1.0
  6
BYLAYER
100
AcDbLine
 10
-78.6156837900145007
 20
-11.6239577140499666
 30
0.0
 11
-65.6166183610144884
 21
-11.6239577140499666
 31
0.0
  0
LINE
  5
127
100
AcDbEntity
  8
0
 62
7
420
16777215
370
-1
 48
1.0
  6
BYLAYER
100
AcDbLine
 10
-134.6711783232572088
 20
20.4266577140500445
 30
0.0
 11
-147.6702437522572495
 21
20.4266577140500445
 31
0.0
  0
LINE
  5
128
100
AcDbEntity
  8
0
 62
7
420
16777215
370
-1
 48
1.0
  6
BYLAYER
100
AcDbLine
 10
6.0844783232580806
 20
-11.6239577140499453
 30
0.0
 11
19.0835437522580946
 21
-11.6239577140499453
 31
0.0
  0
LINE
  5
129
100
AcDbEntity
  8
0
 62
7
420
16777215
370
-1
 48
1.0
  6
BYLAYER
100
AcDbLine
 10
131.0025438277725698
 20
77.5765077140502086
 30
0.0
 11
118.0034783987725291
 21
77.5765077140502086
 31
0.0
  0
LINE
  5
12A
100
AcDbEntity
  8
0
 62
7
420
16777215
370
-1
 48
1.0
  6
BYLAYER
100
AcDbLine
 10
128.6215679531118496
 20
39.4749241598149467
 30
0.0
 11
115.622502524111809
 21
39.4749241598149467
 31
0.0
  0
LINE
  5
12B
100
AcDbEntity
  8
0
 62
7
420
16777215
370
-1
 48
1.0
  6
Continuous
100
AcDbLine
 10
-78.6156837900145007
 20
1.3770577140500411
 30
0.0
 11
-78.6156837900145007
 21
-11.6239577140499666
 31
0.0
  0
LINE
  5
12C
100
AcDbEntity
  8
0
 62
7
420
16777215
370
-1
 48
1.0
  6
Continuous
100
AcDbLine
 10
-134.6711783232572373
 20
7.4256422859500386
 30
0.0
 11
-134.6711783232572088
 21
20.4266577140500445
 31
0.0
  0
LINE
  5
12D
100
AcDbEntity
  8
0
 62
7
420
16777215
370
-1
 48
1.0
  6
Continuous
100
AcDbLine
 10
6.0844783232580806
 20
1.3770577140500619
 30
0.0
 11
6.0844783232580806
 21
-11.6239577140499453
 31
0.0
  0
LINE
  5
12E
100
AcDbEntity
  8
0
 62
7
420
16777215
370
-1
 48
1.0
  6
Continuous
100
AcDbLine
 10
131.0025438277725414
 20
64.5754922859502045
 30
0.0
 11
131.0025438277725698
 21
77.5765077140502086
 31
0.0
  0
LINE
  5
12F
100
AcDbEntity
  8
0
 62
7
420
16777215
370
-1
 48
1.0
  6
Continuous
100
AcDbLine
 10
128.6215679531118212
 20
26.4739087317149462
 30
0.0
 11
128.6215679531118496
 21
39.4749241598149467
 31
0.0
  0
LINE
  5
130
100
AcDbEntity
  8
0
 62
7
420
16777215
370
-1
 48
1.0
  6
BYLAYER
100
AcDbLine
 10
-87.3906510755144836
 20
-12.8735999999999535
 30
0.0
 11
-80.6406510755143699
 21
-12.8735999999999535
 31
0.0
  0
LINE
  5
131
100
AcDbEntity
  8
0
 62
7
420
16777215
370
-1
 48
1.0
  6
BYLAYER
100
AcDbLine
 10
-125.8962110377572259
 20
21.6763000000000261
 30
0.0
 11
-132.6462110377573538
 21
21.6763000000000261
 31
0.0
  0
LINE
  5
132
100
AcDbEntity
  8
0
 62
7
420
16777215
370
-1
 48
1.0
  6
BYLAYER
100
AcDbLine
 10
-2.6904889622419024
 20
-12.8735999999999322
 30
0.0
 11
4.0595110377582113
 21
-12.8735999999999322
 31
0.0
  0
LINE
  5
133
100
AcDbEntity
  8
0
 62
7
420
16777215
370
-1
 48
1.0
  6
BYLAYER
100
AcDbLine
 10
139.7775111132725669
 20
78.8261500000001973
 30
0.0
 11
133.0275111132724248
 21
78.8261500000001973
 31
0.0
  0
LINE
  5
134
100
AcDbEntity
  8
0
 62
7
420
16777215
370
-1
 48
1.0
  6
BYLAYER
100
AcDbLine
 10
137.3965352386118468
 20
40.7245664457649355
 30
0.0
 11
130.6465352386117047
 21
40.7245664457649355
 31
0.0
  0
LINE
  5
135
100
AcDbEntity
  8
0
 62
7
420
16777215
370
-1
 48
1.0
  6
BYLAYER
100
AcDbLine
 10
-63.5906510755144154
 20
-12.8735999999999535
 30
0.0
 11
-56.8416510755143918
 21
-12.8735999999999535
 31
0.0
  0
LINE
  5
136
100
AcDbEntity
  8
0
 62
7
420
16777215
370
-1
 48
1.0
  6
BYLAYER
100
AcDbLine
 10
-149.6962110377573083
 20
21.6763000000000403
 30
0.0
 11
-156.445211037757332
 21
21.6763000000000403
 31
0.0
  0
LINE
  5
137
100
AcDbEntity
  8
0
 62
7
420
16777215
370
-1
 48
1.0
  6
BYLAYER
100
AcDbLine
 10
21.1095110377581676
 20
-12.8735999999999322
 30
0.0
 11
27.8585110377581913
 21
-12.8735999999999322
 31
0.0
  0
LINE
  5
138
100
AcDbEntity
  8
0
 62
7
420
16777215
370
-1
 48
1.0
  6
BYLAYER
100
AcDbLine
 10
115.9775111132724703
 20
78.8261500000002115
 30
0.0
 11
109.2285111132724467
 21
78.8261500000002115
 31
0.0
  0
LINE
  5
139
100
AcDbEntity
  8
0
 62
7
420
16777215
370
-1
 48
1.0
  6
BYLAYER
100
AcDbLine
 10
113.5965352386117502
 20
40.7245664457649497
 30
0.0
 11
106.8475352386117265
 21
40.7245664457649497
 31
0.0
  0
LINE
  5
13A
100
AcDbEntity
  8
0
 62
7
420
16777215
370
-1
 48
1.0
  6
BYLAYER
100
AcDbLine
 10
-127.5291290753643949
 20
83.6250387144999507
 30
0.0
 11
-140.5284730756644649
 21
83.6250387144999507
 31
0.0
  0
LINE
  5
13B
100
AcDbEntity
  8
0
 62
7
420
16777215
370
-1
 48
1.0
  6
BYLAYER
100
AcDbLine
 10
-108.4791290753644404
 20
96.6259612855000256
 30
0.0
 11
-108.4791290753644404
 21
83.6250387144999507
 31
0.0
  0
LINE
  5
13C
100
AcDbEntity
  8
0
 62
7
420
16777215
370
-1
 48
1.0
  6
BYLAYER
100
AcDbLine
 10
-121.4784730756644962
 20
83.6250387144999507
 30
0.0
 11
-121.4784730756644962
 21
96.6259612855000256
 31
0.0
  0
LINE
  5
13D
100
AcDbEntity
  8
0
 62
7
420
16777215
370
-1
 48
1.0
  6
Continuous
100
AcDbLine
 10
75.140513999999996
 20
1.3770648569500414
 30
0.0
 11
88.1405080000000112
 21
1.3770648569500414
 31
0.0
  0
LINE
  5
13E
100
AcDbEntity
  8
0
 62
7
420
16777215
370
-1
 48
1.0
  6
BYLAYER
100
AcDbLine
 10
59.5655080755153321
 20
1.3770648569501924
 30
0.0
 11
59.5655080755153321
 21
-11.6248791421497941
 31
0.0
  0
LINE
  5
13F
100
AcDbEntity
  8
0
 62
7
420
16777215
370
-1
 48
1.0
  6
BYLAYER
100
AcDbLine
 10
108.4765497900153406
 20
1.3770219995500987
 30
0.0
 11
121.4774723610153444
 21
1.3770219995500987
 31
0.0
  0
LINE
  5
140
100
AcDbEntity
  8
0
 62
7
420
16777215
370
-1
 48
1.0
  6
BYLAYER
100
AcDbLine
 10
121.4774723610153444
 20
1.3770219995500987
 30
0.0
 11
121.4774723610153444
 21
-11.6249219995498869
 31
0.0
  0
LINE
  5
141
100
AcDbEntity
  8
0
 62
7
420
16777215
370
-1
 48
1.0
  6
BYLAYER
100
AcDbLine
 10
121.4774723610153444
 20
-11.6249219995498869
 30
0.0
 11
108.4765497900153406
 21
-11.6249219995498869
 31
0.0
  0
LINE
  5
142
100
AcDbEntity
  8
0
 62
7
420
16777215
370
-1
 48
1.0
  6
BYLAYER
100
AcDbLine
 10
108.4765497900153406
 20
-11.6249219995498869
 30
0.0
 11
108.4765497900153406
 21
1.3770219995500987
 31
0.0
  0
LINE
  5
143
100
AcDbEntity
  8
0
 62
7
420
16777215
370
-1
 48
1.0
  6
BYLAYER
100
AcDbLine
 10
127.5265497900153235
 20
1.3770219995500987
 30
0.0
 11
140.5274723610154126
 21
1.3770219995500987
 31
0.0
  0
LINE
  5
144
100
AcDbEntity
  8
0
 62
7
420
16777215
370
-1
 48
1.0
  6
BYLAYER
100
AcDbLine
 10
140.5274723610154126
 20
1.3770219995500987
 30
0.0
 11
140.5274723610154126
 21
-11.6249219995498869
 31
0.0
  0
LINE
  5
145
100
AcDbEntity
  8
0
 62
7
420
16777215
370
-1
 48
1.0
  6
BYLAYER
100
AcDbLine
 10
140.5274723610154126
 20
-11.6249219995498869
 30
0.0
 11
127.5265497900153235
 21
-11.6249219995498869
 31
0.0
  0
LINE
  5
146
100
AcDbEntity
  8
0
 62
7
420
16777215
370
-1
 48
1.0
  6
BYLAYER
100
AcDbLine
 10
127.5265497900153235
 20
-11.6249219995498869
 30
0.0
 11
127.5265497900153235
 21
1.3770219995500987
 31
0.0
  0
LINE
  5
147
100
AcDbEntity
  8
0
 62
7
420
16777215
370
-1
 48
1.0
  6
BYLAYER
100
AcDbLine
 10
146.5784783610153283
 20
1.3770219995500987
 30
0.0
 11
159.577543790015369
 21
1.3770219995500987
 31
0.0
  0
LINE
  5
148
100
AcDbEntity
  8
0
 62
7
420
16777215
370
-1
 48
1.0
  6
BYLAYER
100
AcDbLine
 10
159.577543790015369
 20
1.3770219995500987
 30
0.0
 11
159.577543790015369
 21
-11.6249219995498869
 31
0.0
  0
LINE
  5
149
100
AcDbEntity
  8
0
 62
7
420
16777215
370
-1
 48
1.0
  6
BYLAYER
100
AcDbLine
 10
159.577543790015369
 20
-11.6249219995498869
 30
0.0
 11
146.5784783610153283
 21
-11.6249219995498869
 31
0.0
  0
LINE
  5
14A
100
AcDbEntity
  8
0
 62
7
420
16777215
370
-1
 48
1.0
  6
BYLAYER
100
AcDbLine
 10
146.5784783610153283
 20
-11.6249219995498869
 30
0.0
 11
146.5784783610153283
 21
1.3770219995500987
 31
0.0
  0
LINE
  5
14B
100
AcDbEntity
  8
0
 62
7
420
16777215
370
-1
 48
1.0
  6
BYLAYER
100
AcDbLine
 10
-1.0594859244847541
 20
20.4256719998501204
 30
0.0
 11
11.9405080755152468
 21
20.4256719998501204
 31
0.0
  0
LINE
  5
14C
100
AcDbEntity
  8
0
 62
7
420
16777215
370
-1
 48
1.0
  6
BYLAYER
100
AcDbLine
 10
11.9405080755152468
 20
20.4256719998501204
 30
0.0
 11
11.9405080755152468
 21
7.4250280001501245
 31
0.0
  0
LINE
  5
14D
100
AcDbEntity
  8
0
 62
7
420
16777215
370
-1
 48
1.0
  6
BYLAYER
100
AcDbLine
 10
11.9405080755152468
 20
7.4250280001501245
 30
0.0
 11
-1.0594859244847541
 21
7.4250280001501245
 31
0.0
  0
LINE
  5
14E
100
AcDbEntity
  8
0
 62
7
420
16777215
370
-1
 48
1.0
  6
BYLAYER
100
AcDbLine
 10
-1.0594859244847541
 20
7.4250280001501245
 30
0.0
 11
-1.0594859244847541
 21
20.4256719998501204
 31
0.0
  0
LINE
  5
14F
100
AcDbEntity
  8
0
 62
7
420
16777215
370
-1
 48
1.0
  6
BYLAYER
100
AcDbLine
 10
17.9905140755153425
 20
20.4256719998501204
 30
0.0
 11
30.9905080755153435
 21
20.4256719998501204
 31
0.0
  0
LINE
  5
150
100
AcDbEntity
  8
0
 62
7
420
16777215
370
-1
 48
1.0
  6
BYLAYER
100
AcDbLine
 10
30.9905080755153435
 20
20.4256719998501204
 30
0.0
 11
30.9905080755153435
 21
7.4250280001501245
 31
0.0
  0
LINE
  5
151
100
AcDbEntity
  8
0
 62
7
420
16777215
370
-1
 48
1.0
  6
BYLAYER
100
AcDbLine
 10
30.9905080755153435
 20
7.4250280001501245
 30
0.0
 11
17.9905140755153425
 21
7.4250280001501245
 31
0.0
  0
LINE
  5
152
100
AcDbEntity
  8
0
 62
7
420
16777215
370
-1
 48
1.0
  6
BYLAYER
100
AcDbLine
 10
17.9905140755153425
 20
7.4250280001501245
 30
0.0
 11
17.9905140755153425
 21
20.4256719998501204
 31
0.0
  0
LINE
  5
153
100
AcDbEntity
  8
0
 62
7
420
16777215
370
-1
 48
1.0
  6
BYLAYER
100
AcDbLine
 10
37.0405140755153255
 20
20.4256719998501204
 30
0.0
 11
50.0405080755153264
 21
20.4256719998501204
 31
0.0
  0
LINE
  5
154
100
AcDbEntity
  8
0
 62
7
420
16777215
370
-1
 48
1.0
  6
BYLAYER
100
AcDbLine
 10
50.0405080755153264
 20
20.4256719998501204
 30
0.0
 11
50.0405080755153264
 21
7.4250280001501245
 31
0.0
  0
LINE
  5
155
100
AcDbEntity
  8
0
 62
7
420
16777215
370
-1
 48
1.0
  6
BYLAYER
100
AcDbLine
 10
50.0405080755153264
 20
7.4250280001501245
 30
0.0
 11
37.0405140755153255
 21
7.4250280001501245
 31
0.0
  0
LINE
  5
156
100
AcDbEntity
  8
0
 62
7
420
16777215
370
-1
 48
1.0
  6
BYLAYER
100
AcDbLine
 10
37.0405140755153255
 20
7.4250280001501245
 30
0.0
 11
37.0405140755153255
 21
20.4256719998501204
 31
0.0
  0
LINE
  5
157
100
AcDbEntity
  8
0
 62
7
420
16777215
370
-1
 48
1.0
  6
BYLAYER
100
AcDbLine
 10
56.090514075515344
 20
20.4256719998501204
 30
0.0
 11
69.090508075515416
 21
20.4256719998501204
 31
0.0
  0
LINE
  5
158
100
AcDbEntity
  8
0
 62
7
420
16777215
370
-1
 48
1.0
  6
BYLAYER
100
AcDbLine
 10
69.090508075515416
 20
20.4256719998501204
 30
0.0
 11
69.090508075515416
 21
7.4250280001501245
 31
0.0
  0
LINE
  5
159
100
AcDbEntity
  8
0
 62
7
420
16777215
370
-1
 48
1.0
  6
BYLAYER
100
AcDbLine
 10
69.090508075515416
 20
7.4250280001501245
 30
0.0
 11
56.090514075515344
 21
7.4250280001501245
 31
0.0
  0
LINE
  5
15A
100
AcDbEntity
  8
0
 62
7
420
16777215
370
-1
 48
1.0
  6
BYLAYER
100
AcDbLine
 10
56.090514075515344
 20
7.4250280001501245
 30
0.0
 11
56.090514075515344
 21
20.4256719998501204
 31
0.0
  0
LINE
  5
15B
100
AcDbEntity
  8
0
 62
7
420
16777215
370
-1
 48
1.0
  6
BYLAYER
100
AcDbLine
 10
75.1405140755153127
 20
20.4256719998501204
 30
0.0
 11
88.1405080755153278
 21
20.4256719998501204
 31
0.0
  0
LINE
  5
15C
100
AcDbEntity
  8
0
 62
7
420
16777215
370
-1
 48
1.0
  6
BYLAYER
100
AcDbLine
 10
88.1405080755153278
 20
20.4256719998501204
 30
0.0
 11
88.1405080755153278
 21
7.4250280001501245
 31
0.0
  0
LINE
  5
15D
100
AcDbEntity
  8
0
 62
7
420
16777215
370
-1
 48
1.0
  6
BYLAYER
100
AcDbLine
 10
88.1405080755153278
 20
7.4250280001501245
 30
0.0
 11
75.1405140755153127
 21
7.4250280001501245
 31
0.0
  0
LINE
  5
15E
100
AcDbEntity
  8
0
 62
7
420
16777215
370
-1
 48
1.0
  6
BYLAYER
100
AcDbLine
 10
75.1405140755153127
 20
7.4250280001501245
 30
0.0
 11
75.1405140755153127
 21
20.4256719998501204
 31
0.0
  0
LINE
  5
15F
100
AcDbEntity
  8
0
 62
7
420
16777215
370
-1
 48
1.0
  6
BYLAYER
100
AcDbLine
 10
101.3344783610153286
 20
20.4256719998501204
 30
0.0
 11
114.3335437900153266
 21
20.4256719998501204
 31
0.0
  0
LINE
  5
160
100
AcDbEntity
  8
0
 62
7
420
16777215
370
-1
 48
1.0
  6
BYLAYER
100
AcDbLine
 10
114.3335437900153266
 20
20.4256719998501204
 30
0.0
 11
114.3335437900153266
 21
7.4250280001501245
 31
0.0
  0
LINE
  5
161
100
AcDbEntity
  8
0
 62
7
420
16777215
370
-1
 48
1.0
  6
BYLAYER
100
AcDbLine
 10
114.3335437900153266
 20
7.4250280001501245
 30
0.0
 11
101.3344783610153286
 21
7.4250280001501245
 31
0.0
  0
LINE
  5
162
100
AcDbEntity
  8
0
 62
7
420
16777215
370
-1
 48
1.0
  6
BYLAYER
100
AcDbLine
 10
101.3344783610153286
 20
7.4250280001501245
 30
0.0
 11
101.3344783610153286
 21
20.4256719998501204
 31
0.0
  0
LINE
  5
163
100
AcDbEntity
  8
0
 62
7
420
16777215
370
-1
 48
1.0
  6
BYLAYER
100
AcDbLine
 10
127.5284783610153312
 20
20.4256719998501204
 30
0.0
 11
140.5275437900154145
 21
20.4256719998501204
 31
0.0
  0
LINE
  5
164
100
AcDbEntity
  8
0
 62
7
420
16777215
370
-1
 48
1.0
  6
BYLAYER
100
AcDbLine
 10
140.5275437900154145
 20
20.4256719998501204
 30
0.0
 11
140.5275437900154145
 21
7.4250280001501245
 31
0.0
  0
LINE
  5
165
100
AcDbEntity
  8
0
 62
7
420
16777215
370
-1
 48
1.0
  6
BYLAYER
100
AcDbLine
 10
140.5275437900154145
 20
7.4250280001501245
 30
0.0
 11
127.5284783610153312
 21
7.4250280001501245
 31
0.0
  0
LINE
  5
166
100
AcDbEntity
  8
0
 62
7
420
16777215
370
-1
 48
1.0
  6
BYLAYER
100
AcDbLine
 10
127.5284783610153312
 20
7.4250280001501245
 30
0.0
 11
127.5284783610153312
 21
20.4256719998501204
 31
0.0
  0
LINE
  5
167
100
AcDbEntity
  8
0
 62
7
420
16777215
370
-1
 48
1.0
  6
BYLAYER
100
AcDbLine
 10
146.5784783610153283
 20
20.4256719998501204
 30
0.0
 11
159.577543790015369
 21
20.4256719998501204
 31
0.0
  0
LINE
  5
168
100
AcDbEntity
  8
0
 62
7
420
16777215
370
-1
 48
1.0
  6
BYLAYER
100
AcDbLine
 10
159.577543790015369
 20
20.4256719998501204
 30
0.0
 11
159.577543790015369
 21
7.4250280001501245
 31
0.0
  0
LINE
  5
169
100
AcDbEntity
  8
0
 62
7
420
16777215
370
-1
 48
1.0
  6
BYLAYER
100
AcDbLine
 10
159.577543790015369
 20
7.4250280001501245
 30
0.0
 11
146.5784783610153283
 21
7.4250280001501245
 31
0.0
  0
LINE
  5
16A
100
AcDbEntity
  8
0
 62
7
420
16777215
370
-1
 48
1.0
  6
BYLAYER
100
AcDbLine
 10
146.5784783610153283
 20
7.4250280001501245
 30
0.0
 11
146.5784783610153283
 21
20.4256719998501204
 31
0.0
  0
LINE
  5
16B
100
AcDbEntity
  8
0
 62
7
420
16777215
370
-1
 48
1.0
  6
BYLAYER
100
AcDbLine
 10
-10.5844859244846745
 20
39.4756719998501353
 30
0.0
 11
2.4155080755153264
 21
39.4756719998501353
 31
0.0
  0
LINE
  5
16C
100
AcDbEntity
  8
0
 62
7
420
16777215
370
-1
 48
1.0
  6
BYLAYER
100
AcDbLine
 10
2.4155080755153264
 20
39.4756719998501353
 30
0.0
 11
2.4155080755153264
 21
26.4750280001501359
 31
0.0
  0
LINE
  5
16D
100
AcDbEntity
  8
0
 62
7
420
16777215
370
-1
 48
1.0
  6
BYLAYER
100
AcDbLine
 10
2.4155080755153264
 20
26.4750280001501359
 30
0.0
 11
-1.0594859999999999
 21
26.4750280001501359
 31
0.0
  0
LINE
  5
16E
100
AcDbEntity
  8
0
 62
7
420
16777215
370
-1
 48
1.0
  6
BYLAYER
100
AcDbLine
 10
-10.5844859244846745
 20
27.2750279999999989
 30
0.0
 11
-10.5844859244846745
 21
39.4756719998501353
 31
0.0
  0
LINE
  5
16F
100
AcDbEntity
  8
0
 62
7
420
16777215
370
-1
 48
1.0
  6
BYLAYER
100
AcDbLine
 10
8.4655140755153369
 20
39.4756719998501353
 30
0.0
 11
21.4655080755153378
 21
39.4756719998501353
 31
0.0
  0
LINE
  5
170
100
AcDbEntity
  8
0
 62
7
420
16777215
370
-1
 48
1.0
  6
BYLAYER
100
AcDbLine
 10
21.4655080755153378
 20
39.4756719998501353
 30
0.0
 11
21.4655080755153378
 21
26.4750280001501359
 31
0.0
  0
LINE
  5
171
100
AcDbEntity
  8
0
 62
7
420
16777215
370
-1
 48
1.0
  6
BYLAYER
100
AcDbLine
 10
21.4655080755153378
 20
26.4750280001501359
 30
0.0
 11
8.4655140755153369
 21
26.4750280001501359
 31
0.0
  0
LINE
  5
172
100
AcDbEntity
  8
0
 62
7
420
16777215
370
-1
 48
1.0
  6
BYLAYER
100
AcDbLine
 10
8.4655140755153369
 20
26.4750280001501359
 30
0.0
 11
8.4655140755153369
 21
39.4756719998501353
 31
0.0
  0
LINE
  5
173
100
AcDbEntity
  8
0
 62
7
420
16777215
370
-1
 48
1.0
  6
BYLAYER
100
AcDbLine
 10
27.5155140755153198
 20
39.4756719998501353
 30
0.0
 11
40.5155080755153207
 21
39.4756719998501353
 31
0.0
  0
LINE
  5
174
100
AcDbEntity
  8
0
 62
7
420
16777215
370
-1
 48
1.0
  6
BYLAYER
100
AcDbLine
 10
40.5155080755153207
 20
39.4756719998501353
 30
0.0
 11
40.5155080755153207
 21
26.4750280001501359
 31
0.0
  0
LINE
  5
175
100
AcDbEntity
  8
0
 62
7
420
16777215
370
-1
 48
1.0
  6
BYLAYER
100
AcDbLine
 10
40.5155080755153207
 20
26.4750280001501359
 30
0.0
 11
27.5155140755153198
 21
26.4750280001501359
 31
0.0
  0
LINE
  5
176
100
AcDbEntity
  8
0
 62
7
420
16777215
370
-1
 48
1.0
  6
BYLAYER
100
AcDbLine
 10
27.5155140755153198
 20
26.4750280001501359
 30
0.0
 11
27.5155140755153198
 21
39.4756719998501353
 31
0.0
  0
LINE
  5
177
100
AcDbEntity
  8
0
 62
7
420
16777215
370
-1
 48
1.0
  6
BYLAYER
100
AcDbLine
 10
46.565514075515253
 20
39.4756719998501353
 30
0.0
 11
59.565508075515325
 21
39.4756719998501353
 31
0.0
  0
LINE
  5
178
100
AcDbEntity
  8
0
 62
7
420
16777215
370
-1
 48
1.0
  6
BYLAYER
100
AcDbLine
 10
59.565508075515325
 20
39.4756719998501353
 30
0.0
 11
59.565508075515325
 21
26.4750280001501359
 31
0.0
  0
LINE
  5
179
100
AcDbEntity
  8
0
 62
7
420
16777215
370
-1
 48
1.0
  6
BYLAYER
100
AcDbLine
 10
59.565508075515325
 20
26.4750280001501359
 30
0.0
 11
46.565514075515253
 21
26.4750280001501359
 31
0.0
  0
LINE
  5
17A
100
AcDbEntity
  8
0
 62
7
420
16777215
370
-1
 48
1.0
  6
BYLAYER
100
AcDbLine
 10
46.565514075515253
 20
26.4750280001501359
 30
0.0
 11
46.565514075515253
 21
39.4756719998501353
 31
0.0
  0
LINE
  5
17B
100
AcDbEntity
  8
0
 62
7
420
16777215
370
-1
 48
1.0
  6
BYLAYER
100
AcDbLine
 10
65.6155140755153354
 20
39.4756719998501353
 30
0.0
 11
78.6155080755153506
 21
39.4756719998501353
 31
0.0
  0
LINE
  5
17C
100
AcDbEntity
  8
0
 62
7
420
16777215
370
-1
 48
1.0
  6
BYLAYER
100
AcDbLine
 10
78.6155080755153506
 20
39.4756719998501353
 30
0.0
 11
78.6155080755153506
 21
26.4750280001501359
 31
0.0
  0
LINE
  5
17D
100
AcDbEntity
  8
0
 62
7
420
16777215
370
-1
 48
1.0
  6
BYLAYER
100
AcDbLine
 10
78.6155080755153506
 20
26.4750280001501359
 30
0.0
 11
65.6155140755153354
 21
26.4750280001501359
 31
0.0
  0
LINE
  5
17E
100
AcDbEntity
  8
0
 62
7
420
16777215
370
-1
 48
1.0
  6
BYLAYER
100
AcDbLine
 10
65.6155140755153354
 20
26.4750280001501359
 30
0.0
 11
65.6155140755153354
 21
39.4756719998501353
 31
0.0
  0
LINE
  5
17F
100
AcDbEntity
  8
0
 62
7
420
16777215
370
-1
 48
1.0
  6
BYLAYER
100
AcDbLine
 10
84.6655140755153184
 20
39.4756719998501353
 30
0.0
 11
97.6655080755153335
 21
39.4756719998501353
 31
0.0
  0
LINE
  5
180
100
AcDbEntity
  8
0
 62
7
420
16777215
370
-1
 48
1.0
  6
BYLAYER
100
AcDbLine
 10
97.6655080755153335
 20
39.4756719998501353
 30
0.0
 11
97.6655080755153335
 21
26.4750280001501359
 31
0.0
  0
LINE
  5
181
100
AcDbEntity
  8
0
 62
7
420
16777215
370
-1
 48
1.0
  6
BYLAYER
100
AcDbLine
 10
97.6655080755153335
 20
26.4750280001501359
 30
0.0
 11
84.6655140755153184
 21
26.4750280001501359
 31
0.0
  0
LINE
  5
182
100
AcDbEntity
  8
0
 62
7
420
16777215
370
-1
 48
1.0
  6
BYLAYER
100
AcDbLine
 10
84.6655140755153184
 20
26.4750280001501359
 30
0.0
 11
84.6655140755153184
 21
39.4756719998501353
 31
0.0
  0
LINE
  5
183
100
AcDbEntity
  8
0
 62
7
420
16777215
370
-1
 48
1.0
  6
BYLAYER
100
AcDbLine
 10
146.5784783610153283
 20
39.4756719998501353
 30
0.0
 11
159.577543790015369
 21
39.4756719998501353
 31
0.0
  0
LINE
  5
184
100
AcDbEntity
  8
0
 62
7
420
16777215
370
-1
 48
1.0
  6
BYLAYER
100
AcDbLine
 10
159.577543790015369
 20
39.4756719998501353
 30
0.0
 11
159.577543790015369
 21
26.4750280001501359
 31
0.0
  0
LINE
  5
185
100
AcDbEntity
  8
0
 62
7
420
16777215
370
-1
 48
1.0
  6
BYLAYER
100
AcDbLine
 10
159.577543790015369
 20
26.4750280001501359
 30
0.0
 11
146.5784783610153283
 21
26.4750280001501359
 31
0.0
  0
LINE
  5
186
100
AcDbEntity
  8
0
 62
7
420
16777215
370
-1
 48
1.0
  6
BYLAYER
100
AcDbLine
 10
146.5784783610153283
 20
26.4750280001501359
 30
0.0
 11
146.5784783610153283
 21
39.4756719998501353
 31
0.0
  0
LINE
  5
187
100
AcDbEntity
  8
0
 62
7
420
16777215
370
-1
 48
1.0
  6
BYLAYER
100
AcDbLine
 10
-5.8215219999999999
 20
58.5259612855001237
 30
0.0
 11
-2.3474562099847605
 21
58.5259612855001237
 31
0.0
  0
LINE
  5
188
100
AcDbEntity
  8
0
 62
7
420
16777215
370
-1
 48
1.0
  6
BYLAYER
100
AcDbLine
 10
-2.3474562099847605
 20
58.5259612855001237
 30
0.0
 11
-2.3474562099847605
 21
45.5250387145000346
 31
0.0
  0
LINE
  5
189
100
AcDbEntity
  8
0
 62
7
420
16777215
370
-1
 48
1.0
  6
BYLAYER
100
AcDbLine
 10
-2.3474562099847605
 20
45.5250387145000346
 30
0.0
 11
-10.5844860000000001
 21
45.5250387145000346
 31
0.0
  0
LINE
  5
18A
100
AcDbEntity
  8
0
 62
7
420
16777215
370
-1
 48
1.0
  6
BYLAYER
100
AcDbLine
 10
-15.3465216389846653
 20
46.3250389999999967
 30
0.0
 11
-15.3465216389846653
 21
57.7259609999999981
 31
0.0
  0
LINE
  5
18B
100
AcDbEntity
  8
0
 62
7
420
16777215
370
-1
 48
1.0
  6
BYLAYER
100
AcDbLine
 10
3.7034783610153363
 20
58.5259612855001237
 30
0.0
 11
16.7025437900153335
 21
58.5259612855001237
 31
0.0
  0
LINE
  5
18C
100
AcDbEntity
  8
0
 62
7
420
16777215
370
-1
 48
1.0
  6
BYLAYER
100
AcDbLine
 10
16.7025437900153335
 20
58.5259612855001237
 30
0.0
 11
16.7025437900153335
 21
45.5250387145000346
 31
0.0
  0
LINE
  5
18D
100
AcDbEntity
  8
0
 62
7
420
16777215
370
-1
 48
1.0
  6
BYLAYER
100
AcDbLine
 10
16.7025437900153335
 20
45.5250387145000346
 30
0.0
 11
3.7034783610153363
 21
45.5250387145000346
 31
0.0
  0
LINE
  5
18E
100
AcDbEntity
  8
0
 62
7
420
16777215
370
-1
 48
1.0
  6
BYLAYER
100
AcDbLine
 10
3.7034783610153363
 20
45.5250387145000346
 30
0.0
 11
3.7034783610153363
 21
58.5259612855001237
 31
0.0
  0
LINE
  5
18F
100
AcDbEntity
  8
0
 62
7
420
16777215
370
-1
 48
1.0
  6
BYLAYER
100
AcDbLine
 10
22.7534783610153504
 20
58.5259612855001237
 30
0.0
 11
35.752543790015423
 21
58.5259612855001237
 31
0.0
  0
LINE
  5
190
100
AcDbEntity
  8
0
 62
7
420
16777215
370
-1
 48
1.0
  6
BYLAYER
100
AcDbLine
 10
35.752543790015423
 20
58.5259612855001237
 30
0.0
 11
35.752543790015423
 21
45.5250387145000346
 31
0.0
  0
LINE
  5
191
100
AcDbEntity
  8
0
 62
7
420
16777215
370
-1
 48
1.0
  6
BYLAYER
100
AcDbLine
 10
35.752543790015423
 20
45.5250387145000346
 30
0.0
 11
22.7534783610153504
 21
45.5250387145000346
 31
0.0
  0
LINE
  5
192
100
AcDbEntity
  8
0
 62
7
420
16777215
370
-1
 48
1.0
  6
BYLAYER
100
AcDbLine
 10
22.7534783610153504
 20
45.5250387145000346
 30
0.0
 11
22.7534783610153504
 21
58.5259612855001237
 31
0.0
  0
LINE
  5
193
100
AcDbEntity
  8
0
 62
7
420
16777215
370
-1
 48
1.0
  6
BYLAYER
100
AcDbLine
 10
41.8034783610153298
 20
58.5259612855001237
 30
0.0
 11
54.8025437900153278
 21
58.5259612855001237
 31
0.0
  0
LINE
  5
194
100
AcDbEntity
  8
0
 62
7
420
16777215
370
-1
 48
1.0
  6
BYLAYER
100
AcDbLine
 10
54.8025437900153278
 20
58.5259612855001237
 30
0.0
 11
54.8025437900153278
 21
45.5250387145000346
 31
0.0
  0
LINE
  5
195
100
AcDbEntity
  8
0
 62
7
420
16777215
370
-1
 48
1.0
  6
BYLAYER
100
AcDbLine
 10
54.8025437900153278
 20
45.5250387145000346
 30
0.0
 11
41.8034783610153298
 21
45.5250387145000346
 31
0.0
  0
LINE
  5
196
100
AcDbEntity
  8
0
 62
7
420
16777215
370
-1
 48
1.0
  6
BYLAYER
100
AcDbLine
 10
41.8034783610153298
 20
45.5250387145000346
 30
0.0
 11
41.8034783610153298
 21
58.5259612855001237
 31
0.0
  0
LINE
  5
197
100
AcDbEntity
  8
0
 62
7
420
16777215
370
-1
 48
1.0
  6
BYLAYER
100
AcDbLine
 10
60.8534783610153411
 20
58.5259612855001237
 30
0.0
 11
73.8525437900153321
 21
58.5259612855001237
 31
0.0
  0
LINE
  5
198
100
AcDbEntity
  8
0
 62
7
420
16777215
370
-1
 48
1.0
  6
BYLAYER
100
AcDbLine
 10
73.8525437900153321
 20
58.5259612855001237
 30
0.0
 11
73.8525437900153321
 21
45.5250387145000346
 31
0.0
  0
LINE
  5
199
100
AcDbEntity
  8
0
 62
7
420
16777215
370
-1
 48
1.0
  6
BYLAYER
100
AcDbLine
 10
73.8525437900153321
 20
45.5250387145000346
 30
0.0
 11
60.8534783610153411
 21
45.5250387145000346
 31
0.0
  0
LINE
  5
19A
100
AcDbEntity
  8
0
 62
7
420
16777215
370
-1
 48
1.0
  6
BYLAYER
100
AcDbLine
 10
60.8534783610153411
 20
45.5250387145000346
 30
0.0
 11
60.8534783610153411
 21
58.5259612855001237
 31
0.0
  0
LINE
  5
19B
100
AcDbEntity
  8
0
 62
7
420
16777215
370
-1
 48
1.0
  6
BYLAYER
100
AcDbLine
 10
79.9034783610154449
 20
58.5259612855001237
 30
0.0
 11
92.9025437900154287
 21
58.5259612855001237
 31
0.0
  0
LINE
  5
19C
100
AcDbEntity
  8
0
 62
7
420
16777215
370
-1
 48
1.0
  6
BYLAYER
100
AcDbLine
 10
92.9025437900154287
 20
58.5259612855001237
 30
0.0
 11
92.9025437900154287
 21
45.5250387145000346
 31
0.0
  0
LINE
  5
19D
100
AcDbEntity
  8
0
 62
7
420
16777215
370
-1
 48
1.0
  6
BYLAYER
100
AcDbLine
 10
92.9025437900154287
 20
45.5250387145000346
 30
0.0
 11
79.9034783610154449
 21
45.5250387145000346
 31
0.0
  0
LINE
  5
19E
100
AcDbEntity
  8
0
 62
7
420
16777215
370
-1
 48
1.0
  6
BYLAYER
100
AcDbLine
 10
79.9034783610154449
 20
45.5250387145000346
 30
0.0
 11
79.9034783610154449
 21
58.5259612855001237
 31
0.0
  0
LINE
  5
19F
100
AcDbEntity
  8
0
 62
7
420
16777215
370
-1
 48
1.0
  6
BYLAYER
100
AcDbLine
 10
98.9534783610153283
 20
58.5259612855001237
 30
0.0
 11
111.9525437900153264
 21
58.5259612855001237
 31
0.0
  0
LINE
  5
1A0
100
AcDbEntity
  8
0
 62
7
420
16777215
370
-1
 48
1.0
  6
BYLAYER
100
AcDbLine
 10
111.9525437900153264
 20
58.5259612855001237
 30
0.0
 11
111.9525437900153264
 21
45.5250387145000346
 31
0.0
  0
LINE
  5
1A1
100
AcDbEntity
  8
0
 62
7
420
16777215
370
-1
 48
1.0
  6
BYLAYER
100
AcDbLine
 10
111.9525437900153264
 20
45.5250387145000346
 30
0.0
 11
98.9534783610153283
 21
45.5250387145000346
 31
0.0
  0
LINE
  5
1A2
100
AcDbEntity
  8
0
 62
7
420
16777215
370
-1
 48
1.0
  6
BYLAYER
100
AcDbLine
 10
98.9534783610153283
 20
45.5250387145000346
 30
0.0
 11
98.9534783610153283
 21
58.5259612855001237
 31
0.0
  0
LINE
  5
1A3
100
AcDbEntity
  8
0
 62
7
420
16777215
370
-1
 48
1.0
  6
BYLAYER
100
AcDbLine
 10
146.5784783610153283
 20
58.5259612855001237
 30
0.0
 11
159.577543790015369
 21
58.5259612855001237
 31
0.0
  0
LINE
  5
1A4
100
AcDbEntity
  8
0
 62
7
420
16777215
370
-1
 48
1.0
  6
BYLAYER
100
AcDbLine
 10
159.577543790015369
 20
58.5259612855001237
 30
0.0
 11
159.577543790015369
 21
45.5250387145000346
 31
0.0
  0
LINE
  5
1A5
100
AcDbEntity
  8
0
 62
7
420
16777215
370
-1
 48
1.0
  6
BYLAYER
100
AcDbLine
 10
159.577543790015369
 20
45.5250387145000346
 30
0.0
 11
146.5784783610153283
 21
45.5250387145000346
 31
0.0
  0
LINE
  5
1A6
100
AcDbEntity
  8
0
 62
7
420
16777215
370
-1
 48
1.0
  6
BYLAYER
100
AcDbLine
 10
146.5784783610153283
 20
45.5250387145000346
 30
0.0
 11
146.5784783610153283
 21
58.5259612855001237
 31
0.0
  0
LINE
  5
1A7
100
AcDbEntity
  8
0
 62
7
420
16777215
370
-1
 48
1.0
  6
BYLAYER
100
AcDbLine
 10
-5.8215216389846693
 20
77.5759612855001279
 30
0.0
 11
7.1775437900153269
 21
77.5759612855001279
 31
0.0
  0
LINE
  5
1A8
100
AcDbEntity
  8
0
 62
7
420
16777215
370
-1
 48
1.0
  6
BYLAYER
100
AcDbLine
 10
7.1775437900153269
 20
77.5759612855001279
 30
0.0
 11
7.1775437900153269
 21
64.5750387145001099
 31
0.0
  0
LINE
  5
1A9
100
AcDbEntity
  8
0
 62
7
420
16777215
370
-1
 48
1.0
  6
BYLAYER
100
AcDbLine
 10
7.1775437900153269
 20
64.5750387145001099
 30
0.0
 11
-5.8215216389846693
 21
64.5750387145001099
 31
0.0
  0
LINE
  5
1AA
100
AcDbEntity
  8
0
 62
7
420
16777215
370
-1
 48
1.0
  6
BYLAYER
100
AcDbLine
 10
-5.8215216389846693
 20
64.5750387145001099
 30
0.0
 11
-5.8215216389846693
 21
77.5759612855001279
 31
0.0
  0
LINE
  5
1AB
100
AcDbEntity
  8
0
 62
7
420
16777215
370
-1
 48
1.0
  6
BYLAYER
100
AcDbLine
 10
13.2284783610153411
 20
77.5759612855001279
 30
0.0
 11
26.2275437900153392
 21
77.5759612855001279
 31
0.0
  0
LINE
  5
1AC
100
AcDbEntity
  8
0
 62
7
420
16777215
370
-1
 48
1.0
  6
BYLAYER
100
AcDbLine
 10
26.2275437900153392
 20
77.5759612855001279
 30
0.0
 11
26.2275437900153392
 21
64.5750387145001099
 31
0.0
  0
LINE
  5
1AD
100
AcDbEntity
  8
0
 62
7
420
16777215
370
-1
 48
1.0
  6
BYLAYER
100
AcDbLine
 10
26.2275437900153392
 20
64.5750387145001099
 30
0.0
 11
13.2284783610153411
 21
64.5750387145001099
 31
0.0
  0
LINE
  5
1AE
100
AcDbEntity
  8
0
 62
7
420
16777215
370
-1
 48
1.0
  6
BYLAYER
100
AcDbLine
 10
13.2284783610153411
 20
64.5750387145001099
 30
0.0
 11
13.2284783610153411
 21
77.5759612855001279
 31
0.0
  0
LINE
  5
1AF
100
AcDbEntity
  8
0
 62
7
420
16777215
370
-1
 48
1.0
  6
BYLAYER
100
AcDbLine
 10
32.2784783610153312
 20
77.5759612855001279
 30
0.0
 11
45.2775437900154287
 21
77.5759612855001279
 31
0.0
  0
LINE
  5
1B0
100
AcDbEntity
  8
0
 62
7
420
16777215
370
-1
 48
1.0
  6
BYLAYER
100
AcDbLine
 10
45.2775437900154287
 20
77.5759612855001279
 30
0.0
 11
45.2775437900154287
 21
64.5750387145001099
 31
0.0
  0
LINE
  5
1B1
100
AcDbEntity
  8
0
 62
7
420
16777215
370
-1
 48
1.0
  6
BYLAYER
100
AcDbLine
 10
45.2775437900154287
 20
64.5750387145001099
 30
0.0
 11
32.2784783610153312
 21
64.5750387145001099
 31
0.0
  0
LINE
  5
1B2
100
AcDbEntity
  8
0
 62
7
420
16777215
370
-1
 48
1.0
  6
BYLAYER
100
AcDbLine
 10
32.2784783610153312
 20
64.5750387145001099
 30
0.0
 11
32.2784783610153312
 21
77.5759612855001279
 31
0.0
  0
LINE
  5
1B3
100
AcDbEntity
  8
0
 62
7
420
16777215
370
-1
 48
1.0
  6
BYLAYER
100
AcDbLine
 10
51.3284783610153355
 20
77.5759612855001279
 30
0.0
 11
64.3275437900153264
 21
77.5759612855001279
 31
0.0
  0
LINE
  5
1B4
100
AcDbEntity
  8
0
 62
7
420
16777215
370
-1
 48
1.0
  6
BYLAYER
100
AcDbLine
 10
64.3275437900153264
 20
77.5759612855001279
 30
0.0
 11
64.3275437900153264
 21
64.5750387145001099
 31
0.0
  0
LINE
  5
1B5
100
AcDbEntity
  8
0
 62
7
420
16777215
370
-1
 48
1.0
  6
BYLAYER
100
AcDbLine
 10
64.3275437900153264
 20
64.5750387145001099
 30
0.0
 11
51.3284783610153355
 21
64.5750387145001099
 31
0.0
  0
LINE
  5
1B6
100
AcDbEntity
  8
0
 62
7
420
16777215
370
-1
 48
1.0
  6
BYLAYER
100
AcDbLine
 10
51.3284783610153355
 20
64.5750387145001099
 30
0.0
 11
51.3284783610153355
 21
77.5759612855001279
 31
0.0
  0
LINE
  5
1B7
100
AcDbEntity
  8
0
 62
7
420
16777215
370
-1
 48
1.0
  6
BYLAYER
100
AcDbLine
 10
70.3784783610153539
 20
77.5759612855001279
 30
0.0
 11
83.377543790015423
 21
77.5759612855001279
 31
0.0
  0
LINE
  5
1B8
100
AcDbEntity
  8
0
 62
7
420
16777215
370
-1
 48
1.0
  6
BYLAYER
100
AcDbLine
 10
83.377543790015423
 20
77.5759612855001279
 30
0.0
 11
83.377543790015423
 21
64.5750387145001099
 31
0.0
  0
LINE
  5
1B9
100
AcDbEntity
  8
0
 62
7
420
16777215
370
-1
 48
1.0
  6
BYLAYER
100
AcDbLine
 10
83.377543790015423
 20
64.5750387145001099
 30
0.0
 11
70.3784783610153539
 21
64.5750387145001099
 31
0.0
  0
LINE
  5
1BA
100
AcDbEntity
  8
0
 62
7
420
16777215
370
-1
 48
1.0
  6
BYLAYER
100
AcDbLine
 10
70.3784783610153539
 20
64.5750387145001099
 30
0.0
 11
70.3784783610153539
 21
77.5759612855001279
 31
0.0
  0
LINE
  5
1BB
100
AcDbEntity
  8
0
 62
7
420
16777215
370
-1
 48
1.0
  6
BYLAYER
100
AcDbLine
 10
89.4284783610153369
 20
77.5759612855001279
 30
0.0
 11
102.4275437900154344
 21
77.5759612855001279
 31
0.0
  0
LINE
  5
1BC
100
AcDbEntity
  8
0
 62
7
420
16777215
370
-1
 48
1.0
  6
BYLAYER
100
AcDbLine
 10
102.4275437900154344
 20
77.5759612855001279
 30
0.0
 11
102.4275437900154344
 21
64.5750387145001099
 31
0.0
  0
LINE
  5
1BD
100
AcDbEntity
  8
0
 62
7
420
16777215
370
-1
 48
1.0
  6
BYLAYER
100
AcDbLine
 10
102.4275437900154344
 20
64.5750387145001099
 30
0.0
 11
89.4284783610153369
 21
64.5750387145001099
 31
0.0
  0
LINE
  5
1BE
100
AcDbEntity
  8
0
 62
7
420
16777215
370
-1
 48
1.0
  6
BYLAYER
100
AcDbLine
 10
89.4284783610153369
 20
64.5750387145001099
 30
0.0
 11
89.4284783610153369
 21
77.5759612855001279
 31
0.0
  0
LINE
  5
1BF
100
AcDbEntity
  8
0
 62
7
420
16777215
370
-1
 48
1.0
  6
BYLAYER
100
AcDbLine
 10
146.5784783610153283
 20
77.5759612855001279
 30
0.0
 11
159.577543790015369
 21
77.5759612855001279
 31
0.0
  0
LINE
  5
1C0
100
AcDbEntity
  8
0
 62
7
420
16777215
370
-1
 48
1.0
  6
BYLAYER
100
AcDbLine
 10
159.577543790015369
 20
77.5759612855001279
 30
0.0
 11
159.577543790015369
 21
64.5750387145001099
 31
0.0
  0
LINE
  5
1C1
100
AcDbEntity
  8
0
 62
7
420
16777215
370
-1
 48
1.0
  6
BYLAYER
100
AcDbLine
 10
159.577543790015369
 20
64.5750387145001099
 30
0.0
 11
146.5784783610153283
 21
64.5750387145001099
 31
0.0
  0
LINE
  5
1C2
100
AcDbEntity
  8
0
 62
7
420
16777215
370
-1
 48
1.0
  6
BYLAYER
100
AcDbLine
 10
146.5784783610153283
 20
64.5750387145001099
 30
0.0
 11
146.5784783610153283
 21
77.5759612855001279
 31
0.0
  0
LINE
  5
1C3
100
AcDbEntity
  8
0
 62
7
420
16777215
370
-1
 48
1.0
  6
BYLAYER
100
AcDbLine
 10
-5.8215216389846693
 20
96.6259612855000398
 30
0.0
 11
7.1775437900153269
 21
96.6259612855000398
 31
0.0
  0
LINE
  5
1C4
100
AcDbEntity
  8
0
 62
7
420
16777215
370
-1
 48
1.0
  6
BYLAYER
100
AcDbLine
 10
7.1775437900153269
 20
96.6259612855000398
 30
0.0
 11
7.1775437900153269
 21
83.6250387145001071
 31
0.0
  0
LINE
  5
1C5
100
AcDbEntity
  8
0
 62
7
420
16777215
370
-1
 48
1.0
  6
BYLAYER
100
AcDbLine
 10
7.1775437900153269
 20
83.6250387145001071
 30
0.0
 11
-5.8215216389846693
 21
83.6250387145001071
 31
0.0
  0
LINE
  5
1C6
100
AcDbEntity
  8
0
 62
7
420
16777215
370
-1
 48
1.0
  6
BYLAYER
100
AcDbLine
 10
-5.8215216389846693
 20
83.6250387145001071
 30
0.0
 11
-5.8215216389846693
 21
96.6259612855000398
 31
0.0
  0
LINE
  5
1C7
100
AcDbEntity
  8
0
 62
7
420
16777215
370
-1
 48
1.0
  6
BYLAYER
100
AcDbLine
 10
13.2284783610153411
 20
96.6259612855000398
 30
0.0
 11
26.2275437900153392
 21
96.6259612855000398
 31
0.0
  0
LINE
  5
1C8
100
AcDbEntity
  8
0
 62
7
420
16777215
370
-1
 48
1.0
  6
BYLAYER
100
AcDbLine
 10
26.2275437900153392
 20
96.6259612855000398
 30
0.0
 11
26.2275437900153392
 21
83.6250387145001071
 31
0.0
  0
LINE
  5
1C9
100
AcDbEntity
  8
0
 62
7
420
16777215
370
-1
 48
1.0
  6
BYLAYER
100
AcDbLine
 10
26.2275437900153392
 20
83.6250387145001071
 30
0.0
 11
13.2284783610153411
 21
83.6250387145001071
 31
0.0
  0
LINE
  5
1CA
100
AcDbEntity
  8
0
 62
7
420
16777215
370
-1
 48
1.0
  6
BYLAYER
100
AcDbLine
 10
13.2284783610153411
 20
83.6250387145001071
 30
0.0
 11
13.2284783610153411
 21
96.6259612855000398
 31
0.0
  0
LINE
  5
1CB
100
AcDbEntity
  8
0
 62
7
420
16777215
370
-1
 48
1.0
  6
BYLAYER
100
AcDbLine
 10
32.2784783610153312
 20
96.6259612855000398
 30
0.0
 11
45.2775437900154287
 21
96.6259612855000398
 31
0.0
  0
LINE
  5
1CC
100
AcDbEntity
  8
0
 62
7
420
16777215
370
-1
 48
1.0
  6
BYLAYER
100
AcDbLine
 10
45.2775437900154287
 20
96.6259612855000398
 30
0.0
 11
45.2775437900154287
 21
83.6250387145001071
 31
0.0
  0
LINE
  5
1CD
100
AcDbEntity
  8
0
 62
7
420
16777215
370
-1
 48
1.0
  6
BYLAYER
100
AcDbLine
 10
45.2775437900154287
 20
83.6250387145001071
 30
0.0
 11
32.2784783610153312
 21
83.6250387145001071
 31
0.0
  0
LINE
  5
1CE
100
AcDbEntity
  8
0
 62
7
420
16777215
370
-1
 48
1.0
  6
BYLAYER
100
AcDbLine
 10
32.2784783610153312
 20
83.6250387145001071
 30
0.0
 11
32.2784783610153312
 21
96.6259612855000398
 31
0.0
  0
LINE
  5
1CF
100
AcDbEntity
  8
0
 62
7
420
16777215
370
-1
 48
1.0
  6
BYLAYER
100
AcDbLine
 10
51.3284783610153355
 20
96.6259612855000398
 30
0.0
 11
64.3275437900153264
 21
96.6259612855000398
 31
0.0
  0
LINE
  5
1D0
100
AcDbEntity
  8
0
 62
7
420
16777215
370
-1
 48
1.0
  6
BYLAYER
100
AcDbLine
 10
64.3275437900153264
 20
96.6259612855000398
 30
0.0
 11
64.3275437900153264
 21
83.6250387145001071
 31
0.0
  0
LINE
  5
1D1
100
AcDbEntity
  8
0
 62
7
420
16777215
370
-1
 48
1.0
  6
BYLAYER
100
AcDbLine
 10
64.3275437900153264
 20
83.6250387145001071
 30
0.0
 11
51.3284783610153355
 21
83.6250387145001071
 31
0.0
  0
LINE
  5
1D2
100
AcDbEntity
  8
0
 62
7
420
16777215
370
-1
 48
1.0
  6
BYLAYER
100
AcDbLine
 10
51.3284783610153355
 20
83.6250387145001071
 30
0.0
 11
51.3284783610153355
 21
96.6259612855000398
 31
0.0
  0
LINE
  5
1D3
100
AcDbEntity
  8
0
 62
7
420
16777215
370
-1
 48
1.0
  6
BYLAYER
100
AcDbLine
 10
70.3784783610153539
 20
96.6259612855000398
 30
0.0
 11
83.377543790015423
 21
96.6259612855000398
 31
0.0
  0
LINE
  5
1D4
100
AcDbEntity
  8
0
 62
7
420
16777215
370
-1
 48
1.0
  6
BYLAYER
100
AcDbLine
 10
83.377543790015423
 20
96.6259612855000398
 30
0.0
 11
83.377543790015423
 21
83.6250387145001071
 31
0.0
  0
LINE
  5
1D5
100
AcDbEntity
  8
0
 62
7
420
16777215
370
-1
 48
1.0
  6
BYLAYER
100
AcDbLine
 10
83.377543790015423
 20
83.6250387145001071
 30
0.0
 11
70.3784783610153539
 21
83.6250387145001071
 31
0.0
  0
LINE
  5
1D6
100
AcDbEntity
  8
0
 62
7
420
16777215
370
-1
 48
1.0
  6
BYLAYER
100
AcDbLine
 10
70.3784783610153539
 20
83.6250387145001071
 30
0.0
 11
70.3784783610153539
 21
96.6259612855000398
 31
0.0
  0
LINE
  5
1D7
100
AcDbEntity
  8
0
 62
7
420
16777215
370
-1
 48
1.0
  6
BYLAYER
100
AcDbLine
 10
89.4284783610153369
 20
96.6259612855000398
 30
0.0
 11
102.4275437900154344
 21
96.6259612855000398
 31
0.0
  0
LINE
  5
1D8
100
AcDbEntity
  8
0
 62
7
420
16777215
370
-1
 48
1.0
  6
BYLAYER
100
AcDbLine
 10
102.4275437900154344
 20
96.6259612855000398
 30
0.0
 11
102.4275437900154344
 21
83.6250387145001071
 31
0.0
  0
LINE
  5
1D9
100
AcDbEntity
  8
0
 62
7
420
16777215
370
-1
 48
1.0
  6
BYLAYER
100
AcDbLine
 10
102.4275437900154344
 20
83.6250387145001071
 30
0.0
 11
89.4284783610153369
 21
83.6250387145001071
 31
0.0
  0
LINE
  5
1DA
100
AcDbEntity
  8
0
 62
7
420
16777215
370
-1
 48
1.0
  6
BYLAYER
100
AcDbLine
 10
89.4284783610153369
 20
83.6250387145001071
 30
0.0
 11
89.4284783610153369
 21
96.6259612855000398
 31
0.0
  0
LINE
  5
1DB
100
AcDbEntity
  8
0
 62
7
420
16777215
370
-1
 48
1.0
  6
BYLAYER
100
AcDbLine
 10
108.4784783610153482
 20
96.6259612855000398
 30
0.0
 11
121.4775437900153321
 21
96.6259612855000398
 31
0.0
  0
LINE
  5
1DC
100
AcDbEntity
  8
0
 62
7
420
16777215
370
-1
 48
1.0
  6
BYLAYER
100
AcDbLine
 10
121.4775437900153321
 20
96.6259612855000398
 30
0.0
 11
121.4775437900153321
 21
83.6250387145001071
 31
0.0
  0
LINE
  5
1DD
100
AcDbEntity
  8
0
 62
7
420
16777215
370
-1
 48
1.0
  6
BYLAYER
100
AcDbLine
 10
121.4775437900153321
 20
83.6250387145001071
 30
0.0
 11
108.4784783610153482
 21
83.6250387145001071
 31
0.0
  0
LINE
  5
1DE
100
AcDbEntity
  8
0
 62
7
420
16777215
370
-1
 48
1.0
  6
BYLAYER
100
AcDbLine
 10
108.4784783610153482
 20
83.6250387145001071
 30
0.0
 11
108.4784783610153482
 21
96.6259612855000398
 31
0.0
  0
LINE
  5
1DF
100
AcDbEntity
  8
0
 62
7
420
16777215
370
-1
 48
1.0
  6
BYLAYER
100
AcDbLine
 10
127.5284783610153312
 20
96.6259612855000398
 30
0.0
 11
140.5275437900154145
 21
96.6259612855000398
 31
0.0
  0
LINE
  5
1E0
100
AcDbEntity
  8
0
 62
7
420
16777215
370
-1
 48
1.0
  6
BYLAYER
100
AcDbLine
 10
140.5275437900154145
 20
96.6259612855000398
 30
0.0
 11
140.5275437900154145
 21
83.6250387145001071
 31
0.0
  0
LINE
  5
1E1
100
AcDbEntity
  8
0
 62
7
420
16777215
370
-1
 48
1.0
  6
BYLAYER
100
AcDbLine
 10
140.5275437900154145
 20
83.6250387145001071
 30
0.0
 11
127.5284783610153312
 21
83.6250387145001071
 31
0.0
  0
LINE
  5
1E2
100
AcDbEntity
  8
0
 62
7
420
16777215
370
-1
 48
1.0
  6
BYLAYER
100
AcDbLine
 10
127.5284783610153312
 20
83.6250387145001071
 30
0.0
 11
127.5284783610153312
 21
96.6259612855000398
 31
0.0
  0
LINE
  5
1E3
100
AcDbEntity
  8
0
 62
7
420
16777215
370
-1
 48
1.0
  6
BYLAYER
100
AcDbLine
 10
146.5784783610153283
 20
96.6259612855000398
 30
0.0
 11
159.577543790015369
 21
96.6259612855000398
 31
0.0
  0
LINE
  5
1E4
100
AcDbEntity
  8
0
 62
7
420
16777215
370
-1
 48
1.0
  6
BYLAYER
100
AcDbLine
 10
159.577543790015369
 20
96.6259612855000398
 30
0.0
 11
159.577543790015369
 21
83.6250387145001071
 31
0.0
  0
LINE
  5
1E5
100
AcDbEntity
  8
0
 62
7
420
16777215
370
-1
 48
1.0
  6
BYLAYER
100
AcDbLine
 10
159.577543790015369
 20
83.6250387145001071
 30
0.0
 11
146.5784783610153283
 21
83.6250387145001071
 31
0.0
  0
LINE
  5
1E6
100
AcDbEntity
  8
0
 62
7
420
16777215
370
-1
 48
1.0
  6
BYLAYER
100
AcDbLine
 10
146.5784783610153283
 20
83.6250387145001071
 30
0.0
 11
146.5784783610153283
 21
96.6259612855000398
 31
0.0
  0
LINE
  5
1E7
100
AcDbEntity
  8
0
 62
7
420
16777215
370
-1
 48
1.0
  6
Continuous
100
AcDbLine
 10
46.5655140755153312
 20
1.37706485695014
 30
0.0
 11
46.5655140755153312
 21
-11.6237648569498617
 31
0.0
  0
LINE
  5
1E8
100
AcDbEntity
  8
0
 62
7
420
16777215
370
-1
 48
1.0
  6
Continuous
100
AcDbLine
 10
88.1405080000000112
 20
1.3770648569500414
 30
0.0
 11
88.1405080000000112
 21
-11.6237648569499612
 31
0.0
  0
LINE
  5
1E9
100
AcDbEntity
  8
0
 62
7
420
16777215
370
-1
 48
1.0
  6
Continuous
100
AcDbLine
 10
46.5655140755153312
 20
1.37706485695014
 30
0.0
 11
59.5655080755153321
 21
1.37706485695014
 31
0.0
  0
LINE
  5
1EA
100
AcDbEntity
  8
0
 62
7
420
16777215
370
-1
 48
1.0
  6
Continuous
100
AcDbLine
 10
46.5655141103968049
 20
-11.6237648569498617
 30
0.0
 11
59.5655080755153321
 21
-11.6247171793063444
 31
0.0
  0
LINE
  5
1EB
100
AcDbEntity
  8
0
 62
7
420
16777215
370
-1
 48
1.0
  6
Continuous
100
AcDbLine
 10
75.140513999999996
 20
1.3770648569500414
 30
0.0
 11
75.140513999999996
 21
-11.6237648569499612
 31
0.0
  0
LINE
  5
1EC
100
AcDbEntity
  8
0
 62
7
420
16777215
370
-1
 48
1.0
  6
Continuous
100
AcDbLine
 10
75.140513999999996
 20
-11.6237648569499612
 30
0.0
 11
88.1405080000000112
 21
-11.6237648569499612
 31
0.0
  0
LINE
  5
1ED
100
AcDbEntity
  8
0
 62
7
420
16777215
370
-1
 48
1.0
  6
Continuous
100
AcDbLine
 10
122.7655497900153421
 20
58.5259970000001246
 30
0.0
 11
135.7664723610153317
 21
58.5259970000001246
 31
0.0
  0
LINE
  5
1EE
100
AcDbEntity
  8
0
 62
7
420
16777215
370
-1
 48
1.0
  6
Continuous
100
AcDbLine
 10
122.7655497900153421
 20
58.5259970000001246
 30
0.0
 11
122.7655497900153421
 21
45.5260030000001237
 31
0.0
  0
LINE
  5
1EF
100
AcDbEntity
  8
0
 62
7
420
16777215
370
-1
 48
1.0
  6
Continuous
100
AcDbLine
 10
135.7664723610153317
 20
58.5259970000001246
 30
0.0
 11
135.7664723610153317
 21
45.5260030000001237
 31
0.0
  0
LINE
  5
1F0
100
AcDbEntity
  8
0
 62
7
420
16777215
370
-1
 48
1.0
  6
Continuous
100
AcDbLine
 10
122.7655497900153421
 20
45.5260030000001237
 30
0.0
 11
135.7664723610153601
 21
45.5260030000001237
 31
0.0
  0
LINE
  5
1F1
100
AcDbEntity
  8
0
 62
7
420
16777215
370
-1
 48
1.0
  6
BYLAYER
100
AcDbLine
 10
-80.64165107551446
 20
1.3770579999999999
 30
0.0
 11
-78.6156837900145007
 21
1.3770577140500411
 31
0.0
  0
LINE
  5
1F2
100
AcDbEntity
  8
0
 62
7
420
16777215
370
-1
 48
1.0
  6
BYLAYER
100
AcDbLine
 10
-132.6452110377572637
 20
7.4256420000000798
 30
0.0
 11
-134.6711783232572373
 21
7.4256422859500386
 31
0.0
  0
LINE
  5
1F3
100
AcDbEntity
  8
0
 62
7
420
16777215
370
-1
 48
1.0
  6
BYLAYER
100
AcDbLine
 10
4.0585110377581213
 20
1.3770580000000208
 30
0.0
 11
6.0844783232580806
 21
1.3770577140500619
 31
0.0
  0
LINE
  5
1F4
100
AcDbEntity
  8
0
 62
7
420
16777215
370
-1
 48
1.0
  6
BYLAYER
100
AcDbLine
 10
133.0285111132725149
 20
64.5754920000002528
 30
0.0
 11
131.0025438277725414
 21
64.5754922859502045
 31
0.0
  0
LINE
  5
1F5
100
AcDbEntity
  8
0
 62
7
420
16777215
370
-1
 48
1.0
  6
BYLAYER
100
AcDbLine
 10
130.6475352386117947
 20
26.4739084457649945
 30
0.0
 11
128.6215679531118212
 21
26.4739087317149462
 31
0.0
  0
LINE
  5
1F6
100
AcDbEntity
  8
0
 62
7
420
16777215
370
-1
 48
1.0
  6
BYLAYER
100
AcDbLine
 10
-65.6166183610144884
 20
1.3770577140500411
 30
0.0
 11
-63.5916510755145055
 21
1.3770579999999999
 31
0.0
  0
LINE
  5
1F7
100
AcDbEntity
  8
0
 62
7
420
16777215
370
-1
 48
1.0
  6
BYLAYER
100
AcDbLine
 10
-147.6702437522572495
 20
7.4256422859500386
 30
0.0
 11
-149.6952110377572183
 21
7.4256420000000833
 31
0.0
  0
LINE
  5
1F8
100
AcDbEntity
  8
0
 62
7
420
16777215
370
-1
 48
1.0
  6
BYLAYER
100
AcDbLine
 10
19.0835437522580946
 20
1.3770577140500619
 30
0.0
 11
21.1085110377580776
 21
1.3770580000000208
 31
0.0
  0
LINE
  5
1F9
100
AcDbEntity
  8
0
 62
7
420
16777215
370
-1
 48
1.0
  6
BYLAYER
100
AcDbLine
 10
118.0034783987725291
 20
64.5754922859502045
 30
0.0
 11
115.9785111132725604
 21
64.5754920000002528
 31
0.0
  0
LINE
  5
1FA
100
AcDbEntity
  8
0
 62
7
420
16777215
370
-1
 48
1.0
  6
BYLAYER
100
AcDbLine
 10
115.622502524111809
 20
26.4739087317149462
 30
0.0
 11
113.5975352386118402
 21
26.4739084457649945
 31
0.0
  0
LINE
  5
1FB
100
AcDbEntity
  8
0
 62
7
420
16777215
370
-1
 48
1.0
  6
BYLAYER
100
AcDbLine
 10
-41.8041180000000026
 20
64.5750387145000389
 30
0.0
 11
-41.8041180000000026
 21
65.375039000000001
 31
0.0
  0
LINE
  5
1FC
100
AcDbEntity
  8
0
 62
7
420
16777215
370
-1
 48
1.0
  6
BYLAYER
100
AcDbLine
 10
-41.8041180000000026
 20
65.375039000000001
 30
0.0
 11
-32.2791897900145557
 21
65.375039000000001
 31
0.0
  0
LINE
  5
1FD
100
AcDbEntity
  8
0
 62
7
420
16777215
370
-1
 48
1.0
  6
BYLAYER
100
AcDbLine
 10
-37.0411540755144628
 20
38.6756719999999987
 30
0.0
 11
-41.8041180000000026
 21
38.6756719999999987
 31
0.0
  0
LINE
  5
1FE
100
AcDbEntity
  8
0
 62
7
420
16777215
370
-1
 48
1.0
  6
BYLAYER
100
AcDbLine
 10
-41.8041180000000026
 20
39.4756719998500216
 30
0.0
 11
-41.8041180000000026
 21
38.6756719999999987
 31
0.0
  0
LINE
  5
1FF
100
AcDbEntity
  8
0
 62
7
420
16777215
370
-1
 48
1.0
  6
BYLAYER
100
AcDbLine
 10
-27.5161540755144713
 20
19.6256720000000016
 30
0.0
 11
-37.0411539999999988
 21
19.6256720000000016
 31
0.0
  0
LINE
  5
200
100
AcDbEntity
  8
0
 62
7
420
16777215
370
-1
 48
1.0
  6
BYLAYER
100
AcDbLine
 10
-27.5161540000000002
 20
8.225028
 30
0.0
 11
-37.0411539999999988
 21
8.225028
 31
0.0
  0
LINE
  5
201
100
AcDbEntity
  8
0
 62
7
420
16777215
370
-1
 48
1.0
  6
BYLAYER
100
AcDbLine
 10
-37.0411539999999988
 20
20.4256719998500031
 30
0.0
 11
-37.0411539999999988
 21
19.6256720000000016
 31
0.0
  0
LINE
  5
202
100
AcDbEntity
  8
0
 62
7
420
16777215
370
-1
 48
1.0
  6
BYLAYER
100
AcDbLine
 10
-37.0411539999999988
 20
8.225028
 30
0.0
 11
-37.0411539999999988
 21
7.4250280001499016
 31
0.0
  0
LINE
  5
203
100
AcDbEntity
  8
0
 62
7
420
16777215
370
-1
 48
1.0
  6
BYLAYER
100
AcDbLine
 10
-15.3465216389846653
 20
57.7259609999999981
 30
0.0
 11
-5.8215219999999999
 21
57.7259609999999981
 31
0.0
  0
LINE
  5
204
100
AcDbEntity
  8
0
 62
7
420
16777215
370
-1
 48
1.0
  6
BYLAYER
100
AcDbLine
 10
-5.8215219999999999
 20
58.5259612855001237
 30
0.0
 11
-5.8215219999999999
 21
57.7259609999999981
 31
0.0
  0
LINE
  5
205
100
AcDbEntity
  8
0
 62
7
420
16777215
370
-1
 48
1.0
  6
BYLAYER
100
AcDbLine
 10
-15.3465216389846653
 20
46.3250389999999967
 30
0.0
 11
-10.5844860000000001
 21
46.3250389999999967
 31
0.0
  0
LINE
  5
206
100
AcDbEntity
  8
0
 62
7
420
16777215
370
-1
 48
1.0
  6
BYLAYER
100
AcDbLine
 10
-10.5844860000000001
 20
45.5250387145000346
 30
0.0
 11
-10.5844860000000001
 21
46.3250389999999967
 31
0.0
  0
LINE
  5
207
100
AcDbEntity
  8
0
 62
7
420
16777215
370
-1
 48
1.0
  6
BYLAYER
100
AcDbLine
 10
-10.5844859244846745
 20
27.2750279999999989
 30
0.0
 11
-1.0594859999999999
 21
27.2750279999999989
 31
0.0
  0
LINE
  5
208
100
AcDbEntity
  8
0
 62
7
420
16777215
370
-1
 48
1.0
  6
BYLAYER
100
AcDbLine
 10
-1.0594859999999999
 20
26.4750280001501359
 30
0.0
 11
-1.0594859999999999
 21
27.2750279999999989
 31
0.0
  0
ENDSEC
  0
SECTION
  2
OBJECTS
  0
DICTIONARY
  5
C
100
AcDbDictionary
280
0
281
1
  3
ACAD_GROUP
350
D
  3
ACAD_LAYOUT
350
1A
  3
ACAD_MLINESTYLE
350
17
  3
ACAD_PLOTSETTINGS
350
19
  3
ACAD_PLOTSTYLENAME
350
E
  3
AcDbVariableDictionary
350
209
  3
QCAD_OBJECTS
350
20A
  0
DICTIONARY
  5
D
100
AcDbDictionary
280
0
281
1
  0
ACDBDICTIONARYWDFLT
  5
E
100
AcDbDictionary
281
1
  3
Normal
350
F
100
AcDbDictionaryWithDefault
340
F
  0
ACDBPLACEHOLDER
  5
F
  0
DICTIONARY
  5
17
100
AcDbDictionary
280
0
281
1
  3
Standard
350
18
  0
MLINESTYLE
  5
18
100
AcDbMlineStyle
  2
STANDARD
 70
0
  3

 62
256
 51
90.0
 52
90.0
 71
2
 49
0.5
 62
256
  6
BYLAYER
 49
-0.5
 62
256
  6
BYLAYER
  0
DICTIONARY
  5
19
100
AcDbDictionary
280
0
281
1
  0
DICTIONARY
  5
1A
100
AcDbDictionary
281
1
  3
Layout1
350
1E
  3
Layout2
350
26
  3
Model
350
22
  0
LAYOUT
  5
1E
100
AcDbPlotSettings
  1

  2
none_device
  4

  6

 40
0.0
 41
0.0
 42
0.0
 43
0.0
 44
0.0
 45
0.0
 46
0.0
 47
0.0
 48
0.0
 49
0.0
140
0.0
141
0.0
142
1.0
143
1.0
 70
688
 72
0
 73
0
 74
5
  7

 75
16
147
1.0
148
0.0
149
0.0
100
AcDbLayout
  1
Layout1
 70
1
 71
1
 10
0.0
 20
0.0
 11
420.0
 21
297.0
 12
0.0
 22
0.0
 32
0.0
 14
100000000000000000000.0
 24
100000000000000000000.0
 34
100000000000000000000.0
 15
-100000000000000000000.0
 25
-100000000000000000000.0
 35
-100000000000000000000.0
146
0.0
 13
0.0
 23
0.0
 33
0.0
 16
1.0
 26
0.0
 36
0.0
 17
0.0
 27
1.0
 37
0.0
 76
0
330
1B
  0
LAYOUT
  5
22
100
AcDbPlotSettings
  1

  2
none_device
  4

  6

 40
0.0
 41
0.0
 42
0.0
 43
0.0
 44
0.0
 45
0.0
 46
0.0
 47
0.0
 48
0.0
 49
0.0
140
0.0
141
0.0
142
1.0
143
1.0
 70
1712
 72
0
 73
0
 74
0
  7

 75
0
147
1.0
148
0.0
149
0.0
100
AcDbLayout
  1
Model
 70
1
 71
0
 10
0.0
 20
0.0
 11
12.0
 21
9.0
 12
0.0
 22
0.0
 32
0.0
 14
0.0
 24
0.0
 34
0.0
 15
0.0
 25
0.0
 35
0.0
146
0.0
 13
0.0
 23
0.0
 33
0.0
 16
1.0
 26
0.0
 36
0.0
 17
0.0
 27
1.0
 37
0.0
 76
0
330
1F
  0
LAYOUT
  5
26
100
AcDbPlotSettings
  1

  2
none_device
  4

  6

 40
0.0
 41
0.0
 42
0.0
 43
0.0
 44
0.0
 45
0.0
 46
0.0
 47
0.0
 48
0.0
 49
0.0
140
0.0
141
0.0
142
1.0
143
1.0
 70
688
 72
0
 73
0
 74
5
  7

 75
16
147
1.0
148
0.0
149
0.0
100
AcDbLayout
  1
Layout2
 70
1
 71
2
 10
0.0
 20
0.0
 11
12.0
 21
9.0
 12
0.0
 22
0.0
 32
0.0
 14
0.0
 24
0.0
 34
0.0
 15
0.0
 25
0.0
 35
0.0
146
0.0
 13
0.0
 23
0.0
 33
0.0
 16
1.0
 26
0.0
 36
0.0
 17
0.0
 27
1.0
 37
0.0
 76
0
330
23
  0
DICTIONARY
  5
209
100
AcDbDictionary
281
1
  3
DIMASSOC
350
20C
  3
HIDETEXT
350
20B
  0
DICTIONARYVAR
  5
20B
100
DictionaryVariables
280
0
  1
2
  0
DICTIONARYVAR
  5
20C
100
DictionaryVariables
280
0
  1
1
  0
DICTIONARY
  5
20A
100
AcDbDictionary
281
1
  3
ColorSettings/BackgroundColor
350
20D
  3
ColorSettings/ColorMode
350
20E
  3
Grid/DisplayGrid00
350
20F
  3
Grid/DisplayGrid01
350
210
  3
Grid/DisplayGrid02
350
211
  3
Grid/DisplayGrid03
350
212
  3
Grid/GridSpacingX00
350
213
  3
Grid/GridSpacingX01
350
214
  3
Grid/GridSpacingX02
350
215
  3
Grid/GridSpacingX03
350
216
  3
Grid/GridSpacingY00
350
217
  3
Grid/GridSpacingY01
350
218
  3
Grid/GridSpacingY02
350
219
  3
Grid/GridSpacingY03
350
21A
  3
Grid/IsometricGrid00
350
21B
  3
Grid/IsometricGrid01
350
21C
  3
Grid/IsometricGrid02
350
21D
  3
Grid/IsometricGrid03
350
21E
  3
Grid/IsometricProjection00
350
21F
  3
Grid/IsometricProjection01
350
220
  3
Grid/IsometricProjection02
350
221
  3
Grid/IsometricProjection03
350
222
  3
Grid/MetaGridSpacingX00
350
223
  3
Grid/MetaGridSpacingX01
350
224
  3
Grid/MetaGridSpacingX02
350
225
  3
Grid/MetaGridSpacingX03
350
226
  3
Grid/MetaGridSpacingY00
350
227
  3
Grid/MetaGridSpacingY01
350
228
  3
Grid/MetaGridSpacingY02
350
229
  3
Grid/MetaGridSpacingY03
350
22A
  3
MultiPageSettings/Columns
350
22B
  3
MultiPageSettings/GlueMarginsBottom
350
22C
  3
MultiPageSettings/GlueMarginsLeft
350
22D
  3
MultiPageSettings/GlueMarginsRight
350
22E
  3
MultiPageSettings/GlueMarginsTop
350
22F
  3
MultiPageSettings/PrintCropMarks
350
230
  3
MultiPageSettings/Rows
350
231
  3
PageSettings/OffsetX
350
232
  3
PageSettings/OffsetY
350
233
  3
PageSettings/PageOrientation
350
234
  3
PageSettings/PaperHeight
350
235
  3
PageSettings/PaperWidth
350
236
  3
PageSettings/Scale
350
237
  3
PageSettings/ShowPaperBorders
350
238
  3
PageTagSettings/EnablePageTags
350
239
  3
PageTagSettings/TagAlignment
350
23A
  3
PageTagSettings/TagFont
350
23B
  3
PageTagSettings/TagPosition
350
23C
  3
QCADVersion
350
23D
  3
UnitSettings/PaperUnit
350
23E
  3
ViewportCenter
350
23F
  3
ViewportHeight
350
240
  3
ViewportWidth
350
241
  0
XRECORD
  5
20D
330
20A
100
AcDbXrecord
280
1
1000
White
  0
XRECORD
  5
20E
330
20A
100
AcDbXrecord
280
1
1000
FullColor
  0
XRECORD
  5
20F
330
20A
100
AcDbXrecord
280
1
290
1
  0
XRECORD
  5
210
330
20A
100
AcDbXrecord
280
1
290
1
  0
XRECORD
  5
211
330
20A
100
AcDbXrecord
280
1
290
1
  0
XRECORD
  5
212
330
20A
100
AcDbXrecord
280
1
290
1
  0
XRECORD
  5
213
330
20A
100
AcDbXrecord
280
1
1000
auto
  0
XRECORD
  5
214
330
20A
100
AcDbXrecord
280
1
1000
auto
  0
XRECORD
  5
215
330
20A
100
AcDbXrecord
280
1
1000
auto
  0
XRECORD
  5
216
330
20A
100
AcDbXrecord
280
1
1000
auto
  0
XRECORD
  5
217
330
20A
100
AcDbXrecord
280
1
1000
auto
  0
XRECORD
  5
218
330
20A
100
AcDbXrecord
280
1
1000
auto
  0
XRECORD
  5
219
330
20A
100
AcDbXrecord
280
1
1000
auto
  0
XRECORD
  5
21A
330
20A
100
AcDbXrecord
280
1
1000
auto
  0
XRECORD
  5
21B
330
20A
100
AcDbXrecord
280
1
290
0
  0
XRECORD
  5
21C
330
20A
100
AcDbXrecord
280
1
290
0
  0
XRECORD
  5
21D
330
20A
100
AcDbXrecord
280
1
290
0
  0
XRECORD
  5
21E
330
20A
100
AcDbXrecord
280
1
290
0
  0
XRECORD
  5
21F
330
20A
100
AcDbXrecord
280
1
 90
65537
  0
XRECORD
  5
220
330
20A
100
AcDbXrecord
280
1
 90
65537
  0
XRECORD
  5
221
330
20A
100
AcDbXrecord
280
1
 90
65537
  0
XRECORD
  5
222
330
20A
100
AcDbXrecord
280
1
 90
65537
  0
XRECORD
  5
223
330
20A
100
AcDbXrecord
280
1
1000
auto
  0
XRECORD
  5
224
330
20A
100
AcDbXrecord
280
1
1000
auto
  0
XRECORD
  5
225
330
20A
100
AcDbXrecord
280
1
1000
auto
  0
XRECORD
  5
226
330
20A
100
AcDbXrecord
280
1
1000
auto
  0
XRECORD
  5
227
330
20A
100
AcDbXrecord
280
1
1000
auto
  0
XRECORD
  5
228
330
20A
100
AcDbXrecord
280
1
1000
auto
  0
XRECORD
  5
229
330
20A
100
AcDbXrecord
280
1
1000
auto
  0
XRECORD
  5
22A
330
20A
100
AcDbXrecord
280
1
1000
auto
  0
XRECORD
  5
22B
330
20A
100
AcDbXrecord
280
1
 90
1
  0
XRECORD
  5
22C
330
20A
100
AcDbXrecord
280
1
 40
0.0
  0
XRECORD
  5
22D
330
20A
100
AcDbXrecord
280
1
 40
0.0
  0
XRECORD
  5
22E
330
20A
100
AcDbXrecord
280
1
 40
0.0
  0
XRECORD
  5
22F
330
20A
100
AcDbXrecord
280
1
 40
0.0
  0
XRECORD
  5
230
330
20A
100
AcDbXrecord
280
1
290
0
  0
XRECORD
  5
231
330
20A
100
AcDbXrecord
280
1
 90
1
  0
XRECORD
  5
232
330
20A
100
AcDbXrecord
280
1
 40
0.0
  0
XRECORD
  5
233
330
20A
100
AcDbXrecord
280
1
 40
0.0
  0
XRECORD
  5
234
330
20A
100
AcDbXrecord
280
1
1000
Portrait
  0
XRECORD
  5
235
330
20A
100
AcDbXrecord
280
1
 40
297.0
  0
XRECORD
  5
236
330
20A
100
AcDbXrecord
280
1
 40
210.0
  0
XRECORD
  5
237
330
20A
100
AcDbXrecord
280
1
1000
1:1
  0
XRECORD
  5
238
330
20A
100
AcDbXrecord
280
1
290
1
  0
XRECORD
  5
239
330
20A
100
AcDbXrecord
280
1
290
0
  0
XRECORD
  5
23A
330
20A
100
AcDbXrecord
280
1
1000
Inside
  0
XRECORD
  5
23B
330
20A
100
AcDbXrecord
280
1
1000
Arial,10,-1,5,50,0,0,0,0,0
  0
XRECORD
  5
23C
330
20A
100
AcDbXrecord
280
1
1000
TopLeft
  0
XRECORD
  5
23D
330
20A
100
AcDbXrecord
280
1
1000
3.24.3
  0
XRECORD
  5
23E
330
20A
100
AcDbXrecord
280
1
 90
4
  0
XRECORD
  5
240
330
20A
100
AcDbXrecord
280
1
 40
162.1119944413729002
  0
XRECORD
  5
241
330
20A
100
AcDbXrecord
280
1
 40
333.0946862529987698
  0
ENDSEC
  0
EOF
