999
dxflib 3.17.0.0
  0
SECTION
  2
HEADER
  9
$ACADVER
  1
AC1015
  9
$HANDSEED
  5
FFFF
  9
$ANGBASE
 50
0.0
  9
$ANGDIR
 70
0
  9
$ATTMODE
 70
1
  9
$AUNITS
 70
0
  9
$AUPREC
 70
0
  9
$CECOLOR
 62
7
  9
$CELTSCALE
 40
1.0
  9
$CHAMFERA
 40
0.0
  9
$CHAMFERB
 40
0.0
  9
$CHAMFERC
 40
0.0
  9
$CHAMFERD
 40
0.0
  9
$CMLJUST
 70
0
  9
$CMLSCALE
 40
1.0
  9
$DIMADEC
 70
0
  9
$DIMALT
 70
0
  9
$DIMALTD
 70
2
  9
$DIMALTF
 40
25.3999999999999986
  9
$DIMALTRND
 40
0.0
  9
$DIMALTTD
 70
2
  9
$DIMALTTZ
 70
0
  9
$DIMALTU
 70
2
  9
$DIMALTZ
 70
0
  9
$DIMAPOST
  1

  9
$DIMASZ
 40
0.18
  9
$DIMATFIT
 70
3
  9
$DIMAUNIT
 70
0
  9
$DIMAZIN
 70
0
  9
$DIMBLK
  1

  9
$DIMBLK1
  1

  9
$DIMBLK2
  1

  9
$DIMCEN
 40
0.09
  9
$DIMCLRD
 70
0
  9
$DIMCLRE
 70
0
  9
$DIMCLRT
 70
0
  9
$DIMDEC
 70
4
  9
$DIMDLE
 40
0.0
  9
$DIMDLI
 40
0.38
  9
$DIMDSEP
 70
46
  9
$DIMEXE
 40
0.18
  9
$DIMEXO
 40
0.0625
  9
$DIMFRAC
 70
0
  9
$DIMGAP
 40
0.09
  9
$DIMJUST
 70
0
  9
$DIMLDRBLK
  1

  9
$DIMLFAC
 40
1.0
  9
$DIMLIM
 70
0
  9
$DIMLUNIT
 70
2
  9
$DIMLWD
 70
-2
  9
$DIMLWE
 70
-2
  9
$DIMPOST
  1

  9
$DIMRND
 40
0.0
  9
$DIMSAH
 70
0
  9
$DIMSCALE
 40
1.0
  9
$DIMSD1
 70
0
  9
$DIMSD2
 70
0
  9
$DIMSE1
 70
0
  9
$DIMSE2
 70
0
  9
$DIMSOXD
 70
0
  9
$DIMTAD
 70
0
  9
$DIMTDEC
 70
4
  9
$DIMTFAC
 40
1.0
  9
$DIMTIH
 70
1
  9
$DIMTIX
 70
0
  9
$DIMTM
 40
0.0
  9
$DIMTOFL
 70
0
  9
$DIMTOH
 70
1
  9
$DIMTOL
 70
0
  9
$DIMTOLJ
 70
1
  9
$DIMTP
 40
0.0
  9
$DIMTSZ
 40
0.0
  9
$DIMTVP
 40
0.0
  9
$DIMTXSTY
  7
Standard
  9
$DIMTXT
 40
0.18
  9
$DIMTZIN
 70
0
  9
$DIMUPT
 70
0
  9
$DIMZIN
 70
0
  9
$DISPSILH
 70
0
  9
$DWGCODEPAGE
  3
ANSI_1252
  9
$ELEVATION
 40
0.0
  9
$EXTMAX
 10
478.590458980156086
 20
755.5517160620856885
 30
0.0
  9
$EXTMIN
 10
138.4334329914586021
 20
45.0167520864331365
 30
0.0
  9
$FILLETRAD
 40
0.0
  9
$FILLMODE
 70
0
  9
$INSBASE
 10
0.0
 20
0.0
 30
0.0
  9
$INSUNITS
 70
0
  9
$LIMCHECK
 70
0
  9
$LIMMAX
 10
12.0
 20
9.0
  9
$LIMMIN
 10
0.0
 20
0.0
  9
$LTSCALE
 40
1.0
  9
$LUNITS
 70
2
  9
$LUPREC
 70
4
  9
$MAXACTVP
 70
64
  9
$MEASUREMENT
 70
0
  9
$MIRRTEXT
 70
0
  9
$ORTHOMODE
 70
0
  9
$PDMODE
 70
0
  9
$PDSIZE
 40
0.0
  9
$PELEVATION
 40
0.0
  9
$PEXTMAX
 10
-100000000000000000000.0
 20
-100000000000000000000.0
 30
-100000000000000000000.0
  9
$PEXTMIN
 10
100000000000000000000.0
 20
100000000000000000000.0
 30
100000000000000000000.0
  9
$PINSBASE
 10
0.0
 20
0.0
 30
0.0
  9
$PLIMCHECK
 70
0
  9
$PLIMMAX
 10
12.0
 20
9.0
  9
$PLIMMIN
 10
0.0
 20
0.0
  9
$PLINEGEN
 70
0
  9
$PLINEWID
 40
0.0
  9
$PROXYGRAPHICS
 70
1
  9
$PSLTSCALE
 70
1
  9
$PUCSNAME
  2

  9
$PUCSORG
 10
0.0
 20
0.0
 30
0.0
  9
$PUCSXDIR
 10
1.0
 20
0.0
 30
0.0
  9
$PUCSYDIR
 10
0.0
 20
1.0
 30
0.0
  9
$QTEXTMODE
 70
0
  9
$REGENMODE
 70
1
  9
$SHADEDGE
 70
3
  9
$SHADEDIF
 70
70
  9
$SKETCHINC
 40
0.1
  9
$SKPOLY
 70
0
  9
$SPLFRAME
 70
1
  9
$SPLINESEGS
 70
8
  9
$SPLINETYPE
 70
6
  9
$SURFTAB1
 70
6
  9
$SURFTAB2
 70
6
  9
$SURFTYPE
 70
6
  9
$SURFU
 70
6
  9
$SURFV
 70
6
  9
$TEXTSIZE
 40
0.2
  9
$TEXTSTYLE
  7
Standard
  9
$THICKNESS
 40
0.0
  9
$TILEMODE
 70
1
  9
$TRACEWID
 40
0.05
  9
$TREEDEPTH
 70
3020
  9
$UCSNAME
  2

  9
$UCSORG
 10
0.0
 20
0.0
 30
0.0
  9
$UCSXDIR
 10
1.0
 20
0.0
 30
0.0
  9
$UCSYDIR
 10
0.0
 20
1.0
 30
0.0
  9
$UNITMODE
 70
0
  9
$USERI1
 70
0
  9
$USERI2
 70
0
  9
$USERI3
 70
0
  9
$USERI4
 70
0
  9
$USERI5
 70
0
  9
$USERR1
 40
0.0
  9
$USERR2
 40
0.0
  9
$USERR3
 40
0.0
  9
$USERR4
 40
0.0
  9
$USERR5
 40
0.0
  9
$USRTIMER
 70
1
  9
$VISRETAIN
 70
1
  0
ENDSEC
  0
SECTION
  2
TABLES
  0
TABLE
  2
VPORT
  5
8
100
AcDbSymbolTable
 70
1
  0
VPORT
  5
30
100
AcDbSymbolTableRecord
100
AcDbViewportTableRecord
  2
*Active
 70
0
 10
0.0
 20
0.0
 11
1.0
 21
1.0
 12
286.3055555555554861
 22
148.5
 13
0.0
 23
0.0
 14
10.0
 24
10.0
 15
10.0
 25
10.0
 16
0.0
 26
0.0
 36
1.0
 17
0.0
 27
0.0
 37
0.0
 40
297.0
 41
1.92798353909465
 42
50.0
 43
0.0
 44
0.0
 50
0.0
 51
0.0
 71
0
 72
100
 73
1
 74
3
 75
1
 76
1
 77
0
 78
0
281
0
 65
1
110
0.0
120
0.0
130
0.0
111
1.0
121
0.0
131
0.0
112
0.0
122
1.0
132
0.0
 79
0
146
0.0
  0
ENDTAB
  0
TABLE
  2
LTYPE
  5
5
100
AcDbSymbolTable
 70
41
  0
LTYPE
  5
16
100
AcDbSymbolTableRecord
100
AcDbLinetypeTableRecord
  2
Continuous
 70
0
  3
Solid line
 72
65
 73
0
 40
0.0
  0
LTYPE
  5
31
100
AcDbSymbolTableRecord
100
AcDbLinetypeTableRecord
  2
ACAD_ISO09W100
 70
0
  3
ISO long-dash double-short-dash ____ __ __ ____
 72
65
 73
6
 40
45.0
 49
24.0
 74
0
 49
-3.0
 74
0
 49
6.0
 74
0
 49
-3.0
 74
0
 49
6.0
 74
0
 49
-3.0
 74
0
  0
LTYPE
  5
32
100
AcDbSymbolTableRecord
100
AcDbLinetypeTableRecord
  2
ACAD_ISO11W100
 70
0
  3
ISO double-dash dot __ __ . __ __ . __ __ . __ _
 72
65
 73
6
 40
33.0
 49
12.0
 74
0
 49
-3.0
 74
0
 49
12.0
 74
0
 49
-2.9500000000000002
 74
0
 49
0.1
 74
0
 49
-2.9500000000000002
 74
0
  0
LTYPE
  5
33
100
AcDbSymbolTableRecord
100
AcDbLinetypeTableRecord
  2
ACAD_ISO08W100
 70
0
  3
ISO long-dash short-dash ____ __ ____ __ ____ _
 72
65
 73
4
 40
36.0
 49
24.0
 74
0
 49
-3.0
 74
0
 49
6.0
 74
0
 49
-3.0
 74
0
  0
LTYPE
  5
34
100
AcDbSymbolTableRecord
100
AcDbLinetypeTableRecord
  2
ACAD_ISO12W100
 70
0
  3
ISO dash double-dot __ . . __ . . __ . . __ . . 
 72
65
 73
6
 40
21.0
 49
12.0
 74
0
 49
-2.9500000000000002
 74
0
 49
0.1
 74
0
 49
-2.9000000000000004
 74
0
 49
0.1
 74
0
 49
-2.9500000000000002
 74
0
  0
LTYPE
  5
35
100
AcDbSymbolTableRecord
100
AcDbLinetypeTableRecord
  2
HIDDENX2
 70
0
  3
Hidden (2x) ____ ____ ____ ____ ____ ____ ____ 
 72
65
 73
2
 40
19.0499999999999972
 49
12.6999999999999993
 74
0
 49
-6.3499999999999996
 74
0
  0
LTYPE
  5
36
100
AcDbSymbolTableRecord
100
AcDbLinetypeTableRecord
  2
DASHDOT2
 70
0
  3
Dash dot (.5x) _._._._._._._._._._._._._._._.
 72
65
 73
4
 40
12.6999999999999993
 49
6.3499999999999996
 74
0
 49
-3.125
 74
0
 49
0.1
 74
0
 49
-3.125
 74
0
  0
LTYPE
  5
37
100
AcDbSymbolTableRecord
100
AcDbLinetypeTableRecord
  2
CENTER
 70
0
  3
Center ____ _ ____ _ ____ _ ____ _ ____ _ ____
 72
65
 73
4
 40
50.8000000000000043
 49
31.75
 74
0
 49
-6.3499999999999996
 74
0
 49
6.3499999999999996
 74
0
 49
-6.3499999999999996
 74
0
  0
LTYPE
  5
38
100
AcDbSymbolTableRecord
100
AcDbLinetypeTableRecord
  2
DIVIDE2
 70
0
  3
Divide (.5x) __..__..__..__..__..__..__..__.._
 72
65
 73
6
 40
15.8749999999999982
 49
6.3499999999999996
 74
0
 49
-3.125
 74
0
 49
0.1
 74
0
 49
-3.0750000000000002
 74
0
 49
0.1
 74
0
 49
-3.125
 74
0
  0
LTYPE
  5
39
100
AcDbSymbolTableRecord
100
AcDbLinetypeTableRecord
  2
BORDERX2
 70
0
  3
Border (2x) ____  ____  .  ____  ____  .  ___
 72
65
 73
6
 40
88.8999999999999773
 49
25.3999999999999986
 74
0
 49
-12.6999999999999993
 74
0
 49
25.3999999999999986
 74
0
 49
-12.6499999999999986
 74
0
 49
0.1
 74
0
 49
-12.6499999999999986
 74
0
  0
LTYPE
  5
3A
100
AcDbSymbolTableRecord
100
AcDbLinetypeTableRecord
  2
ACAD_ISO13W100
 70
0
  3
ISO double-dash double-dot __ __ . . __ __ . . _
 72
65
 73
8
 40
36.0000000000000071
 49
12.0
 74
0
 49
-3.0
 74
0
 49
12.0
 74
0
 49
-2.9500000000000002
 74
0
 49
0.1
 74
0
 49
-2.9000000000000004
 74
0
 49
0.1
 74
0
 49
-2.9500000000000002
 74
0
  0
LTYPE
  5
3B
100
AcDbSymbolTableRecord
100
AcDbLinetypeTableRecord
  2
DASHDOT
 70
0
  3
Dash dot __ . __ . __ . __ . __ . __ . __ . __
 72
65
 73
4
 40
25.4000000000000021
 49
12.6999999999999993
 74
0
 49
-6.2999999999999998
 74
0
 49
0.1
 74
0
 49
-6.2999999999999998
 74
0
  0
LTYPE
  5
3C
100
AcDbSymbolTableRecord
100
AcDbLinetypeTableRecord
  2
DIVIDEX2
 70
0
  3
Divide (2x) ________  .  .  ________  .  .  _
 72
65
 73
6
 40
63.5
 49
25.3999999999999986
 74
0
 49
-12.6499999999999986
 74
0
 49
0.1
 74
0
 49
-12.5999999999999979
 74
0
 49
0.1
 74
0
 49
-12.6499999999999986
 74
0
  0
LTYPE
  5
3D
100
AcDbSymbolTableRecord
100
AcDbLinetypeTableRecord
  2
ACAD_ISO14W100
 70
0
  3
ISO dash triple-dot __ . . . __ . . . __ . . . _
 72
65
 73
8
 40
24.0000000000000036
 49
12.0
 74
0
 49
-2.9500000000000002
 74
0
 49
0.1
 74
0
 49
-2.9000000000000004
 74
0
 49
0.1
 74
0
 49
-2.9000000000000004
 74
0
 49
0.1
 74
0
 49
-2.9500000000000002
 74
0
  0
LTYPE
  5
3E
100
AcDbSymbolTableRecord
100
AcDbLinetypeTableRecord
  2
HIDDEN2
 70
0
  3
Hidden (.5x) _ _ _ _ _ _ _ _ _ _ _ _ _ _ _ _ _ 
 72
65
 73
2
 40
4.7624999999999993
 49
3.1749999999999998
 74
0
 49
-1.5874999999999999
 74
0
  0
LTYPE
  5
3F
100
AcDbSymbolTableRecord
100
AcDbLinetypeTableRecord
  2
DASHEDX2
 70
0
  3
Dashed (2x) ____  ____  ____  ____  ____  ___
 72
65
 73
2
 40
38.0999999999999943
 49
25.3999999999999986
 74
0
 49
-12.6999999999999993
 74
0
  0
LTYPE
  5
40
100
AcDbSymbolTableRecord
100
AcDbLinetypeTableRecord
  2
DASHED
 70
0
  3
Dashed __ __ __ __ __ __ __ __ __ __ __ __ __ _
 72
65
 73
2
 40
19.0499999999999972
 49
12.6999999999999993
 74
0
 49
-6.3499999999999996
 74
0
  0
LTYPE
  5
41
100
AcDbSymbolTableRecord
100
AcDbLinetypeTableRecord
  2
PHANTOM
 70
0
  3
Phantom ______  __  __  ______  __  __  ______ 
 72
65
 73
6
 40
63.5000000000000071
 49
31.75
 74
0
 49
-6.3499999999999996
 74
0
 49
6.3499999999999996
 74
0
 49
-6.3499999999999996
 74
0
 49
6.3499999999999996
 74
0
 49
-6.3499999999999996
 74
0
  0
LTYPE
  5
42
100
AcDbSymbolTableRecord
100
AcDbLinetypeTableRecord
  2
DIVIDE
 70
0
  3
Divide ____ . . ____ . . ____ . . ____ . . ____
 72
65
 73
6
 40
31.7500000000000036
 49
12.6999999999999993
 74
0
 49
-6.2999999999999998
 74
0
 49
0.1
 74
0
 49
-6.25
 74
0
 49
0.1
 74
0
 49
-6.2999999999999998
 74
0
  0
LTYPE
  5
43
100
AcDbSymbolTableRecord
100
AcDbLinetypeTableRecord
  2
DOT
 70
0
  3
Dot . . . . . . . . . . . . . . . . . . . . . . . .
 72
65
 73
2
 40
6.3499999999999996
 49
0.1
 74
0
 49
-6.25
 74
0
  0
LTYPE
  5
44
100
AcDbSymbolTableRecord
100
AcDbLinetypeTableRecord
  2
ACAD_ISO02W100
 70
0
  3
ISO dash __ __ __ __ __ __ __ __ __ __ __ __ __
 72
65
 73
2
 40
15.0
 49
12.0
 74
0
 49
-3.0
 74
0
  0
LTYPE
  5
45
100
AcDbSymbolTableRecord
100
AcDbLinetypeTableRecord
  2
ACAD_ISO06W100
 70
0
  3
ISO long-dash triple-dot ____ ... ____ ... ____
 72
65
 73
8
 40
36.0000000000000071
 49
24.0
 74
0
 49
-2.9500000000000002
 74
0
 49
0.1
 74
0
 49
-2.9000000000000004
 74
0
 49
0.1
 74
0
 49
-2.9000000000000004
 74
0
 49
0.1
 74
0
 49
-2.9500000000000002
 74
0
  0
LTYPE
  5
46
100
AcDbSymbolTableRecord
100
AcDbLinetypeTableRecord
  2
ACAD_ISO03W100
 70
0
  3
ISO dash space __    __    __    __    __    __
 72
65
 73
2
 40
30.0
 49
12.0
 74
0
 49
-18.0
 74
0
  0
LTYPE
  5
47
100
AcDbSymbolTableRecord
100
AcDbLinetypeTableRecord
  2
HIDDEN
 70
0
  3
Hidden __ __ __ __ __ __ __ __ __ __ __ __ __ __
 72
65
 73
2
 40
9.5249999999999986
 49
6.3499999999999996
 74
0
 49
-3.1749999999999998
 74
0
  0
LTYPE
  5
48
100
AcDbSymbolTableRecord
100
AcDbLinetypeTableRecord
  2
BORDER
 70
0
  3
Border __ __ . __ __ . __ __ . __ __ . __ __ .
 72
65
 73
6
 40
44.4499999999999957
 49
12.6999999999999993
 74
0
 49
-6.3499999999999996
 74
0
 49
12.6999999999999993
 74
0
 49
-6.2999999999999998
 74
0
 49
0.1
 74
0
 49
-6.2999999999999998
 74
0
  0
LTYPE
  5
49
100
AcDbSymbolTableRecord
100
AcDbLinetypeTableRecord
  2
ACAD_ISO04W100
 70
0
  3
ISO long-dash dot ____ . ____ . ____ . ____ . _
 72
65
 73
4
 40
30.0
 49
24.0
 74
0
 49
-2.9500000000000002
 74
0
 49
0.1
 74
0
 49
-2.9500000000000002
 74
0
  0
LTYPE
  5
4A
100
AcDbSymbolTableRecord
100
AcDbLinetypeTableRecord
  2
PHANTOMX2
 70
0
  3
Phantom (2x) ____________    ____    ____   _
 72
65
 73
6
 40
127.0000000000000142
 49
63.5
 74
0
 49
-12.6999999999999993
 74
0
 49
12.6999999999999993
 74
0
 49
-12.6999999999999993
 74
0
 49
12.6999999999999993
 74
0
 49
-12.6999999999999993
 74
0
  0
LTYPE
  5
4B
100
AcDbSymbolTableRecord
100
AcDbLinetypeTableRecord
  2
ACAD_ISO10W100
 70
0
  3
ISO dash dot __ . __ . __ . __ . __ . __ . __ . 
 72
65
 73
4
 40
18.0
 49
12.0
 74
0
 49
-2.9500000000000002
 74
0
 49
0.1
 74
0
 49
-2.9500000000000002
 74
0
  0
LTYPE
  5
4C
100
AcDbSymbolTableRecord
100
AcDbLinetypeTableRecord
  2
CENTER2
 70
0
  3
Center (.5x) ___ _ ___ _ ___ _ ___ _ ___ _ ___
 72
65
 73
4
 40
1.125
 49
0.75
 74
0
 49
-0.125
 74
0
 49
0.125
 74
0
 49
-0.125
 74
0
  0
LTYPE
  5
4D
100
AcDbSymbolTableRecord
100
AcDbLinetypeTableRecord
  2
DASHDOTX2
 70
0
  3
Dash dot (2x) ____  .  ____  .  ____  .  ___
 72
65
 73
4
 40
50.7999999999999972
 49
25.3999999999999986
 74
0
 49
-12.6499999999999986
 74
0
 49
0.1
 74
0
 49
-12.6499999999999986
 74
0
  0
LTYPE
  5
4E
100
AcDbSymbolTableRecord
100
AcDbLinetypeTableRecord
  2
DOT2
 70
0
  3
Dot (.5x) ........................................
 72
65
 73
2
 40
3.1749999999999998
 49
0.1
 74
0
 49
-3.0749999999999997
 74
0
  0
LTYPE
  5
4F
100
AcDbSymbolTableRecord
100
AcDbLinetypeTableRecord
  2
CENTERX2
 70
0
  3
Center (2x) ________  __  ________  __  _____
 72
65
 73
4
 40
101.6000000000000085
 49
63.5
 74
0
 49
-12.6999999999999993
 74
0
 49
12.6999999999999993
 74
0
 49
-12.6999999999999993
 74
0
  0
LTYPE
  5
50
100
AcDbSymbolTableRecord
100
AcDbLinetypeTableRecord
  2
BORDER2
 70
0
  3
Border (.5x) __.__.__.__.__.__.__.__.__.__.__.
 72
65
 73
6
 40
22.2250000000000014
 49
6.3499999999999996
 74
0
 49
-3.1749999999999998
 74
0
 49
6.3499999999999996
 74
0
 49
-3.125
 74
0
 49
0.1
 74
0
 49
-3.125
 74
0
  0
LTYPE
  5
51
100
AcDbSymbolTableRecord
100
AcDbLinetypeTableRecord
  2
ACAD_ISO05W100
 70
0
  3
ISO long-dash double-dot ____ .. ____ .. ____ . 
 72
65
 73
6
 40
33.0000000000000071
 49
24.0
 74
0
 49
-2.9500000000000002
 74
0
 49
0.1
 74
0
 49
-2.9000000000000004
 74
0
 49
0.1
 74
0
 49
-2.9500000000000002
 74
0
  0
LTYPE
  5
52
100
AcDbSymbolTableRecord
100
AcDbLinetypeTableRecord
  2
ACAD_ISO15W100
 70
0
  3
ISO double-dash triple-dot __ __ . . . __ __ . .
 72
65
 73
10
 40
39.0000000000000071
 49
12.0
 74
0
 49
-3.0
 74
0
 49
12.0
 74
0
 49
-2.9500000000000002
 74
0
 49
0.1
 74
0
 49
-2.9000000000000004
 74
0
 49
0.1
 74
0
 49
-2.9000000000000004
 74
0
 49
0.1
 74
0
 49
-2.9500000000000002
 74
0
  0
LTYPE
  5
53
100
AcDbSymbolTableRecord
100
AcDbLinetypeTableRecord
  2
PHANTOM2
 70
0
  3
Phantom (.5x) ___ _ _ ___ _ _ ___ _ _ ___ _ _
 72
65
 73
6
 40
31.7500000000000036
 49
15.875
 74
0
 49
-3.1749999999999998
 74
0
 49
3.1749999999999998
 74
0
 49
-3.1749999999999998
 74
0
 49
3.1749999999999998
 74
0
 49
-3.1749999999999998
 74
0
  0
LTYPE
  5
15
100
AcDbSymbolTableRecord
100
AcDbLinetypeTableRecord
  2
ByLayer
 70
0
  3

 72
65
 73
0
 40
0.0
  0
LTYPE
  5
54
100
AcDbSymbolTableRecord
100
AcDbLinetypeTableRecord
  2
ACAD_ISO07W100
 70
0
  3
ISO dot . . . . . . . . . . . . . . . . . . . . 
 72
65
 73
2
 40
3.0
 49
0.1
 74
0
 49
-2.8999999999999999
 74
0
  0
LTYPE
  5
55
100
AcDbSymbolTableRecord
100
AcDbLinetypeTableRecord
  2
DASHED2
 70
0
  3
Dashed (.5x) _ _ _ _ _ _ _ _ _ _ _ _ _ _ _ _ _ 
 72
65
 73
2
 40
9.5249999999999986
 49
6.3499999999999996
 74
0
 49
-3.1749999999999998
 74
0
  0
LTYPE
  5
14
100
AcDbSymbolTableRecord
100
AcDbLinetypeTableRecord
  2
ByBlock
 70
0
  3

 72
65
 73
0
 40
0.0
  0
LTYPE
  5
56
100
AcDbSymbolTableRecord
100
AcDbLinetypeTableRecord
  2
DOTX2
 70
0
  3
Dot (2x) .  .  .  .  .  .  .  .  .  .  .  .  .  .
 72
65
 73
2
 40
12.6999999999999993
 49
0.1
 74
0
 49
-12.5999999999999996
 74
0
  0
ENDTAB
  0
TABLE
  2
LAYER
  5
2
100
AcDbSymbolTable
 70
2
  0
LAYER
  5
57
100
AcDbSymbolTableRecord
100
AcDbLayerTableRecord
  2
Defpoints
 70
0
 62
7
420
16777215
  6
Continuous
290
0
370
-3
390
F
  0
LAYER
  5
10
100
AcDbSymbolTableRecord
100
AcDbLayerTableRecord
  2
0
 70
0
 62
7
420
16777215
  6
Continuous
370
-3
390
F
  0
ENDTAB
  0
TABLE
  2
STYLE
  5
3
100
AcDbSymbolTable
 70
1
  0
STYLE
  5
58
100
AcDbSymbolTableRecord
100
AcDbTextStyleTableRecord
  2
Standard
 70
0
 40
0.0
 41
1.0
 50
0.0
 71
0
 42
2.5
  3

  4

1001
ACAD
1000
txt
1071
0
  0
ENDTAB
  0
TABLE
  2
VIEW
  5
6
100
AcDbSymbolTable
 70
0
  0
ENDTAB
  0
TABLE
  2
UCS
  5
7
100
AcDbSymbolTable
 70
0
  0
ENDTAB
  0
TABLE
  2
APPID
  5
9
100
AcDbSymbolTable
 70
1
  0
APPID
  5
12
100
AcDbSymbolTableRecord
100
AcDbRegAppTableRecord
  2
ACAD
 70
0
  0
APPID
  5
59
100
AcDbSymbolTableRecord
100
AcDbRegAppTableRecord
  2
QCAD
 70
0
  0
ENDTAB
  0
TABLE
  2
DIMSTYLE
  5
A
100
AcDbSymbolTable
 70
1
100
AcDbDimStyleTable
 71
0
  0
DIMSTYLE
105
27
100
AcDbSymbolTableRecord
100
AcDbDimStyleTableRecord
  2
Standard
 41
0.18
 42
0.0625
 43
3.75
 44
0.18
 70
0
 73
0
 74
0
 77
1
 78
8
140
0.18
141
2.5
143
0.03937007874016
147
0.09
171
3
172
1
271
2
272
2
274
3
278
44
283
0
284
8
340
58
  0
ENDTAB
  0
TABLE
  2
BLOCK_RECORD
  5
1
100
AcDbSymbolTable
 70
1
  0
BLOCK_RECORD
  5
1F
100
AcDbSymbolTableRecord
100
AcDbBlockTableRecord
  2
*Model_Space
340
22
  0
BLOCK_RECORD
  5
1B
100
AcDbSymbolTableRecord
100
AcDbBlockTableRecord
  2
*Paper_Space
340
1E
  0
BLOCK_RECORD
  5
23
100
AcDbSymbolTableRecord
100
AcDbBlockTableRecord
  2
*Paper_Space0
340
26
  0
BLOCK_RECORD
  5
5A
100
AcDbSymbolTableRecord
100
AcDbBlockTableRecord
  2
A$C0E856265
340
0
  0
ENDTAB
  0
ENDSEC
  0
SECTION
  2
BLOCKS
  0
BLOCK
  5
20
100
AcDbEntity
  8
0
100
AcDbBlockBegin
  2
*Model_Space
 70
0
 10
0.0
 20
0.0
 30
0.0
  3
*Model_Space
  1

  0
ENDBLK
  5
21
100
AcDbEntity
  8
0
100
AcDbBlockEnd
  0
BLOCK
  5
1C
100
AcDbEntity
 67
1
  8
0
100
AcDbBlockBegin
  2
*Paper_Space
 70
0
 10
0.0
 20
0.0
 30
0.0
  3
*Paper_Space
  1

  0
ENDBLK
  5
1D
100
AcDbEntity
 67
1
  8
0
100
AcDbBlockEnd
  0
BLOCK
  5
24
100
AcDbEntity
  8
0
100
AcDbBlockBegin
  2
*Paper_Space0
 70
0
 10
0.0
 20
0.0
 30
0.0
  3
*Paper_Space0
  1

  0
ENDBLK
  5
25
100
AcDbEntity
  8
0
100
AcDbBlockEnd
  0
BLOCK
  5
5B
100
AcDbEntity
  8
0
100
AcDbBlockBegin
  2
A$C0E856265
 70
0
 10
0.0
 20
0.0
 30
0.0
  3
A$C0E856265
  1

  0
LINE
  5
5C
100
AcDbEntity
  8
0
 62
7
420
16777215
370
-1
 48
1.0
  6
Continuous
100
AcDbLine
 10
134.3373581571759985
 20
7.6804515496955901
 30
0.0
 11
9.200708157175427
 21
7.6804515496955901
 31
0.0
  0
LINE
  5
5D
100
AcDbEntity
  8
0
 62
7
420
16777215
370
-1
 48
1.0
  6
Continuous
100
AcDbLine
 10
124.8138081571754014
 20
24.0019996413660692
 30
0.0
 11
134.3373581571759985
 21
24.0019996413660692
 31
0.0
  0
LINE
  5
5E
100
AcDbEntity
  8
0
 62
7
420
16777215
370
-1
 48
1.0
  6
Continuous
100
AcDbLine
 10
124.8138081571754014
 20
48.1009996413660019
 30
0.0
 11
124.8138081571754014
 21
24.0019996413660692
 31
0.0
  0
LINE
  5
5F
100
AcDbEntity
  8
0
 62
7
420
16777215
370
-1
 48
1.0
  6
Continuous
100
AcDbLine
 10
134.3388081571754071
 20
48.1009996413660019
 30
0.0
 11
134.3388081571754071
 21
62.0999996413660327
 31
0.0
  0
LINE
  5
60
100
AcDbEntity
  8
0
 62
7
420
16777215
370
-1
 48
1.0
  6
Continuous
100
AcDbLine
 10
129.5768081571754919
 20
86.2009996413660247
 30
0.0
 11
129.5768081571754919
 21
62.0999996413660327
 31
0.0
  0
LINE
  5
61
100
AcDbEntity
  8
0
 62
7
420
16777215
370
-1
 48
1.0
  6
Continuous
100
AcDbLine
 10
139.1018081571754124
 20
120.0519996413658959
 30
0.0
 11
139.1018081571754124
 21
86.2009996413660247
 31
0.0
  0
LINE
  5
62
100
AcDbEntity
  8
0
 62
7
420
16777215
370
-1
 48
1.0
  6
Continuous
100
AcDbLine
 10
129.5768081571754919
 20
86.2009996413660247
 30
0.0
 11
139.1018081571754124
 21
86.2009996413660247
 31
0.0
  0
LINE
  5
63
100
AcDbEntity
  8
0
 62
7
420
16777215
370
-1
 48
1.0
  6
Continuous
100
AcDbLine
 10
129.5768081571754919
 20
62.0999996413660327
 30
0.0
 11
134.3388081571754071
 21
62.0999996413660327
 31
0.0
  0
LINE
  5
64
100
AcDbEntity
  8
0
 62
7
420
16777215
370
-1
 48
1.0
  6
Continuous
100
AcDbLine
 10
134.3388081571754071
 20
48.1009996413660019
 30
0.0
 11
124.8138081571754014
 21
48.1009996413660019
 31
0.0
  0
LINE
  5
65
100
AcDbEntity
  8
0
 62
7
420
16777215
370
-1
 48
1.0
  6
Continuous
100
AcDbLine
 10
9.200708157175427
 20
7.6804515496955901
 30
0.0
 11
9.2007081571755407
 21
120.0519996413658959
 31
0.0
  0
LINE
  5
66
100
AcDbEntity
  8
0
 62
7
420
16777215
370
-1
 48
1.0
  6
Continuous
100
AcDbLine
 10
140.8268081571754919
 20
83.6749995423561046
 30
0.0
 11
140.8268081571754919
 21
129.2519996413662113
 31
0.0
  0
LINE
  5
67
100
AcDbEntity
  8
0
 62
7
420
16777215
370
-1
 48
1.0
  6
Continuous
100
AcDbLine
 10
131.3013081571754981
 20
64.625499641365991
 30
0.0
 11
131.3013081571754981
 21
83.6754996676179417
 31
0.0
  0
LINE
  5
68
100
AcDbEntity
  8
0
 62
7
420
16777215
370
-1
 48
1.0
  6
Continuous
100
AcDbLine
 10
136.0633081571754133
 20
45.5754996413660365
 30
0.0
 11
136.0633081571754133
 21
64.625499641365991
 31
0.0
  0
LINE
  5
69
100
AcDbEntity
  8
0
 62
7
420
16777215
370
-1
 48
1.0
  6
Continuous
100
AcDbLine
 10
126.5383081571755071
 20
26.5264996413660583
 30
0.0
 11
126.5383081571755071
 21
45.5754996413660365
 31
0.0
  0
LINE
  5
6A
100
AcDbEntity
  8
0
 62
7
420
16777215
370
-1
 48
1.0
  6
Continuous
100
AcDbLine
 10
131.3018081571754863
 20
83.675499641366045
 30
0.0
 11
140.8268081571754919
 21
83.6749995423561046
 31
0.0
  0
LINE
  5
6B
100
AcDbEntity
  8
0
 62
7
420
16777215
370
-1
 48
1.0
  6
Continuous
100
AcDbLine
 10
131.3013081571754981
 20
64.6254996413661047
 30
0.0
 11
136.0633081571754133
 21
64.6254996413661047
 31
0.0
  0
LINE
  5
6C
100
AcDbEntity
  8
0
 62
7
420
16777215
370
-1
 48
1.0
  6
Continuous
100
AcDbLine
 10
136.0633081571754133
 20
45.5754996413660365
 30
0.0
 11
126.5383081571755071
 21
45.5754996413660365
 31
0.0
  0
LINE
  5
6D
100
AcDbEntity
  8
0
 62
7
420
16777215
370
-1
 48
1.0
  6
Continuous
100
AcDbLine
 10
126.5383081571755071
 20
26.5264996413660583
 30
0.0
 11
136.0618581571760046
 21
26.5264996413660583
 31
0.0
  0
CIRCLE
  5
6E
100
AcDbEntity
  8
0
 62
7
420
16777215
370
-1
 48
1.0
  6
Continuous
100
AcDbCircle
 10
3.7373281571753969
 20
125.5141458413661013
 30
0.0
 40
1.5
  0
CIRCLE
  5
6F
100
AcDbEntity
  8
0
 62
7
420
16777215
370
-1
 48
1.0
  6
Continuous
100
AcDbCircle
 10
132.8638081571754128
 20
125.5141458413661013
 30
0.0
 40
1.5
  0
CIRCLE
  5
70
100
AcDbEntity
  8
0
 62
7
420
16777215
370
-1
 48
1.0
  6
Continuous
100
AcDbCircle
 10
89.5459162884228448
 20
125.5141458413661013
 30
0.0
 40
1.5
  0
CIRCLE
  5
71
100
AcDbEntity
  8
0
 62
7
420
16777215
370
-1
 48
1.0
  6
Continuous
100
AcDbCircle
 10
3.7373281571753969
 20
3.73730084136605
 30
0.0
 40
1.5
  0
CIRCLE
  5
72
100
AcDbEntity
  8
0
 62
7
420
16777215
370
-1
 48
1.0
  6
Continuous
100
AcDbCircle
 10
71.6513504571755675
 20
3.73730084136605
 30
0.0
 40
1.5
  0
CIRCLE
  5
73
100
AcDbEntity
  8
0
 62
7
420
16777215
370
-1
 48
1.0
  6
Continuous
100
AcDbCircle
 10
131.5680681679160102
 20
3.7373008413661628
 30
0.0
 40
1.5
  0
CIRCLE
  5
74
100
AcDbEntity
  8
0
 62
7
420
16777215
370
-1
 48
1.0
  6
Continuous
100
AcDbCircle
 10
3.7373281571753969
 20
64.6257067413661161
 30
0.0
 40
1.5
  0
LINE
  5
75
100
AcDbEntity
  8
0
 62
7
420
16777215
370
-1
 48
1.0
  6
Continuous
100
AcDbLine
 10
-0.0000018428245312
 20
-0.0000003586338835
 30
0.0
 11
136.0618581571760046
 21
-0.0000003586338835
 31
0.0
  0
LINE
  5
76
100
AcDbEntity
  8
0
 62
7
420
16777215
370
-1
 48
1.0
  6
Continuous
100
AcDbLine
 10
-0.0000018428245312
 20
129.2519996413662113
 30
0.0
 11
-0.0000018428245312
 21
-0.0000003586338835
 31
0.0
  0
LINE
  5
77
100
AcDbEntity
  8
0
 62
7
420
16777215
370
-1
 48
1.0
  6
Continuous
100
AcDbLine
 10
134.3373581571759985
 20
24.0019996413660692
 30
0.0
 11
134.3373581571759985
 21
7.6804515496955901
 31
0.0
  0
LINE
  5
78
100
AcDbEntity
  8
0
 62
7
420
16777215
370
-1
 48
1.0
  6
Continuous
100
AcDbLine
 10
136.0618581571760046
 20
26.5264996413660583
 30
0.0
 11
136.0618581571760046
 21
-0.0000003586338835
 31
0.0
  0
LINE
  5
79
100
AcDbEntity
  8
0
 62
7
420
16777215
370
-1
 48
1.0
  6
Continuous
100
AcDbLine
 10
9.2007081571755407
 20
120.0519996413658959
 30
0.0
 11
26.9999981571754688
 21
120.0519996413658959
 31
0.0
  0
LINE
  5
7A
100
AcDbEntity
  8
0
 62
7
420
16777215
370
-1
 48
1.0
  6
Continuous
100
AcDbLine
 10
49.1460899337430419
 20
120.0519996413658959
 30
0.0
 11
95.9999981571754688
 21
120.0519996413658959
 31
0.0
  0
LINE
  5
7B
100
AcDbEntity
  8
0
 62
7
420
16777215
370
-1
 48
1.0
  6
Continuous
100
AcDbLine
 10
139.1018081571754124
 20
120.0519996413658959
 30
0.0
 11
110.9999981571753978
 21
120.0519996413658959
 31
0.0
  0
CIRCLE
  5
7C
100
AcDbEntity
  8
0
 62
7
420
16777215
370
-1
 48
1.0
  6
Continuous
100
AcDbCircle
 10
51.6018676045463209
 20
125.5141458413661013
 30
0.0
 40
1.5
  0
LINE
  5
7D
100
AcDbEntity
  8
0
 62
7
420
16777215
370
-1
 48
1.0
  6
Continuous
100
AcDbLine
 10
-0.0000018428245312
 20
129.2519996413662113
 30
0.0
 11
140.8268081571754919
 21
129.2519996413662113
 31
0.0
  0
LINE
  5
7E
100
AcDbEntity
  8
0
 62
7
420
16777215
370
-1
 48
1.0
  6
Continuous
100
AcDbLine
 10
26.9999981571754688
 20
127.7519992558318052
 30
0.0
 11
26.9999981571754688
 21
120.0519996413658959
 31
0.0
  0
LINE
  5
7F
100
AcDbEntity
  8
0
 62
7
420
16777215
370
-1
 48
1.0
  6
Continuous
100
AcDbLine
 10
46.9999981571754617
 20
127.7519992558318052
 30
0.0
 11
46.9999981571754617
 21
122.1709448812050027
 31
0.0
  0
LINE
  5
80
100
AcDbEntity
  8
0
 62
7
420
16777215
370
-1
 48
1.0
  6
Continuous
100
AcDbLine
 10
95.9999981571754688
 20
127.7519992558318052
 30
0.0
 11
95.9999981571754688
 21
120.0519996413658959
 31
0.0
  0
LINE
  5
81
100
AcDbEntity
  8
0
 62
7
420
16777215
370
-1
 48
1.0
  6
Continuous
100
AcDbLine
 10
110.9999981571753978
 20
127.7519992558318052
 30
0.0
 11
110.9999981571753978
 21
120.0519996413658959
 31
0.0
  0
LINE
  5
82
100
AcDbEntity
  8
0
 62
7
420
16777215
370
-1
 48
1.0
  6
Continuous
100
AcDbLine
 10
110.9999981571753978
 20
127.7519992558318052
 30
0.0
 11
95.9999981571754688
 21
127.7519992558318052
 31
0.0
  0
LINE
  5
83
100
AcDbEntity
  8
0
 62
7
420
16777215
370
-1
 48
1.0
  6
Continuous
100
AcDbLine
 10
46.9999981571754617
 20
127.7519992558318052
 30
0.0
 11
26.9999981571754688
 21
127.7519992558318052
 31
0.0
  0
LINE
  5
84
100
AcDbEntity
  8
0
 62
7
420
16777215
370
-1
 48
1.0
  6
Continuous
100
AcDbLine
 10
46.9999981571754617
 20
122.1709448812050027
 30
0.0
 11
49.1460899337430419
 21
120.0519996413658959
 31
0.0
  0
ENDBLK
  5
85
100
AcDbEntity
  8
0
100
AcDbBlockEnd
  0
ENDSEC
  0
SECTION
  2
ENTITIES
  0
LINE
  5
86
100
AcDbEntity
  8
0
 62
7
420
16777215
370
-1
 48
1.0
  6
Continuous
100
AcDbLine
 10
306.151458491058122
 20
213.0323903047932106
 30
0.0
 11
296.6250023005900971
 21
213.0323903047932106
 31
0.0
  0
LINE
  5
87
100
AcDbEntity
  8
0
 62
7
420
16777215
370
-1
 48
1.0
  6
Continuous
100
AcDbLine
 10
469.3904584910579842
 20
196.7097422131224107
 30
0.0
 11
296.6250023005903245
 21
196.7097422131224107
 31
0.0
  0
LINE
  5
88
100
AcDbEntity
  8
0
 62
7
420
16777215
370
-1
 48
1.0
  6
Continuous
100
AcDbLine
 10
469.3904584910579842
 20
196.7097422131224107
 30
0.0
 11
469.3904584910579842
 21
309.0812903047930718
 31
0.0
  0
LINE
  5
89
100
AcDbEntity
  8
0
 62
7
420
16777215
370
-1
 48
1.0
  6
Continuous
100
AcDbLine
 10
301.3904584910615085
 20
309.0812903047931854
 30
0.0
 11
301.3904584910580979
 21
270.1792903047930849
 31
0.0
  0
LINE
  5
8A
100
AcDbEntity
  8
0
 62
7
420
16777215
370
-1
 48
1.0
  6
Continuous
100
AcDbLine
 10
301.3904584910580979
 20
270.1792903047930849
 30
0.0
 11
291.8644584910583148
 21
270.1792903047930849
 31
0.0
  0
LINE
  5
8B
100
AcDbEntity
  8
0
 62
7
420
16777215
370
-1
 48
1.0
  6
Continuous
100
AcDbLine
 10
291.8644584910583148
 20
256.1802903047931181
 30
0.0
 11
296.6264584910579742
 21
256.1802903047931181
 31
0.0
  0
LINE
  5
8C
100
AcDbEntity
  8
0
 62
7
420
16777215
370
-1
 48
1.0
  6
Continuous
100
AcDbLine
 10
306.151458491058122
 20
237.1302903047931068
 30
0.0
 11
306.151458491058122
 21
213.0323903047932106
 31
0.0
  0
LINE
  5
8D
100
AcDbEntity
  8
0
 62
7
420
16777215
370
-1
 48
1.0
  6
Continuous
100
AcDbLine
 10
299.6654584910581889
 20
272.454790331045217
 30
0.0
 11
299.6654584910581889
 21
324.6312903047931968
 31
0.0
  0
LINE
  5
8E
100
AcDbEntity
  8
0
 62
7
420
16777215
370
-1
 48
1.0
  6
Continuous
100
AcDbLine
 10
290.1399561019031808
 20
253.9047903047930959
 30
0.0
 11
290.1399561019059092
 21
272.454790331045217
 31
0.0
  0
LINE
  5
8F
100
AcDbEntity
  8
0
 62
7
420
16777215
370
-1
 48
1.0
  6
Continuous
100
AcDbLine
 10
294.9019584910582239
 20
234.6061403047930014
 30
0.0
 11
294.901956101905796
 21
253.9047903047930959
 31
0.0
  0
LINE
  5
90
100
AcDbEntity
  8
0
 62
7
420
16777215
370
-1
 48
1.0
  6
Continuous
100
AcDbLine
 10
304.4247684910590124
 20
215.5557903047929074
 30
0.0
 11
304.4247684910590124
 21
234.6061403047930014
 31
0.0
  0
LINE
  5
91
100
AcDbEntity
  8
0
 62
7
420
16777215
370
-1
 48
1.0
  6
Continuous
100
AcDbLine
 10
290.1399561019059092
 20
272.454790331045217
 30
0.0
 11
299.6654584910581889
 21
272.454790331045217
 31
0.0
  0
LINE
  5
92
100
AcDbEntity
  8
0
 62
7
420
16777215
370
-1
 48
1.0
  6
Continuous
100
AcDbLine
 10
290.1399561019031808
 20
253.9047903047930959
 30
0.0
 11
294.901956101905796
 21
253.9047903047930959
 31
0.0
  0
LINE
  5
93
100
AcDbEntity
  8
0
 62
7
420
16777215
370
-1
 48
1.0
  6
Continuous
100
AcDbLine
 10
304.4247684910590124
 20
234.6061403047930014
 30
0.0
 11
294.9019584910582239
 21
234.6061403047930014
 31
0.0
  0
LINE
  5
94
100
AcDbEntity
  8
0
 62
7
420
16777215
370
-1
 48
1.0
  6
Continuous
100
AcDbLine
 10
304.4247684910590124
 20
215.5557903047929074
 30
0.0
 11
294.9005061019062737
 21
215.5563403047931104
 31
0.0
  0
CIRCLE
  5
95
100
AcDbEntity
  8
0
 62
7
420
16777215
370
-1
 48
1.0
  6
Continuous
100
AcDbCircle
 10
307.6284561019062949
 20
314.5434365047930783
 30
0.0
 40
1.5
  0
CIRCLE
  5
96
100
AcDbEntity
  8
0
 62
7
420
16777215
370
-1
 48
1.0
  6
Continuous
100
AcDbCircle
 10
307.6284561019062949
 20
192.766591504793098
 30
0.0
 40
1.5
  0
CIRCLE
  5
97
100
AcDbEntity
  8
0
 62
7
420
16777215
370
-1
 48
1.0
  6
Continuous
100
AcDbCircle
 10
388.1619561019056732
 20
314.5434365047933056
 30
0.0
 40
1.5
  0
CIRCLE
  5
98
100
AcDbEntity
  8
0
 62
7
420
16777215
370
-1
 48
1.0
  6
Continuous
100
AcDbCircle
 10
387.8901672032628767
 20
192.766591504793098
 30
0.0
 40
1.5
  0
CIRCLE
  5
99
100
AcDbEntity
  8
0
 62
7
420
16777215
370
-1
 48
1.0
  6
Continuous
100
AcDbCircle
 10
474.8529561019059884
 20
314.5434365047930783
 30
0.0
 40
1.5
  0
CIRCLE
  5
9A
100
AcDbEntity
  8
0
 62
7
420
16777215
370
-1
 48
1.0
  6
Continuous
100
AcDbCircle
 10
474.8529561019059884
 20
253.6549974047931073
 30
0.0
 40
1.5
  0
CIRCLE
  5
9B
100
AcDbEntity
  8
0
 62
7
420
16777215
370
-1
 48
1.0
  6
Continuous
100
AcDbCircle
 10
474.8529561019059884
 20
192.766591504793098
 30
0.0
 40
1.5
  0
LINE
  5
9C
100
AcDbEntity
  8
0
 62
7
420
16777215
370
-1
 48
1.0
  6
Continuous
100
AcDbLine
 10
291.8644584910583148
 20
270.1792903047930849
 30
0.0
 11
291.8644584910583148
 21
256.1802903047931181
 31
0.0
  0
LINE
  5
9D
100
AcDbEntity
  8
0
 62
7
420
16777215
370
-1
 48
1.0
  6
Continuous
100
AcDbLine
 10
296.6264584910579742
 20
256.1802903047931181
 30
0.0
 11
296.6264584910579742
 21
237.1302903047931068
 31
0.0
  0
LINE
  5
9E
100
AcDbEntity
  8
0
 62
7
420
16777215
370
-1
 48
1.0
  6
Continuous
100
AcDbLine
 10
306.151458491058122
 20
237.1302903047931068
 30
0.0
 11
296.6264584910579742
 21
237.1302903047931068
 31
0.0
  0
LINE
  5
9F
100
AcDbEntity
  8
0
 62
7
420
16777215
370
-1
 48
1.0
  6
Continuous
100
AcDbLine
 10
299.6654584910581889
 20
324.6312903047931968
 30
0.0
 11
478.2052561019055474
 21
324.6312903047931968
 31
0.0
  0
LINE
  5
A0
100
AcDbEntity
  8
0
 62
7
420
16777215
370
-1
 48
1.0
  6
Continuous
100
AcDbLine
 10
294.9005061019062737
 20
97.6792903047930992
 30
0.0
 11
478.2052561019054338
 21
97.6792903047930992
 31
0.0
  0
LINE
  5
A1
100
AcDbEntity
  8
0
 62
7
420
16777215
370
-1
 48
1.0
  6
Continuous
100
AcDbLine
 10
484.9404561019055109
 20
317.8960903047931765
 30
0.0
 11
484.9404561019055109
 21
104.4144903047931052
 31
0.0
  0
LINE
  5
A2
100
AcDbEntity
  8
0
 62
7
420
16777215
370
-1
 48
1.0
  6
Continuous
100
AcDbLine
 10
294.9005061019062737
 20
215.5563403047931104
 30
0.0
 11
294.9005061019062737
 21
97.6792903047930992
 31
0.0
  0
LINE
  5
A3
100
AcDbEntity
  8
0
 62
7
420
16777215
370
-1
 48
1.0
  6
Continuous
100
AcDbLine
 10
296.6250023005900971
 20
213.0323903047932106
 30
0.0
 11
296.6250023005903245
 21
196.7097422131224107
 31
0.0
  0
LINE
  5
A4
100
AcDbEntity
  8
0
 62
7
420
16777215
370
-1
 48
1.0
  6
Continuous
100
AcDbLine
 10
414.6679561019058156
 20
309.0775296352420014
 30
0.0
 11
469.3904584910579842
 21
309.0812903047930718
 31
0.0
  0
LINE
  5
A5
100
AcDbEntity
  8
0
 62
7
420
16777215
370
-1
 48
1.0
  6
Continuous
100
AcDbLine
 10
344.9179561019058724
 20
309.0812903047930149
 30
0.0
 11
393.2500870329926101
 21
309.0812903047931854
 31
0.0
  0
LINE
  5
A6
100
AcDbEntity
  8
0
 62
7
420
16777215
370
-1
 48
1.0
  6
Continuous
100
AcDbLine
 10
331.4619561019060257
 20
309.0812903047931854
 30
0.0
 11
301.3904584910615085
 21
309.0812903047931854
 31
0.0
  0
LINE
  5
A7
100
AcDbEntity
  8
0
 62
7
420
16777215
370
-1
 48
1.0
  6
Continuous
100
AcDbLine
 10
344.9179561019058724
 20
309.0812903047931854
 30
0.0
 11
344.9179561019058724
 21
316.7812903047931741
 31
0.0
  0
LINE
  5
A8
100
AcDbEntity
  8
0
 62
7
420
16777215
370
-1
 48
1.0
  6
Continuous
100
AcDbLine
 10
414.6679561019058156
 20
309.0775296352420014
 30
0.0
 11
414.6679561019058156
 21
316.7812903047931741
 31
0.0
  0
LINE
  5
A9
100
AcDbEntity
  8
0
 62
7
420
16777215
370
-1
 48
1.0
  6
Continuous
100
AcDbLine
 10
272.7707939508761115
 20
196.7097422131226097
 30
0.0
 11
147.6341439508753979
 21
196.7097422131226097
 31
0.0
  0
LINE
  5
AA
100
AcDbEntity
  8
0
 62
7
420
16777215
370
-1
 48
1.0
  6
Continuous
100
AcDbLine
 10
282.2950539508763086
 20
218.0802903047930954
 30
0.0
 11
272.7707939508761115
 21
218.0812903047931002
 31
0.0
  0
LINE
  5
AB
100
AcDbEntity
  8
0
 62
7
420
16777215
370
-1
 48
1.0
  6
Continuous
100
AcDbLine
 10
282.2950539508763086
 20
232.0809903047932039
 30
0.0
 11
282.2950539508763086
 21
218.0802903047930954
 31
0.0
  0
LINE
  5
AC
100
AcDbEntity
  8
0
 62
7
420
16777215
370
-1
 48
1.0
  6
Continuous
100
AcDbLine
 10
272.7722439508755201
 20
232.0809903047932039
 30
0.0
 11
272.7722439508755201
 21
251.129290304793102
 31
0.0
  0
LINE
  5
AD
100
AcDbEntity
  8
0
 62
7
420
16777215
370
-1
 48
1.0
  6
Continuous
100
AcDbLine
 10
268.0102439508755197
 20
275.2302903047930727
 30
0.0
 11
268.0102439508755197
 21
251.129290304793102
 31
0.0
  0
LINE
  5
AE
100
AcDbEntity
  8
0
 62
7
420
16777215
370
-1
 48
1.0
  6
Continuous
100
AcDbLine
 10
277.5352439508754969
 20
309.0812903047930718
 30
0.0
 11
277.5352439508754969
 21
275.2302903047930727
 31
0.0
  0
LINE
  5
AF
100
AcDbEntity
  8
0
 62
7
420
16777215
370
-1
 48
1.0
  6
Continuous
100
AcDbLine
 10
268.0102439508755197
 20
275.2302903047930727
 30
0.0
 11
277.5352439508754969
 21
275.2302903047930727
 31
0.0
  0
LINE
  5
B0
100
AcDbEntity
  8
0
 62
7
420
16777215
370
-1
 48
1.0
  6
Continuous
100
AcDbLine
 10
268.0102439508755197
 20
251.129290304793102
 30
0.0
 11
272.7722439508755201
 21
251.129290304793102
 31
0.0
  0
LINE
  5
B1
100
AcDbEntity
  8
0
 62
7
420
16777215
370
-1
 48
1.0
  6
Continuous
100
AcDbLine
 10
272.7722439508755201
 20
232.0809903047932039
 30
0.0
 11
282.2950539508763086
 21
232.0809903047932039
 31
0.0
  0
LINE
  5
B2
100
AcDbEntity
  8
0
 62
7
420
16777215
370
-1
 48
1.0
  6
Continuous
100
AcDbLine
 10
147.6341439508753979
 20
196.7097422131226097
 30
0.0
 11
147.6341439508755968
 21
309.0812903047930718
 31
0.0
  0
LINE
  5
B3
100
AcDbEntity
  8
0
 62
7
420
16777215
370
-1
 48
1.0
  6
Continuous
100
AcDbLine
 10
279.2602439508755197
 20
272.7042902057831952
 30
0.0
 11
279.2602439508755197
 21
324.6312903047931968
 31
0.0
  0
LINE
  5
B4
100
AcDbEntity
  8
0
 62
7
420
16777215
370
-1
 48
1.0
  6
Continuous
100
AcDbLine
 10
269.7347439508756111
 20
253.6547903047930959
 30
0.0
 11
269.7347439508756111
 21
272.7047903310451034
 31
0.0
  0
LINE
  5
B5
100
AcDbEntity
  8
0
 62
7
420
16777215
370
-1
 48
1.0
  6
Continuous
100
AcDbLine
 10
274.4967439508754978
 20
234.3547903047931982
 30
0.0
 11
274.4967439508754978
 21
253.6547903047930959
 31
0.0
  0
LINE
  5
B6
100
AcDbEntity
  8
0
 62
7
420
16777215
370
-1
 48
1.0
  6
Continuous
100
AcDbLine
 10
284.0195539508764
 20
215.8057903047931916
 30
0.0
 11
284.0195539508762863
 21
234.3547903047931982
 31
0.0
  0
LINE
  5
B7
100
AcDbEntity
  8
0
 62
7
420
16777215
370
-1
 48
1.0
  6
Continuous
100
AcDbLine
 10
269.7352439508755992
 20
272.7047903047931072
 30
0.0
 11
279.2602439508755197
 21
272.7042902057831952
 31
0.0
  0
LINE
  5
B8
100
AcDbEntity
  8
0
 62
7
420
16777215
370
-1
 48
1.0
  6
Continuous
100
AcDbLine
 10
269.7347439508756111
 20
253.6547903047932095
 30
0.0
 11
274.4967439508754978
 21
253.6547903047932095
 31
0.0
  0
LINE
  5
B9
100
AcDbEntity
  8
0
 62
7
420
16777215
370
-1
 48
1.0
  6
Continuous
100
AcDbLine
 10
274.4967439508754978
 20
234.3547903047931982
 30
0.0
 11
284.0195539508762863
 21
234.3547903047931982
 31
0.0
  0
LINE
  5
BA
100
AcDbEntity
  8
0
 62
7
420
16777215
370
-1
 48
1.0
  6
Continuous
100
AcDbLine
 10
284.0195539508764
 20
215.8057903047931916
 30
0.0
 11
274.4952939508760892
 21
215.8057903047931916
 31
0.0
  0
CIRCLE
  5
BB
100
AcDbEntity
  8
0
 62
7
420
16777215
370
-1
 48
1.0
  6
Continuous
100
AcDbCircle
 10
142.1707639508753971
 20
314.5434365047931919
 30
0.0
 40
1.5
  0
CIRCLE
  5
BC
100
AcDbEntity
  8
0
 62
7
420
16777215
370
-1
 48
1.0
  6
Continuous
100
AcDbCircle
 10
271.2972439508753837
 20
314.5434365047931919
 30
0.0
 40
1.5
  0
CIRCLE
  5
BD
100
AcDbEntity
  8
0
 62
7
420
16777215
370
-1
 48
1.0
  6
Continuous
100
AcDbCircle
 10
227.9793520821228867
 20
314.5434365047931919
 30
0.0
 40
1.5
  0
CIRCLE
  5
BE
100
AcDbEntity
  8
0
 62
7
420
16777215
370
-1
 48
1.0
  6
Continuous
100
AcDbCircle
 10
142.1707639508753971
 20
192.766591504793098
 30
0.0
 40
1.5
  0
CIRCLE
  5
BF
100
AcDbEntity
  8
0
 62
7
420
16777215
370
-1
 48
1.0
  6
Continuous
100
AcDbCircle
 10
142.1708000000000141
 20
107.6666000000000025
 30
0.0
 40
1.5
  0
CIRCLE
  5
C0
100
AcDbEntity
  8
0
 62
7
420
16777215
370
-1
 48
1.0
  6
Continuous
100
AcDbCircle
 10
210.0848000000000013
 20
107.6666000000000025
 30
0.0
 40
1.5
  0
CIRCLE
  5
C1
100
AcDbEntity
  8
0
 62
7
420
16777215
370
-1
 48
1.0
  6
Continuous
100
AcDbCircle
 10
270.0015000000000214
 20
107.6666000000000025
 30
0.0
 40
1.5
  0
CIRCLE
  5
C2
100
AcDbEntity
  8
0
 62
7
420
16777215
370
-1
 48
1.0
  6
Continuous
100
AcDbCircle
 10
307.6284999999999741
 20
107.6666000000000025
 30
0.0
 40
1.5
  0
CIRCLE
  5
C3
100
AcDbEntity
  8
0
 62
7
420
16777215
370
-1
 48
1.0
  6
Continuous
100
AcDbCircle
 10
387.890199999999993
 20
107.6666000000000025
 30
0.0
 40
1.5
  0
CIRCLE
  5
C4
100
AcDbEntity
  8
0
 62
7
420
16777215
370
-1
 48
1.0
  6
Continuous
100
AcDbCircle
 10
474.8530000000000086
 20
107.6666000000000025
 30
0.0
 40
1.5
  0
CIRCLE
  5
C5
100
AcDbEntity
  8
0
 62
7
420
16777215
370
-1
 48
1.0
  6
Continuous
100
AcDbCircle
 10
210.0847862508755952
 20
192.766591504793098
 30
0.0
 40
1.5
  0
CIRCLE
  5
C6
100
AcDbEntity
  8
0
 62
7
420
16777215
370
-1
 48
1.0
  6
Continuous
100
AcDbCircle
 10
270.0015039616160948
 20
192.7665915047932117
 30
0.0
 40
1.5
  0
CIRCLE
  5
C7
100
AcDbEntity
  8
0
 62
7
420
16777215
370
-1
 48
1.0
  6
Continuous
100
AcDbCircle
 10
142.1707639508753971
 20
253.6549974047931926
 30
0.0
 40
1.5
  0
LINE
  5
C8
100
AcDbEntity
  8
0
 62
7
420
16777215
370
-1
 48
1.0
  6
Continuous
100
AcDbLine
 10
138.8186339508754656
 20
97.6792903047931418
 30
0.0
 11
274.4952939508760892
 21
97.6792903047930565
 31
0.0
  0
LINE
  5
C9
100
AcDbEntity
  8
0
 62
7
420
16777215
370
-1
 48
1.0
  6
Continuous
100
AcDbLine
 10
132.0834339508754454
 20
317.8960903047931765
 30
0.0
 11
132.0834339508754738
 21
104.4144903047931905
 31
0.0
  0
LINE
  5
CA
100
AcDbEntity
  8
0
 62
7
420
16777215
370
-1
 48
1.0
  6
Continuous
100
AcDbLine
 10
272.7707939508761115
 20
218.0812903047931002
 30
0.0
 11
272.7707939508761115
 21
196.7097422131226097
 31
0.0
  0
LINE
  5
CB
100
AcDbEntity
  8
0
 62
7
420
16777215
370
-1
 48
1.0
  6
Continuous
100
AcDbLine
 10
274.4952939508760892
 20
215.8057903047931916
 30
0.0
 11
274.4952939508760892
 21
97.6792903047931134
 31
0.0
  0
LINE
  5
CC
100
AcDbEntity
  8
0
 62
7
420
16777215
370
-1
 48
1.0
  6
Continuous
100
AcDbLine
 10
279.2602439508755197
 20
324.6312903047931968
 30
0.0
 11
138.8186339508754088
 21
324.6312903047931968
 31
0.0
  0
LINE
  5
CD
100
AcDbEntity
  8
0
 62
7
420
16777215
370
-1
 48
1.0
  6
Continuous
100
AcDbLine
 10
147.6341439508755968
 20
309.0812903047930718
 30
0.0
 11
165.4334339508754965
 21
309.0812903047930718
 31
0.0
  0
LINE
  5
CE
100
AcDbEntity
  8
0
 62
7
420
16777215
370
-1
 48
1.0
  6
Continuous
100
AcDbLine
 10
187.579525727443098
 20
309.0812903047929012
 30
0.0
 11
234.4334339508754965
 21
309.0812903047930718
 31
0.0
  0
LINE
  5
CF
100
AcDbEntity
  8
0
 62
7
420
16777215
370
-1
 48
1.0
  6
Continuous
100
AcDbLine
 10
234.4334339508754965
 20
309.0812903047930718
 30
0.0
 11
234.4334339508754965
 21
316.7812899192588816
 31
0.0
  0
LINE
  5
D0
100
AcDbEntity
  8
0
 62
7
420
16777215
370
-1
 48
1.0
  6
Continuous
100
AcDbLine
 10
277.5352439508754969
 20
309.0812903047930718
 30
0.0
 11
249.4334339508754965
 21
309.0812903047930718
 31
0.0
  0
LINE
  5
D1
100
AcDbEntity
  8
0
 62
7
420
16777215
370
-1
 48
1.0
  6
Continuous
100
AcDbLine
 10
249.4334339508754965
 20
309.0812903047930718
 30
0.0
 11
249.4334339508754965
 21
316.7812899192588816
 31
0.0
  0
LINE
  5
D2
100
AcDbEntity
  8
0
 62
7
420
16777215
370
-1
 48
1.0
  6
Continuous
100
AcDbLine
 10
165.4334339508754965
 20
316.7551749664359022
 30
0.0
 11
165.4334339508754965
 21
309.0812903047929012
 31
0.0
  0
LINE
  5
D3
100
AcDbEntity
  8
0
 62
7
420
16777215
370
-1
 48
1.0
  6
Continuous
100
AcDbLine
 10
185.4334339508754965
 20
316.7812899192588816
 30
0.0
 11
185.4334339508754965
 21
311.2002355446321076
 31
0.0
  0
LINE
  5
D4
100
AcDbEntity
  8
0
 62
7
420
16777215
370
-1
 48
1.0
  6
Continuous
100
AcDbLine
 10
247.4853020821221889
 20
318.2812903047931741
 30
0.0
 11
247.6103020821221889
 21
318.2812903047931741
 31
0.0
  0
LINE
  5
D5
100
AcDbEntity
  8
0
 62
7
420
16777215
370
-1
 48
1.0
  6
Continuous
100
AcDbLine
 10
331.4619561019060257
 20
309.0812903047931854
 30
0.0
 11
331.4619561019060257
 21
316.7812903047931741
 31
0.0
  0
CIRCLE
  5
D6
100
AcDbEntity
  8
0
 62
7
420
16777215
370
-1
 48
1.0
  6
Continuous
100
AcDbCircle
 10
190.0353033982462989
 20
314.5434365047931919
 30
0.0
 40
1.5
  0
LINE
  5
D7
100
AcDbEntity
  8
0
 62
7
420
16777215
370
-1
 48
1.0
  6
Continuous
100
AcDbLine
 10
165.4334339508754965
 20
316.7812899192588816
 30
0.0
 11
185.4334339508754965
 21
316.7812899192588816
 31
0.0
  0
LINE
  5
D8
100
AcDbEntity
  8
0
 62
7
420
16777215
370
-1
 48
1.0
  6
Continuous
100
AcDbLine
 10
234.4334339508754965
 20
316.7812899192588816
 30
0.0
 11
249.4334339508754965
 21
316.7812899192588816
 31
0.0
  0
LINE
  5
D9
100
AcDbEntity
  8
0
 62
7
420
16777215
370
-1
 48
1.0
  6
Continuous
100
AcDbLine
 10
331.4619561019060257
 20
316.7812903047931741
 30
0.0
 11
344.9179561019058724
 21
316.7812903047931741
 31
0.0
  0
LINE
  5
DA
100
AcDbEntity
  8
0
 62
7
420
16777215
370
-1
 48
1.0
  6
Continuous
100
AcDbLine
 10
395.2119561019060257
 20
316.7812903047931741
 30
0.0
 11
414.6679561019058156
 21
316.7812903047931741
 31
0.0
  0
LINE
  5
DB
100
AcDbEntity
  8
0
 62
7
420
16777215
370
-1
 48
1.0
  6
Continuous
100
AcDbLine
 10
395.2119561019060257
 20
311.1481271582795216
 30
0.0
 11
395.2119561019060257
 21
316.7812903047931741
 31
0.0
  0
LINE
  5
DC
100
AcDbEntity
  8
0
 62
7
420
16777215
370
-1
 48
1.0
  6
Continuous
100
AcDbLine
 10
395.2119561019060257
 20
311.1481271582795216
 30
0.0
 11
393.2500870329926101
 21
309.0812903047931854
 31
0.0
  0
CIRCLE
  5
DD
100
AcDbEntity
  8
0
 62
7
420
16777215
370
-1
 48
1.0
  6
Continuous
100
AcDbCircle
 10
351.9679561019054859
 20
314.5434365047933056
 30
0.0
 40
1.5
  0
LINE
  5
DE
100
AcDbEntity
  8
0
 62
7
420
16777215
370
-1
 48
1.0
  6
Continuous
100
AcDbLine
 10
185.4334339508754965
 20
311.2002355446321076
 30
0.0
 11
187.579525727443098
 21
309.0812903047929012
 31
0.0
  0
LINE
  5
DF
100
AcDbEntity
  8
0
 62
7
420
16777215
370
-1
 48
1.0
  6
ByLayer
100
AcDbLine
 10
138.8186339508754088
 20
324.6312903047931968
 30
0.0
 11
132.0834339508754454
 21
317.8960903047931765
 31
0.0
  0
LINE
  5
E0
100
AcDbEntity
  8
0
 62
7
420
16777215
370
-1
 48
1.0
  6
ByLayer
100
AcDbLine
 10
478.2052561019054906
 20
324.6312903047931968
 30
0.0
 11
484.9404561019055109
 21
317.8960903047931765
 31
0.0
  0
LINE
  5
E1
100
AcDbEntity
  8
0
 62
7
420
16777215
370
-1
 48
1.0
  6
ByLayer
100
AcDbLine
 10
484.9404561019055109
 20
104.414490304793091
 30
0.0
 11
478.2052561019054906
 21
97.6792903047930992
 31
0.0
  0
LINE
  5
E2
100
AcDbEntity
  8
0
 62
7
420
16777215
370
-1
 48
1.0
  6
ByLayer
100
AcDbLine
 10
132.0834339508754738
 20
104.4144903047931479
 30
0.0
 11
138.8186339508754656
 21
97.6792903047931418
 31
0.0
  0
ENDSEC
  0
SECTION
  2
OBJECTS
  0
DICTIONARY
  5
C
100
AcDbDictionary
280
0
281
1
  3
ACAD_GROUP
350
D
  3
ACAD_LAYOUT
350
1A
  3
ACAD_MLINESTYLE
350
17
  3
ACAD_PLOTSETTINGS
350
19
  3
ACAD_PLOTSTYLENAME
350
E
  3
AcDbVariableDictionary
350
E3
  3
QCAD_OBJECTS
350
E4
  0
DICTIONARY
  5
D
100
AcDbDictionary
280
0
281
1
  0
ACDBDICTIONARYWDFLT
  5
E
100
AcDbDictionary
281
1
  3
Normal
350
F
100
AcDbDictionaryWithDefault
340
F
  0
ACDBPLACEHOLDER
  5
F
  0
DICTIONARY
  5
17
100
AcDbDictionary
280
0
281
1
  3
Standard
350
18
  0
MLINESTYLE
  5
18
100
AcDbMlineStyle
  2
STANDARD
 70
0
  3

 62
256
 51
90.0
 52
90.0
 71
2
 49
0.5
 62
256
  6
BYLAYER
 49
-0.5
 62
256
  6
BYLAYER
  0
DICTIONARY
  5
19
100
AcDbDictionary
280
0
281
1
  0
DICTIONARY
  5
1A
100
AcDbDictionary
281
1
  3
Layout1
350
1E
  3
Layout2
350
26
  3
Model
350
22
  0
LAYOUT
  5
1E
100
AcDbPlotSettings
  1

  2
none_device
  4

  6

 40
0.0
 41
0.0
 42
0.0
 43
0.0
 44
0.0
 45
0.0
 46
0.0
 47
0.0
 48
0.0
 49
0.0
140
0.0
141
0.0
142
1.0
143
1.0
 70
688
 72
0
 73
0
 74
5
  7

 75
16
147
1.0
148
0.0
149
0.0
100
AcDbLayout
  1
Layout1
 70
1
 71
1
 10
0.0
 20
0.0
 11
420.0
 21
297.0
 12
0.0
 22
0.0
 32
0.0
 14
100000000000000000000.0
 24
100000000000000000000.0
 34
100000000000000000000.0
 15
-100000000000000000000.0
 25
-100000000000000000000.0
 35
-100000000000000000000.0
146
0.0
 13
0.0
 23
0.0
 33
0.0
 16
1.0
 26
0.0
 36
0.0
 17
0.0
 27
1.0
 37
0.0
 76
0
330
1B
  0
LAYOUT
  5
22
100
AcDbPlotSettings
  1

  2
none_device
  4

  6

 40
0.0
 41
0.0
 42
0.0
 43
0.0
 44
0.0
 45
0.0
 46
0.0
 47
0.0
 48
0.0
 49
0.0
140
0.0
141
0.0
142
1.0
143
1.0
 70
1712
 72
0
 73
0
 74
0
  7

 75
0
147
1.0
148
0.0
149
0.0
100
AcDbLayout
  1
Model
 70
1
 71
0
 10
0.0
 20
0.0
 11
12.0
 21
9.0
 12
0.0
 22
0.0
 32
0.0
 14
0.0
 24
0.0
 34
0.0
 15
0.0
 25
0.0
 35
0.0
146
0.0
 13
0.0
 23
0.0
 33
0.0
 16
1.0
 26
0.0
 36
0.0
 17
0.0
 27
1.0
 37
0.0
 76
0
330
1F
  0
LAYOUT
  5
26
100
AcDbPlotSettings
  1

  2
none_device
  4

  6

 40
0.0
 41
0.0
 42
0.0
 43
0.0
 44
0.0
 45
0.0
 46
0.0
 47
0.0
 48
0.0
 49
0.0
140
0.0
141
0.0
142
1.0
143
1.0
 70
688
 72
0
 73
0
 74
5
  7

 75
16
147
1.0
148
0.0
149
0.0
100
AcDbLayout
  1
Layout2
 70
1
 71
2
 10
0.0
 20
0.0
 11
12.0
 21
9.0
 12
0.0
 22
0.0
 32
0.0
 14
0.0
 24
0.0
 34
0.0
 15
0.0
 25
0.0
 35
0.0
146
0.0
 13
0.0
 23
0.0
 33
0.0
 16
1.0
 26
0.0
 36
0.0
 17
0.0
 27
1.0
 37
0.0
 76
0
330
23
  0
DICTIONARY
  5
E3
100
AcDbDictionary
281
1
  3
DIMASSOC
350
E6
  3
HIDETEXT
350
E5
  0
DICTIONARYVAR
  5
E5
100
DictionaryVariables
280
0
  1
2
  0
DICTIONARYVAR
  5
E6
100
DictionaryVariables
280
0
  1
1
  0
DICTIONARY
  5
E4
100
AcDbDictionary
281
1
  3
ColorSettings/BackgroundColor
350
E7
  3
ColorSettings/ColorMode
350
E8
  3
Grid/DisplayGrid00
350
E9
  3
Grid/DisplayGrid01
350
EA
  3
Grid/DisplayGrid02
350
EB
  3
Grid/DisplayGrid03
350
EC
  3
Grid/GridSpacingX00
350
ED
  3
Grid/GridSpacingX01
350
EE
  3
Grid/GridSpacingX02
350
EF
  3
Grid/GridSpacingX03
350
F0
  3
Grid/GridSpacingY00
350
F1
  3
Grid/GridSpacingY01
350
F2
  3
Grid/GridSpacingY02
350
F3
  3
Grid/GridSpacingY03
350
F4
  3
Grid/IsometricGrid00
350
F5
  3
Grid/IsometricGrid01
350
F6
  3
Grid/IsometricGrid02
350
F7
  3
Grid/IsometricGrid03
350
F8
  3
Grid/IsometricProjection00
350
F9
  3
Grid/IsometricProjection01
350
FA
  3
Grid/IsometricProjection02
350
FB
  3
Grid/IsometricProjection03
350
FC
  3
Grid/MetaGridSpacingX00
350
FD
  3
Grid/MetaGridSpacingX01
350
FE
  3
Grid/MetaGridSpacingX02
350
FF
  3
Grid/MetaGridSpacingX03
350
100
  3
Grid/MetaGridSpacingY00
350
101
  3
Grid/MetaGridSpacingY01
350
102
  3
Grid/MetaGridSpacingY02
350
103
  3
Grid/MetaGridSpacingY03
350
104
  3
MultiPageSettings/Columns
350
105
  3
MultiPageSettings/GlueMarginsBottom
350
106
  3
MultiPageSettings/GlueMarginsLeft
350
107
  3
MultiPageSettings/GlueMarginsRight
350
108
  3
MultiPageSettings/GlueMarginsTop
350
109
  3
MultiPageSettings/PrintCropMarks
350
10A
  3
MultiPageSettings/Rows
350
10B
  3
PageSettings/OffsetX
350
10C
  3
PageSettings/OffsetY
350
10D
  3
PageSettings/PageOrientation
350
10E
  3
PageSettings/PaperHeight
350
10F
  3
PageSettings/PaperWidth
350
110
  3
PageSettings/Scale
350
111
  3
PageSettings/ShowPaperBorders
350
112
  3
PageTagSettings/EnablePageTags
350
113
  3
PageTagSettings/TagAlignment
350
114
  3
PageTagSettings/TagFont
350
115
  3
PageTagSettings/TagPosition
350
116
  3
QCADVersion
350
117
  3
UnitSettings/PaperUnit
350
118
  3
ViewportCenter
350
119
  3
ViewportHeight
350
11A
  3
ViewportWidth
350
11B
  0
XRECORD
  5
E7
330
E4
100
AcDbXrecord
280
1
1000
White
  0
XRECORD
  5
E8
330
E4
100
AcDbXrecord
280
1
1000
FullColor
  0
XRECORD
  5
E9
330
E4
100
AcDbXrecord
280
1
290
1
  0
XRECORD
  5
EA
330
E4
100
AcDbXrecord
280
1
290
1
  0
XRECORD
  5
EB
330
E4
100
AcDbXrecord
280
1
290
1
  0
XRECORD
  5
EC
330
E4
100
AcDbXrecord
280
1
290
1
  0
XRECORD
  5
ED
330
E4
100
AcDbXrecord
280
1
1000
auto
  0
XRECORD
  5
EE
330
E4
100
AcDbXrecord
280
1
1000
auto
  0
XRECORD
  5
EF
330
E4
100
AcDbXrecord
280
1
1000
auto
  0
XRECORD
  5
F0
330
E4
100
AcDbXrecord
280
1
1000
auto
  0
XRECORD
  5
F1
330
E4
100
AcDbXrecord
280
1
1000
auto
  0
XRECORD
  5
F2
330
E4
100
AcDbXrecord
280
1
1000
auto
  0
XRECORD
  5
F3
330
E4
100
AcDbXrecord
280
1
1000
auto
  0
XRECORD
  5
F4
330
E4
100
AcDbXrecord
280
1
1000
auto
  0
XRECORD
  5
F5
330
E4
100
AcDbXrecord
280
1
290
0
  0
XRECORD
  5
F6
330
E4
100
AcDbXrecord
280
1
290
0
  0
XRECORD
  5
F7
330
E4
100
AcDbXrecord
280
1
290
0
  0
XRECORD
  5
F8
330
E4
100
AcDbXrecord
280
1
290
0
  0
XRECORD
  5
F9
330
E4
100
AcDbXrecord
280
1
 90
65537
  0
XRECORD
  5
FA
330
E4
100
AcDbXrecord
280
1
 90
65537
  0
XRECORD
  5
FB
330
E4
100
AcDbXrecord
280
1
 90
65537
  0
XRECORD
  5
FC
330
E4
100
AcDbXrecord
280
1
 90
65537
  0
XRECORD
  5
FD
330
E4
100
AcDbXrecord
280
1
1000
auto
  0
XRECORD
  5
FE
330
E4
100
AcDbXrecord
280
1
1000
auto
  0
XRECORD
  5
FF
330
E4
100
AcDbXrecord
280
1
1000
auto
  0
XRECORD
  5
100
330
E4
100
AcDbXrecord
280
1
1000
auto
  0
XRECORD
  5
101
330
E4
100
AcDbXrecord
280
1
1000
auto
  0
XRECORD
  5
102
330
E4
100
AcDbXrecord
280
1
1000
auto
  0
XRECORD
  5
103
330
E4
100
AcDbXrecord
280
1
1000
auto
  0
XRECORD
  5
104
330
E4
100
AcDbXrecord
280
1
1000
auto
  0
XRECORD
  5
105
330
E4
100
AcDbXrecord
280
1
 90
1
  0
XRECORD
  5
106
330
E4
100
AcDbXrecord
280
1
 40
0.0
  0
XRECORD
  5
107
330
E4
100
AcDbXrecord
280
1
 40
0.0
  0
XRECORD
  5
108
330
E4
100
AcDbXrecord
280
1
 40
0.0
  0
XRECORD
  5
109
330
E4
100
AcDbXrecord
280
1
 40
0.0
  0
XRECORD
  5
10A
330
E4
100
AcDbXrecord
280
1
290
0
  0
XRECORD
  5
10B
330
E4
100
AcDbXrecord
280
1
 90
1
  0
XRECORD
  5
10C
330
E4
100
AcDbXrecord
280
1
 40
0.0
  0
XRECORD
  5
10D
330
E4
100
AcDbXrecord
280
1
 40
0.0
  0
XRECORD
  5
10E
330
E4
100
AcDbXrecord
280
1
1000
Portrait
  0
XRECORD
  5
10F
330
E4
100
AcDbXrecord
280
1
 40
297.0
  0
XRECORD
  5
110
330
E4
100
AcDbXrecord
280
1
 40
210.0
  0
XRECORD
  5
111
330
E4
100
AcDbXrecord
280
1
1000
1:1
  0
XRECORD
  5
112
330
E4
100
AcDbXrecord
280
1
290
1
  0
XRECORD
  5
113
330
E4
100
AcDbXrecord
280
1
290
0
  0
XRECORD
  5
114
330
E4
100
AcDbXrecord
280
1
1000
Inside
  0
XRECORD
  5
115
330
E4
100
AcDbXrecord
280
1
1000
Arial,10,-1,5,50,0,0,0,0,0
  0
XRECORD
  5
116
330
E4
100
AcDbXrecord
280
1
1000
TopLeft
  0
XRECORD
  5
117
330
E4
100
AcDbXrecord
280
1
1000
3.24.3
  0
XRECORD
  5
118
330
E4
100
AcDbXrecord
280
1
 90
4
  0
XRECORD
  5
11A
330
E4
100
AcDbXrecord
280
1
 40
243.8834977973569949
  0
XRECORD
  5
11B
330
E4
100
AcDbXrecord
280
1
 40
501.1121938325994734
  0
ENDSEC
  0
EOF
